<svg width="108" height="51" viewBox="0 0 108 51" fill="none" xmlns="http://www.w3.org/2000/svg">
<path opacity="0.2" d="M107.329 34.3374C105.252 31.6593 103.424 28.7961 101.871 25.7838C100.735 23.5197 100.05 20.8029 98.1434 19.0865C98.0303 19.0041 97.8986 18.951 97.7601 18.9317C97.6215 18.9124 97.4803 18.9277 97.3491 18.9761C97.2178 19.0244 97.1005 19.1045 97.0076 19.209C96.9147 19.3136 96.849 19.4395 96.8164 19.5756C96.0689 22.4134 97.6031 25.6762 98.7328 28.1688L99.1101 28.9265C89.867 20.7794 77.9689 16.2848 65.6478 16.2858C61.8059 16.3118 57.9787 16.7621 54.2356 17.6285C51.1653 10.4916 45.4069 4.85157 38.2078 1.93016C23.9122 -3.62999 4.96995 4.84412 0.660084 19.7716C0.551165 20.0077 0.970938 20.1243 1.08056 19.9105C7.91953 5.5882 25.9251 -3.21892 40.2982 6.37465C44.7506 9.42271 48.2015 13.7201 50.2163 18.7256C40.1832 21.8058 30.8531 28.0407 31.4371 38.376C31.7558 44.2497 35.8662 50.0447 42.1347 50.1834C49.1777 50.3381 53.9735 43.6192 55.7871 37.5398C57.4316 31.7036 57.1881 25.4969 55.0916 19.8074C57.9394 19.1436 60.8444 18.7542 63.7666 18.6446C70.6362 18.347 77.4896 19.5288 83.8628 22.11C90.236 24.6912 95.9803 28.6116 100.707 33.6057C97.9459 33.8874 95.2351 34.5368 92.6464 35.5367C89.9925 36.5149 91.5185 40.3686 94.1431 39.5972C97.9303 38.4632 101.846 37.8126 105.796 37.6608C106.16 37.6167 106.507 37.4802 106.804 37.2643C107.1 37.0483 107.337 36.7601 107.49 36.427C107.644 36.0939 107.71 35.727 107.682 35.3613C107.653 34.9955 107.532 34.643 107.329 34.3374ZM44.8766 45.1711C39.9139 47.2867 35.8379 42.5868 35.2603 38.0143C34.5974 32.7196 38.5225 28.0549 42.5458 25.2305C45.1688 23.4215 48.0319 21.9882 51.052 20.9723C51.434 22.1938 51.7391 23.438 51.9654 24.6976C53.1957 31.3884 52.165 42.0249 44.8766 45.1711Z" fill="white"/>
</svg>
