<svg width="219" height="300" viewBox="0 0 219 300" fill="none" xmlns="http://www.w3.org/2000/svg">
<g opacity="0.15">
<path d="M145.5 192C126.611 192 108.147 186.399 92.442 175.905C76.7369 165.411 64.4964 150.495 57.2685 133.044C50.0407 115.593 48.1501 96.3907 51.8358 77.8653C55.5215 59.3398 64.6179 42.3233 77.9748 28.9678C91.3317 15.6123 108.349 6.51759 126.875 2.83383C145.401 -0.849931 164.603 1.04272 182.053 8.27242C199.503 15.5021 214.418 27.7442 224.91 43.4504C235.403 59.1566 241.002 77.6215 241 96.51C240.968 121.828 230.896 146.099 212.993 164C195.09 181.901 170.817 191.971 145.5 192Z" stroke="#FD0000" stroke-width="2" stroke-miterlimit="10"/>
<path d="M145.5 177.934C190.471 177.934 226.927 141.479 226.927 96.5082C226.927 51.5378 190.471 15.082 145.5 15.082C100.53 15.082 64.0742 51.5378 64.0742 96.5082C64.0742 141.479 100.53 177.934 145.5 177.934Z" stroke="#FD0000" stroke-width="2" stroke-miterlimit="10"/>
<path d="M145.499 162.833C182.129 162.833 211.823 133.139 211.823 96.5092C211.823 59.8797 182.129 30.1855 145.499 30.1855C108.87 30.1855 79.1758 59.8797 79.1758 96.5092C79.1758 133.139 108.87 162.833 145.499 162.833Z" stroke="#FD0000" stroke-width="2" stroke-miterlimit="10"/>
<path d="M145.499 148.999C174.488 148.999 197.989 125.498 197.989 96.509C197.989 67.5199 174.488 44.0195 145.499 44.0195C116.51 44.0195 93.0097 67.5199 93.0097 96.509C93.0097 125.498 116.51 148.999 145.499 148.999Z" stroke="#FD0000" stroke-width="2" stroke-miterlimit="10"/>
</g>
<path d="M186.324 243.991C186.606 245.445 186.389 247.019 186.399 248.532C188.317 249.587 190.224 251.61 191.849 251.953C194.937 252.604 197.424 254.693 200.553 254.92C200.86 254.92 201.304 254.951 201.441 255.142C203.055 257.372 205.169 256.843 207.364 256.389C209.044 256.04 210.689 256.479 212.289 257.07C219.61 259.774 226.588 263.241 233.657 266.515C234.48 266.894 235.226 267.524 236.22 267.423C238.466 264.991 236.135 263.498 234.823 262.272C229.53 257.307 224.035 252.549 218.606 247.73C217.935 247.13 216.694 246.615 216.951 245.712C217.264 244.642 218.757 245.369 219.6 244.829C219.706 244.763 219.923 244.874 220.105 244.884C229.479 245.525 238.89 244.738 248.249 245.661C249.258 245.757 250.091 245.53 250.57 244.556L250.025 243.991L250.096 244.072L249.491 243.477C243.506 237.493 236.286 233.486 228.46 230.509C224.545 228.996 220.528 227.785 216.547 226.473C215.447 226.11 214.706 225.645 214.484 224.318C214.08 222.248 212.887 220.416 211.159 219.207C211.043 219.429 210.982 219.712 210.8 219.863C203.974 225.307 197.177 230.807 190.275 236.13C187.595 238.184 185.602 240.263 186.324 243.991Z" fill="#2F2466"/>
<path d="M88.8811 213.846C88.8407 215.683 90.9902 216.323 91.2374 217.63C91.4847 218.937 90.1577 220.582 91.6764 221.909C92.3979 222.545 92.075 223.175 91.8934 223.927C91.3888 226.026 91.9237 227.757 94.1791 228.529C94.6599 228.603 95.0927 228.862 95.385 229.25C99.583 235.628 101.944 242.803 104.543 249.887C104.736 250.529 104.977 251.154 105.264 251.759C105.673 252.496 106.188 252.294 106.637 251.729C106.894 250.939 107.203 250.167 107.56 249.418C113.292 238.999 119.11 228.63 124.771 218.175C126.92 214.219 129.236 210.354 131.406 206.409C132.708 204.042 133.929 201.646 135.074 199.183C133.989 199.133 132.902 199.225 131.84 199.456C125.634 200.758 119.418 201.979 113.206 203.275C105.197 204.924 97.1913 206.584 89.1889 208.255C89.4715 209.719 89.9054 211.167 89.0073 212.6C88.8666 212.999 88.8233 213.426 88.8811 213.846Z" fill="#C2B532"/>
<path d="M128.328 108.551C128.977 108.416 129.618 108.248 130.25 108.046C138.35 104.958 146.443 101.862 154.53 98.7571C155.388 96.532 156.22 94.2917 157.118 92.0817C157.734 90.568 158.127 88.9231 159.586 87.8888C159.709 87.131 159.878 86.3812 160.09 85.6434C160.236 85.1389 160.398 84.6747 160.569 84.1953L160.842 83.4889C161.311 82.3083 161.851 81.1578 162.416 80.0226C162.532 79.7955 162.648 79.5684 162.759 79.3414C163.218 78.4332 163.683 77.53 164.137 76.6167C164.066 76.4099 163.995 76.208 163.92 76.0062C163.844 75.8044 163.763 75.6026 163.683 75.4058C163.516 75.0122 163.34 74.6237 163.148 74.2402C162.764 73.4731 162.304 72.7463 161.775 72.0706C155.847 69.3964 149.898 66.7676 143.999 64.0328C141.855 63.0237 140.064 62.8976 137.985 64.4466C135.151 66.6455 132.097 68.546 128.873 70.1179C128.873 70.2693 128.837 70.4257 128.807 70.5771C128.408 75.2746 128.888 79.957 128.302 84.7049C127.898 88.5646 127.93 92.4575 128.398 96.31C128.555 97.7581 129.695 98.5957 131.128 98.7874C132.048 98.8564 132.972 98.8649 133.893 98.8126L134.423 98.4443C134.468 98.5048 134.509 98.5704 134.549 98.631L133.903 98.8278C132.389 99.2365 130.901 100.175 129.266 99.1911L127.717 99.5039C128.116 102.531 127.414 105.594 128.328 108.551Z" fill="#DB4926"/>
<path d="M131.188 157.529C134.04 156.429 136.716 154.918 139.13 153.043C145.074 148.628 151.285 144.592 157.612 140.712C160.927 141.11 164.247 141.484 167.557 141.918C173.193 142.654 178.814 143.431 184.445 144.188C184.415 144.138 184.38 144.092 184.344 144.042C183.113 142.261 180.878 140.949 181.63 138.224C178.93 135.484 179.697 131.377 177.548 128.259C175.842 125.782 176.413 122.29 175.777 119.283C174.98 115.514 174.349 111.714 173.643 107.92C168.573 109.232 163.501 110.547 158.425 111.866C158.14 111.907 157.871 112.021 157.645 112.198C157.418 112.375 157.242 112.609 157.133 112.875C154.136 119.915 151.109 126.939 148.051 133.945C147.546 135.101 147.546 136.62 146.134 137.266H146.093C145.483 139.143 143.989 140.429 142.844 141.923C140.139 145.455 137.294 148.866 134.488 152.327C133.519 154.179 131.395 155.238 131.188 157.529Z" fill="#69BD52"/>
<path d="M89.1833 208.267C97.1925 206.606 105.198 204.946 113.201 203.287C119.412 202.011 125.628 200.764 131.834 199.468C132.896 199.237 133.983 199.145 135.069 199.195L135.24 199.165C136.174 194.992 135.952 190.718 136.406 186.505C136.467 185.43 136.295 184.354 135.901 183.352C134.463 178.932 132.369 174.724 131.4 170.147C131.277 170.065 131.141 170.005 130.997 169.971C126.935 171.323 123.257 173.816 118.832 174.118C115.052 180.173 112 186.601 109.068 193.428C106.667 190.476 104.679 187.479 101.601 185.557C100.561 187.928 98.3866 189.321 96.7215 191.142C94.4258 193.665 92.5235 196.526 89.9149 198.756L89.1833 208.267Z" fill="#69BD52"/>
<path d="M180.148 226.742C182.323 230.38 183.847 234.31 185.527 238.2C186.031 239.371 185.386 239.653 184.583 240.017C182.323 241.046 180.067 242.082 177.817 243.125C180.754 244.795 183.791 246.294 186.395 248.488C186.395 246.975 186.602 245.421 186.319 243.947C185.597 240.239 187.591 238.16 190.255 236.111C197.177 230.788 203.954 225.288 210.78 219.844C210.962 219.698 211.023 219.41 211.139 219.188C207.102 216.847 205.639 212.81 204.024 208.774C202.722 205.514 200.997 202.421 199.483 199.258C195.411 199.439 191.773 201.276 187.878 202.22C184.79 202.956 181.975 205.045 178.473 203.829C175.718 202.876 174.219 203.713 172.761 206.443C172.57 206.801 172.317 207.124 172.095 207.452C172.443 209.193 173.306 210.727 174.018 212.326C175.703 216.115 177.257 219.965 178.867 223.785C179.028 224.915 181.329 225.071 180.148 226.742Z" fill="#68246A"/>
<path d="M94.8939 45.29L95.0907 50.9311L98.6227 47.9037C97.775 47.1064 96.2815 46.945 96.0342 45.0882L100.575 46.39C105.828 43.2516 105.828 43.2516 109.839 48.0046C114.027 48.7463 118.22 49.4628 122.403 50.2348C130.168 51.6526 137.888 53.0856 145.578 54.5791C147.127 54.8768 147.54 54.8061 146.955 53.0654C146.092 50.477 145.608 47.7573 144.962 45.0932C141.092 40.9608 136.324 38.8517 130.668 38.9425C129.253 38.9742 127.864 38.5612 126.697 37.7619C122.578 35.0211 118.723 31.9029 115.183 28.4476C109.42 23.0235 107.165 22.751 100.313 26.5958C98.8648 27.4081 97.447 28.281 96.014 29.1186L94.9494 30.7736C94.9292 35.6141 94.9107 40.4529 94.8939 45.29Z" fill="#AE226A"/>
<path d="M113.791 246.558C111.152 247.97 109.345 250.468 106.641 251.74C106.898 250.95 107.207 250.178 107.564 249.429C113.296 239.009 119.114 228.641 124.775 218.186C126.924 214.23 129.24 210.365 131.41 206.419C131.733 205.829 132.056 205.234 132.374 204.638C132.611 204.189 132.848 203.745 133.075 203.296C133.252 202.958 133.423 202.62 133.58 202.287C134.084 201.278 134.589 200.244 135.058 199.204L135.23 199.174C138.065 199.174 140.74 199.971 143.424 200.743C143.126 201.033 142.811 201.304 142.48 201.555C138.282 204.376 134.13 207.217 132.106 212.197C131.602 213.458 130.396 214.245 129.351 215.093C125.315 218.363 125.315 218.363 127.116 223.398C127.374 224.11 127.621 224.816 127.929 225.512C132.571 236.673 135.043 248.389 136.804 260.282L119.366 260.196L123.065 254.525C120.91 256.276 119.588 258.718 117.393 260.368L111.177 260.292C113.195 258.082 115.718 256.306 117.151 253.586C118.867 252.037 119.709 249.969 120.486 247.86L116.682 253.168C114.452 255.186 112.388 257.381 109.799 258.95C109.335 259.232 108.957 259.883 108.286 259.55C106.903 258.854 106.585 254.358 107.781 253.294C110.062 251.286 112.393 249.348 113.791 246.558ZM114.336 246.285L115.713 244.832C114.381 244.408 114.325 245.367 113.876 245.841L114.336 246.285Z" fill="#D9532F"/>
<path d="M127.877 108.958C131.843 114.912 135.95 120.79 139.729 126.85C141.894 130.296 144.634 133.41 146.112 137.265C147.54 136.619 147.52 135.1 148.029 133.944C151.117 126.941 154.145 119.918 157.112 112.874C157.22 112.608 157.397 112.374 157.623 112.197C157.85 112.02 158.119 111.906 158.403 111.865C163.476 110.543 168.549 109.227 173.621 107.919C173.143 104.636 172.404 101.397 171.411 98.2312C165.765 98.0344 160.159 99.1142 154.503 98.7358C146.41 101.834 138.317 104.93 130.223 108.025C129.592 108.227 128.95 108.395 128.301 108.529L127.877 108.958Z" fill="#C2B532"/>
<path d="M46.5338 85.7077H46.5703V85.666L46.5338 85.7077Z" fill="#2F2466"/>
<path d="M32.5104 117.468C34.2915 120.693 35.4419 124.285 37.9849 127.055C45.4424 115.955 51.7596 104.218 58.2483 92.568C58.7529 91.6195 59.2575 90.6355 59.762 89.6718C57.4713 86.7958 54.7164 84.3941 51.9261 82.0276C51.356 81.5231 50.5638 81.1093 50.8262 80.2364C51.0885 79.3635 51.9513 79.6209 52.572 79.6663C57.1938 79.9791 61.7753 79.2828 66.3567 79.0204C69.8332 78.8236 73.3803 78.9901 76.8164 78.1273C76.181 75.8788 75.0752 73.7908 73.572 72.0019L50.2661 67.0723C49.706 70.4478 49.817 73.7124 51.7798 76.6944C51.9917 77.0173 52.5921 77.2292 51.8504 77.8095C49.5647 79.5956 48.5859 82.3203 47.163 84.722C47.1125 85.1257 47.0419 85.5142 46.5979 85.6706C46.6282 86.4931 46.8956 87.3912 46.3961 88.0976C43.9539 91.5286 42.7733 95.5652 40.9366 99.2889C37.9597 105.288 35.2956 111.409 32.5104 117.468Z" fill="#2F2466"/>
<path d="M116.795 287.119C115.322 287.886 113.768 288.471 112.219 289.137L115.715 299.874C120.135 300.273 124.49 299.637 128.834 299.132C128.92 298.477 128.945 297.8 129.091 297.155C130.721 290.02 132.245 282.86 134.067 275.771C135.076 271.77 135.515 267.577 137.422 263.823L136.801 260.291L119.363 260.205C117.093 262.521 114.999 265.014 112.355 266.951C111.033 267.92 111.371 272.638 112.991 274.197C116.154 277.224 116.679 281.397 117.981 285.237C118.385 286.342 117.461 286.776 116.795 287.119Z" fill="#D34343"/>
<path d="M172.102 207.487C172.324 207.149 172.577 206.826 172.768 206.478C174.227 203.748 175.725 202.911 178.48 203.864C181.982 205.08 184.797 202.991 187.885 202.255C191.76 201.331 195.398 199.475 199.49 199.293C196.816 193.142 193.794 187.138 192.719 180.397C192.129 176.698 192.446 173.025 192.542 169.332C192.588 167.571 192.472 165.8 192.431 164.049L185.302 163.822L185.125 163.852L184.954 163.802C183.746 163.962 182.518 163.848 181.361 163.469C181.325 163.613 181.302 163.76 181.29 163.908C180.604 170.023 178.768 175.901 177.476 181.885C177.385 182.286 177.299 182.684 177.219 183.081C177.072 183.773 176.921 184.459 176.77 185.15C176.618 185.841 176.462 186.522 176.31 187.214C176.008 188.586 175.725 189.969 175.508 191.356C174.671 196.78 172.577 201.952 172.133 207.427L172.102 207.487Z" fill="#413D90"/>
<path d="M111.116 55.3286L110.98 56.9634L128.892 70.1074C132.118 68.5358 135.174 66.6353 138.01 64.4361C140.088 62.8871 141.88 63.0334 144.024 64.0223C149.917 66.7571 155.866 69.4111 161.795 72.0601C160.856 70.0116 159.933 67.958 158.964 65.9296C158.535 65.0214 158.066 63.9113 156.981 63.8003C153.308 63.3916 152.44 60.4298 151.709 57.7455C150.402 52.9774 148.641 48.5523 144.978 45.0859C145.624 47.7501 146.108 50.4697 146.971 53.0581C147.556 54.819 147.142 54.8897 145.593 54.5718C137.889 53.0581 130.169 51.6453 122.444 50.2224C118.261 49.4504 114.068 48.734 109.88 47.9922C111.974 50.0105 111.737 52.4778 111.157 54.9956C111.183 55.0489 111.194 55.109 111.187 55.1682C111.18 55.2275 111.155 55.2833 111.116 55.3286Z" fill="#C62030"/>
<path d="M136.885 185.697C140.285 187.867 143.399 189.678 146.305 191.777C148.086 193.059 150.533 193.492 151.598 195.728C155.221 193.992 155.21 193.997 157.627 197.428C158.303 198.387 159.04 199.3 159.752 200.239C163.484 202.012 166.998 204.213 170.221 206.798L171.301 206.768C171.301 206.601 171.301 206.435 171.301 206.263C171.311 205.756 171.274 205.249 171.19 204.749C168.698 193.008 167.098 181.09 164.172 169.43C162.961 169.526 162.047 170.287 161.033 170.827C157.849 172.518 155.221 175.197 151.603 176.11C150.288 177.373 148.8 178.442 147.183 179.284C143.727 181.262 140.437 183.477 136.885 185.697Z" fill="#D34343"/>
<path d="M73.8301 102.503L73.8049 102.468L73.7393 102.438L73.8301 102.503Z" fill="#68246A"/>
<path d="M51.9037 82.03C54.694 84.3964 57.454 86.7982 59.7396 89.6742C60.7185 87.3936 63.0092 85.7235 62.8276 82.8878C62.7973 82.4791 63.3574 82.2016 63.7863 82.3227C64.7954 82.5951 66.0013 82.4085 66.3394 83.8717C66.5603 84.8415 66.9744 85.7569 67.5569 86.5632C68.1395 87.3694 68.8786 88.05 69.7301 88.5642C65.6431 89.649 67.2981 91.6269 68.5645 93.6603C70.2346 96.3547 71.7887 99.1197 73.3932 101.854C73.5244 102.056 73.6657 102.248 73.8019 102.45C75.4266 103.136 76.577 104.428 77.8385 105.583C80.6943 108.172 83.2171 111.164 86.5675 113.187C86.7188 113.278 86.8702 113.369 87.0266 113.449L87.2436 113.576C87.4757 112.597 87.7112 111.618 87.95 110.639C88.1888 109.66 88.4243 108.681 88.6564 107.702L90.0742 101.839C85.5331 96.4505 82.4502 90.093 78.3329 84.4217C78.0554 84.0332 77.5559 83.4125 78.1816 83.1804C80.0888 82.4236 78.7366 81.475 78.3683 80.6576C77.8951 79.7845 77.3676 78.9419 76.789 78.1348C73.3529 78.9976 69.8058 78.8311 66.3293 79.0279C61.7478 79.2902 57.1663 79.9865 52.5445 79.6737C51.9239 79.6283 51.0308 79.4063 50.7987 80.2439C50.5666 81.0814 51.3336 81.5658 51.9037 82.03Z" fill="#68246A"/>
<path d="M218.603 247.694C224.033 252.513 229.527 257.281 234.82 262.236C236.132 263.462 238.463 264.955 236.218 267.387C237.52 267.73 237.54 267.735 237.858 266.56C238.823 262.913 239.183 259.132 238.922 255.369C238.862 254.324 238.534 253.259 239.069 252.008C240.466 257.261 240.35 262.362 239.573 267.493C239.472 268.169 238.887 269.007 239.901 269.471C241.291 270.192 242.729 270.816 244.205 271.338C244.599 271.459 244.75 270.43 244.901 269.87C245.804 266.38 246.169 262.773 245.986 259.173C245.921 258.269 246.022 257.361 246.284 256.494C246.516 257.419 246.75 258.342 246.985 259.264C248.792 258.502 249.624 256.711 251.022 255.202V256.872H251.88C251.819 255.278 252.425 254.142 253.726 253.093C255.311 251.816 256.592 250.161 258 248.673C255.568 247.195 252.647 246.604 250.548 244.525C250.043 245.499 249.21 245.726 248.227 245.63C238.867 244.707 229.457 245.494 220.082 244.853C219.92 244.853 219.703 244.732 219.577 244.798C218.735 245.338 217.241 244.611 216.928 245.681C216.691 246.579 217.932 247.094 218.603 247.694Z" fill="#1E1C57"/>
<path d="M61.0947 51.1775C61.8314 52.6105 63.5217 53.0696 64.2735 54.4471C64.7276 54.4168 65.1868 54.3714 65.3179 54.9517L65.4996 54.9971L65.9789 55.1081L66.2615 55.1737L66.6853 55.2847C67.0952 55.363 67.4813 55.5355 67.8132 55.7886C68.145 56.0416 68.4136 56.3683 68.5976 56.7429L68.8095 56.9598C70.7975 57.3433 72.0741 55.8094 73.608 55.0728C78.8958 52.5499 84.2544 50.1381 89.4514 47.3932C91.1165 46.5153 92.726 45.0369 94.8957 45.2791C94.9158 40.4454 94.9344 35.6099 94.9512 30.7728L94.5072 29.8848C91.0055 31.9384 87.2212 33.6337 85.097 37.4936C84.2543 36.9891 83.4067 36.4492 82.5338 35.9799C81.3682 35.324 80.1623 35.2786 79.5064 36.5652C78.6183 38.2707 77.261 38.0789 75.8533 37.7358C74.4456 37.3927 73.1387 36.8579 71.7461 36.5804C69.4403 36.1162 67.7096 37.64 68.1032 39.8651C68.3958 41.4494 67.1848 42.9379 66.6904 43.4677C65.2473 45.0167 65.1767 47.9079 62.2956 48.2006C60.4892 48.3721 60.3076 49.6436 61.0947 51.1775Z" fill="#2F2466"/>
<path d="M157.613 140.713C161.468 143.942 164.783 147.736 168.567 151.057C173.023 154.967 177.1 159.306 181.343 163.459C182.5 163.838 183.728 163.952 184.936 163.792L185.117 163.645L185.284 163.812L192.413 164.039C192.464 156.582 190.244 150.032 184.966 144.699C184.799 144.527 184.628 144.361 184.461 144.194C178.83 143.438 173.209 142.681 167.573 141.924C164.248 141.485 160.928 141.111 157.613 140.713Z" fill="#38A5BA"/>
<path d="M101.534 107.801C101.63 108.013 101.721 108.235 101.812 108.457C101.847 108.552 101.888 108.644 101.933 108.735C102.026 108.953 102.139 109.163 102.271 109.36C105.349 113.901 108.709 118.347 107.64 124.376C110.491 124.648 113.36 124.685 116.217 124.487C116.464 123.781 116.787 123.105 117.181 122.469C120.713 117.928 124.058 113.25 127.883 108.952L128.332 108.543C127.434 105.586 128.12 102.523 127.732 99.5312C124.159 100.767 121.086 103.184 117.05 103.386C112.902 103.593 108.785 104.395 104.658 104.9C104.269 105.652 103.492 105.985 102.796 106.414C102.564 106.55 102.346 106.708 102.145 106.888C102.077 106.944 102.014 107.006 101.958 107.075C101.773 107.283 101.631 107.527 101.54 107.791L101.534 107.801Z" fill="#D34343"/>
<path d="M128.851 299.122C134.018 299.5 139.169 300.196 144.361 299.727C145.27 299.646 146.213 299.692 147.015 299.117C146.375 293.41 144.705 287.94 143.226 282.425C142.283 278.919 140.9 275.488 141.137 271.744C140.982 271.735 140.835 271.666 140.728 271.553C140.621 271.439 140.562 271.289 140.562 271.133C138.625 269.07 138.297 266.325 137.459 263.797C135.552 267.551 135.133 271.744 134.104 275.745C132.282 282.834 130.758 289.994 129.129 297.129C128.962 297.79 128.927 298.486 128.851 299.122Z" fill="#C62030"/>
<path d="M73.3752 62.2279C73.8251 61.6202 74.1916 60.955 74.4651 60.25C75.1059 58.6909 75.9485 58.1914 77.7498 58.7363C80.5637 59.6454 83.5707 59.7779 86.4536 59.1198C88.0985 58.7414 89.5466 58.3579 89.5668 56.2034C89.5668 55.1943 90.4801 54.6645 91.2268 54.1095C92.569 53.1003 94.0019 52.2173 95.0918 50.9155L94.895 45.2745C92.7254 45.0323 91.1158 46.5107 89.4507 47.3886C84.2537 50.1335 78.8952 52.5302 73.6073 55.0681C72.0936 55.8048 70.7969 57.3387 68.8089 56.9552C68.7383 57.1015 68.7029 57.3236 68.5818 57.3841C62.9509 60.2601 57.3115 63.1193 51.6637 65.9617C51.2618 66.0646 50.844 66.0903 50.4326 66.0374C50.367 66.3856 50.3064 66.7287 50.2459 67.0768L73.5518 72.0065C69.8483 68.8226 70.7565 65.5581 73.3752 62.2279Z" fill="#68246A"/>
<path d="M20.3781 124.917C20.7278 127.483 20.9064 130.068 20.9129 132.657C20.9835 137.168 21.2611 141.679 21.367 146.19C21.3973 147.396 21.8262 147.89 23.0018 147.754C28.4812 141.223 33.4874 134.31 37.9824 127.067C35.4596 124.276 34.289 120.684 32.5079 117.48C30.894 116.337 29.4835 114.932 28.3351 113.322L20.3781 124.917Z" fill="#413D90"/>
<path d="M116.215 124.493C119.242 124.523 122.269 124.645 125.267 124.549C126.932 124.498 127.729 124.781 128.062 126.698C128.709 130.079 129.975 133.312 131.796 136.234C136.604 135.937 141.281 137.38 146.075 137.279H146.115C144.637 133.414 141.897 130.311 139.732 126.865C135.938 120.81 131.846 114.927 127.88 108.973C124.056 113.272 120.685 117.939 117.178 122.49C116.786 123.121 116.463 123.793 116.215 124.493Z" fill="#CB772B"/>
<path d="M136.408 186.503C135.954 190.716 136.176 194.989 135.243 199.162C138.078 199.162 140.753 199.959 143.437 200.731L151.596 195.726C150.531 193.491 148.064 193.057 146.303 191.775C143.396 189.676 140.283 187.865 136.883 185.695C140.414 183.475 143.724 181.26 147.176 179.328C148.793 178.486 150.281 177.417 151.596 176.154C149.249 174.898 146.959 173.505 144.532 172.425C142.816 171.658 141.429 170.094 139.426 170.059C136.756 170.008 134.077 170.109 131.403 170.145C132.387 174.721 134.466 178.929 135.904 183.349C136.298 184.351 136.47 185.427 136.408 186.503Z" fill="#CB772B"/>
<path d="M88.9505 115.684C91.7256 118.423 94.3898 121.284 97.4727 123.706C100.838 124.276 104.244 124.307 107.645 124.382C108.714 118.353 105.354 113.913 102.276 109.366C102.144 109.169 102.031 108.96 101.938 108.741C101.893 108.651 101.852 108.558 101.817 108.463C101.726 108.241 101.635 108.019 101.539 107.807C101.04 107.769 100.538 107.819 100.056 107.954C96.2516 109.831 92.4421 111.708 88.6982 113.706C87.5075 114.321 88.3501 115.093 88.9505 115.684Z" fill="#C62030"/>
<path d="M1.68158 155.942C4.12873 158.465 7.23183 159.606 10.5519 160.362C10.8806 160.428 11.2209 160.4 11.5347 160.282C11.8484 160.164 12.1231 159.962 12.3279 159.696C15.7186 156.22 19.2355 152.854 22.0762 148.884C20.874 148.331 19.5974 147.957 18.2869 147.773C14.0435 147.158 9.8152 146.411 5.58692 145.715L1.3637 151.018C-0.0289059 152.759 0.15274 154.373 1.68158 155.942Z" fill="#44A097"/>
<path d="M5.5882 145.714C9.81647 146.411 14.0447 147.157 18.2881 147.773C19.5987 147.956 20.8753 148.33 22.0774 148.883L23.0059 147.748C21.8302 147.884 21.4013 147.389 21.3711 146.184C21.2651 141.673 20.9876 137.162 20.9169 132.651C20.9102 130.064 20.7316 127.48 20.3821 124.916C15.4508 131.845 10.5195 138.778 5.5882 145.714Z" fill="#38A5BA"/>
<path d="M172.618 240.27C174.12 241.592 175.894 242.569 177.815 243.131C180.072 242.092 182.327 241.056 184.581 240.023C185.383 239.66 186.034 239.377 185.525 238.207C183.844 234.332 182.321 230.386 180.146 226.748L179.586 226.995C176.785 228.197 174.249 229.939 172.123 232.122C169.399 235.018 169.585 237.702 172.618 240.27Z" fill="#D34343"/>
<path d="M39.0877 160.357C41.3532 157.667 44.4765 156.991 48.1699 158.394C47.3778 161.421 46.5452 164.449 49.4011 166.941C49.6376 167.115 49.8282 167.343 49.9565 167.607C50.0849 167.871 50.1471 168.162 50.1378 168.455C48.4273 167.88 47.4736 168.495 47.1104 170.251C46.8613 171.222 46.5598 172.179 46.2072 173.117C44.6458 173.443 43.0214 173.262 41.5698 172.601C40.1181 171.941 38.9146 170.835 38.1341 169.444C36.3681 166.523 36.7415 163.147 39.0877 160.357ZM47.2466 167.981C47.0448 167.713 46.848 167.441 46.6461 167.168L46.4998 166.972C46.4191 166.861 46.3333 166.75 46.2425 166.639C46.1315 166.497 46.0154 166.361 45.8994 166.235C45.8137 166.139 45.7227 166.048 45.6269 165.963C45.5308 165.866 45.4298 165.776 45.3242 165.69L45.1526 165.559C45.0819 165.504 45.0077 165.453 44.9306 165.408C44.8545 165.357 44.7753 165.312 44.6935 165.271C44.6119 165.226 44.5276 165.185 44.4412 165.15C44.3554 165.11 44.2696 165.08 44.1788 165.044L47.2466 167.981ZM44.0527 164.999L44.1687 165.039L44.093 164.963C44.0566 164.907 44.0084 164.859 43.9518 164.822L44.0527 164.999ZM43.5986 164.464C43.609 164.492 43.6225 164.519 43.6389 164.545C43.6761 164.595 43.7203 164.639 43.7701 164.676L43.8811 164.757L43.9366 164.797L43.6036 164.207C43.5887 164.254 43.5802 164.303 43.5784 164.353C43.5785 164.391 43.5854 164.428 43.5986 164.464Z" fill="#38A5BA"/>
<path d="M87.3978 122.16C90.6371 123.442 94.0581 123.558 97.4891 123.704C94.4062 121.282 91.7421 118.421 88.967 115.682C88.3665 115.091 87.5239 114.334 88.7097 113.704C92.4535 111.685 96.2781 109.829 100.067 107.952C100.55 107.817 101.052 107.767 101.551 107.805C101.618 107.604 101.715 107.413 101.838 107.24C101.878 107.186 101.92 107.134 101.965 107.084C102.02 107.015 102.083 106.953 102.151 106.897C102.352 106.718 102.57 106.559 102.802 106.423C103.499 106.004 104.276 105.671 104.664 104.909C103.499 104.985 102.282 104.884 101.172 105.176C96.7625 106.327 93.0994 105.176 90.072 101.826L88.6642 107.704C88.4254 108.683 88.1899 109.662 87.9578 110.641C87.7257 111.62 87.492 112.6 87.2565 113.583L87.1808 114.355C86.8882 116.973 87.1606 119.567 87.3978 122.16Z" fill="#AE226A"/>
<path d="M154.531 98.7491C160.188 99.1175 165.793 98.0377 171.439 98.2446C171.022 95.8903 170.409 93.5748 169.608 91.3219C168.094 91.3926 166.742 90.8678 165.309 90.444C163.25 89.8435 161.868 87.8656 159.587 87.8909C158.149 88.9252 157.735 90.5752 157.12 92.0838C156.222 94.2837 155.389 96.524 154.531 98.7491Z" fill="#CB772B"/>
<path d="M101.986 298.234C102.175 298.655 102.482 299.011 102.87 299.261C103.258 299.511 103.709 299.643 104.17 299.642C108.02 299.642 111.86 300.217 115.715 299.864L112.218 289.127C109.776 289.697 107.314 290.192 104.897 290.863C101.572 291.786 100.26 295.242 101.986 298.234Z" fill="#C62030"/>
<path d="M88.5108 192.179C89.4695 194.278 89.6562 196.519 89.9236 198.739C92.5322 196.508 94.4344 193.637 96.7302 191.125C98.3953 189.303 100.57 187.911 101.609 185.539C99.0209 183.324 96.0894 182.365 92.7845 183.546C90.0901 184.51 88.748 186.659 88.2888 189.434C88.0903 190.351 88.1676 191.306 88.5108 192.179Z" fill="#44A097"/>
<path d="M131.45 148.792C133.054 149.468 133.922 150.77 134.477 152.324C137.272 148.863 140.128 145.447 142.833 141.92C143.978 140.406 145.472 139.14 146.082 137.263C141.289 137.364 136.611 135.921 131.803 136.218C132.812 138.378 133.644 140.679 134.941 142.662C136.238 144.645 135.728 145.502 133.932 146.501C132.963 147.046 131.873 147.621 131.45 148.792Z" fill="#C2B532"/>
<path d="M28.3363 113.31C29.4847 114.92 30.8952 116.325 32.5091 117.468C35.2943 111.413 37.9584 105.287 40.9101 99.3032C42.7468 95.5795 43.9375 91.5429 46.3696 88.1119C46.8741 87.4055 46.6017 86.5073 46.5714 85.6849V85.6445L28.3363 113.31Z" fill="#1E1C57"/>
<path d="M50.4303 66.0533C50.8418 66.1062 51.2595 66.0805 51.6614 65.9776C57.3126 63.142 62.952 60.2828 68.5796 57.4C68.7007 57.3395 68.736 57.1174 68.8066 56.9711L68.5947 56.7542C68.1711 56.9088 67.7064 56.9088 67.2828 56.7542C67.1758 56.7112 67.0728 56.6588 66.9751 56.5977C66.9019 56.5571 66.8327 56.5098 66.7682 56.4565L66.6118 56.3303C66.2535 56.0175 65.9457 55.6189 65.6026 55.2707L65.4563 55.1244L65.3049 54.9882C65.1041 54.9925 64.9051 54.9491 64.7243 54.8613C64.5436 54.7736 64.3864 54.6441 64.2655 54.4836C61.995 53.53 59.9464 53.9235 57.8929 55.2455C53.8967 57.8339 51.3385 61.3407 50.4303 66.0533Z" fill="#2F2466"/>
<path d="M118.837 174.115C123.262 173.812 126.94 171.319 131.002 169.967C130.329 166.425 129.656 162.881 128.984 159.336L126.405 161.354C123.554 165.404 121.024 169.671 118.837 174.115Z" fill="#44A097"/>
<path d="M159.585 87.8814C161.865 87.8814 163.248 89.8341 165.307 90.4345C166.74 90.8584 168.092 91.3831 169.605 91.3125C168.347 86.2231 166.52 81.2912 164.161 76.6094C163.712 77.5226 163.238 78.4258 162.779 79.334C162.668 79.5611 162.552 79.7881 162.436 80.0152C161.87 81.1505 161.331 82.3009 160.861 83.4816L160.589 84.188C160.417 84.6925 160.256 85.1466 160.11 85.6361C159.89 86.3734 159.715 87.1232 159.585 87.8814Z" fill="#C2B532"/>
<path d="M164.135 206.344C168.419 212.707 173.465 218.414 178.879 223.807C177.269 219.988 175.715 216.138 174.03 212.349C173.319 210.749 172.456 209.215 172.108 207.475V207.404L171.462 207.237C170.982 207.283 170.513 207.293 170.226 206.798C169.151 206.879 168.127 206.561 167.087 206.43C166.134 206.309 165.129 205.189 164.135 206.344Z" fill="#D34343"/>
<path d="M143.226 282.426C144.705 287.941 146.375 293.41 147.016 299.117C148.615 298.834 148.938 297.664 148.842 296.317C148.529 291.775 147.949 287.325 146.455 283.031C146.022 281.785 145.593 280.458 144.296 279.762C143.332 279.257 143.64 278.319 143.529 277.537C143.231 275.397 143.14 273.177 141.137 271.744C140.9 275.488 142.283 278.919 143.226 282.426Z" fill="#AE226A"/>
<path d="M73.7382 102.438L81.5489 116.48C83.1231 114.966 85.3281 115.122 87.1899 114.365L87.2656 113.593C87.0335 113.472 86.8115 113.341 86.5895 113.21C83.2392 111.192 80.7164 108.195 77.8605 105.606C76.5839 104.451 75.4335 103.159 73.824 102.473L73.7382 102.438Z" fill="#2F2466"/>
<path d="M126.794 156.45C127.561 157.343 127.904 158.62 129.171 159.059L130.018 158.413C130.018 158.155 130.135 157.994 130.427 158.075L130.573 157.933C130.523 157.671 130.573 157.535 130.816 157.585L130.922 157.621L130.982 157.595C131.049 157.567 131.118 157.543 131.189 157.525C131.396 155.234 133.52 154.154 134.469 152.333C133.909 150.764 133.041 149.462 131.441 148.801C129.115 150.875 126.986 153.08 126.794 156.45Z" fill="#CB772B"/>
<path d="M49.3928 166.944C49.6292 167.117 49.8199 167.346 49.9482 167.609C50.0766 167.873 50.1388 168.164 50.1294 168.457L50.2203 168.568C50.4674 168.639 50.6911 168.775 50.8685 168.961C51.0459 169.147 51.1704 169.378 51.2294 169.628C54.2265 165.914 52.8591 160.909 48.1768 158.406C47.3695 161.419 46.5369 164.446 49.3928 166.944Z" fill="#44A097"/>
<path d="M81.5486 116.477C82.7747 119.116 84.1572 121.594 87.3965 122.159C87.1593 119.565 86.8919 116.972 87.1896 114.363C85.3278 115.12 83.1228 114.959 81.5486 116.477Z" fill="#68246A"/>
<path d="M109.292 262.559C109.544 263.568 109.645 264.925 110.664 265.374C111.683 265.823 112.526 264.87 113.253 264.259C114.691 263.018 116.033 261.666 117.41 260.359L111.194 260.283C110.376 260.904 108.949 261.186 109.292 262.559Z" fill="#D34343"/>
<path d="M159.751 200.236C161.214 202.255 162.676 204.291 164.136 206.347C165.145 205.191 166.154 206.311 167.082 206.437C168.122 206.569 169.146 206.887 170.221 206.806C166.997 204.217 163.484 202.013 159.751 200.236Z" fill="#D9532F"/>
<path d="M46.1767 173.105C46.9638 173.087 47.7374 172.897 48.4434 172.548C49.1493 172.199 49.7706 171.701 50.2637 171.087L50.1476 170.971C49.643 170.9 48.977 170.9 49.0376 170.275C49.0779 169.836 49.7137 170.017 50.1022 170.012L50.1729 169.947C50.1729 169.477 50.1728 169.008 50.2082 168.539L50.1173 168.428C48.4069 167.853 47.4532 168.468 47.0899 170.224C46.8381 171.2 46.5332 172.162 46.1767 173.105Z" fill="#44A097"/>
<path d="M126.408 161.38L128.987 159.362H129.123C129.168 159.297 129.193 159.22 129.194 159.14C129.196 159.117 129.196 159.093 129.194 159.07C127.927 158.631 127.584 157.354 126.817 156.461C126.085 158.055 126.63 159.731 126.408 161.38Z" fill="#AE226A"/>
<path d="M50.1836 169.962L50.784 170.033L51.2129 169.614C51.1539 169.364 51.0293 169.134 50.852 168.948C50.6746 168.761 50.4509 168.626 50.2038 168.555C50.2138 169.024 50.2138 169.493 50.1836 169.962Z" fill="#38A5BA"/>
<path d="M94.507 29.8958L94.951 30.7839L96.0156 29.1289L94.507 29.8958Z" fill="#68246A"/>
<path d="M50.1149 170.03L50.1603 170.989L50.2763 171.105C50.4592 170.999 50.6054 170.84 50.6956 170.649C50.7857 170.458 50.8155 170.244 50.7809 170.035L50.1805 169.965L50.1149 170.03Z" fill="#44A097"/>
<path d="M46.5324 85.7064H46.5677C47.0117 85.55 47.0723 85.1615 47.1328 84.7578L46.5576 85.6761L46.5324 85.7064Z" fill="#1E1C57"/>
<path d="M140.532 271.148C140.532 271.304 140.591 271.455 140.698 271.568C140.805 271.682 140.952 271.75 141.107 271.759L140.532 271.148Z" fill="#AE226A"/>
<path d="M110.92 74.3526L111.4 74.8118C112.832 76.7745 114.785 75.8512 116.728 75.9168C116.4 74.4031 114.826 74.2567 114.316 73.1871C119.185 72.5059 123.903 70.9872 128.822 70.5684C128.424 75.2659 128.903 79.9483 128.318 84.6962C127.913 88.5559 127.945 92.4488 128.414 96.3013C128.57 97.7494 129.71 98.587 131.143 98.7787C132.063 98.8477 132.987 98.8561 133.908 98.8039C132.395 99.2126 130.906 100.151 129.271 99.1672C127.056 98.0622 125.356 99.9543 123.191 100.252C123.241 98.0007 123.627 95.7694 124.337 93.6321C124.513 93.0266 124.977 92.4817 123.948 92.068C118.398 89.8226 114.624 85.3774 110.688 81.1693C107.857 78.1621 107.948 77.5162 110.92 74.3526ZM124.543 91.0033C124.556 90.9129 124.556 90.8212 124.543 90.7309C124.535 90.6808 124.522 90.6317 124.503 90.5845C124.489 90.5462 124.472 90.5091 124.453 90.4735L124.402 90.3878C124.38 90.3501 124.355 90.3147 124.327 90.2818C124.291 90.2364 124.251 90.196 124.21 90.1506C124.084 90.0245 123.943 89.9084 123.807 89.7873L123.691 89.6814C123.635 89.6297 123.582 89.5741 123.534 89.5149C123.51 89.4885 123.488 89.4598 123.469 89.4291C123.452 89.4091 123.439 89.3871 123.428 89.3635C123.424 89.3504 123.424 89.3362 123.428 89.3231C123.409 89.2897 123.394 89.2541 123.383 89.2172C123.332 89.0909 123.315 88.9536 123.333 88.8186C123.335 88.8052 123.335 88.7915 123.333 88.7782C123.384 88.7373 123.438 88.7002 123.494 88.6672C123.568 88.6201 123.65 88.5859 123.736 88.5663H123.852H123.943C123.971 88.5612 124 88.5612 124.029 88.5663C124.068 88.5797 124.106 88.5983 124.14 88.6218C124.182 88.6476 124.221 88.6781 124.256 88.7126L124.342 88.7984C124.564 89.0355 124.745 89.3534 125.013 89.4593C125.472 89.646 125.77 90.5543 126.4 89.7671C126.814 89.2626 127.344 88.425 126.794 87.9961C125.28 86.8104 124.2 84.2573 121.531 85.8719C121.537 85.9405 121.55 86.0082 121.572 86.0737C121.589 86.127 121.609 86.1792 121.632 86.2301L121.693 86.3361C121.721 86.3843 121.753 86.4298 121.789 86.4723L121.925 86.6136L122.162 86.8205C122.205 86.8475 122.245 86.8778 122.283 86.9113C122.521 87.0643 122.748 87.2328 122.964 87.4159L123.035 87.4865L123.1 87.5571C123.211 87.6841 123.292 87.8345 123.336 87.997C123.381 88.1595 123.388 88.3299 123.358 88.4956C123.352 88.5415 123.343 88.5869 123.333 88.6319C123.333 88.6319 123.333 88.6874 123.333 88.7176L123.302 88.7429C123.113 88.7307 122.929 88.6773 122.762 88.5864C122.716 88.5662 122.672 88.5408 122.631 88.5108C122.568 88.4711 122.509 88.4254 122.455 88.3745C122.407 88.3381 122.363 88.2976 122.323 88.2534C122.195 88.1257 122.075 87.9891 121.965 87.8447C121.889 87.7539 121.819 87.6631 121.738 87.5723L121.617 87.431C121.577 87.3856 121.531 87.3452 121.491 87.3048C121.424 87.236 121.35 87.175 121.269 87.1232L121.178 87.0576C121.141 87.0328 121.102 87.0109 121.062 86.992C120.81 89.4997 121.652 90.4685 124.559 90.9781L124.543 91.0033ZM121.037 84.444C121.642 85.0393 122.672 84.6962 123.645 84.2674L121.077 81.5376C120.931 82.7486 120.421 83.7779 121.052 84.4036L121.037 84.444ZM119.326 88.1828C120.502 85.4783 118.796 85.66 116.597 85.8921L119.326 88.1828ZM111.904 81.1189C112.848 82.4206 113.852 83.4449 115.37 81.7496C115.422 81.6881 115.486 81.6381 115.559 81.6029C115.631 81.5677 115.71 81.548 115.79 81.5452C115.87 81.5423 115.95 81.5563 116.025 81.5863C116.1 81.6163 116.167 81.6616 116.223 81.7193V81.7496C116.236 81.8281 116.236 81.9082 116.223 81.9867C116.202 82.0706 116.164 82.1495 116.112 82.2188C116.093 82.2534 116.067 82.2842 116.036 82.3096C116.01 82.3391 115.982 82.3661 115.951 82.3904C115.908 82.4288 115.862 82.4642 115.814 82.4963C115.776 82.5255 115.735 82.5525 115.693 82.5771C115.375 82.7839 115.002 82.9504 114.856 83.2078C114.854 83.2212 114.854 83.2347 114.856 83.2481C114.841 83.2714 114.831 83.297 114.826 83.3238C114.823 83.3354 114.823 83.3476 114.826 83.3591C114.813 83.4694 114.825 83.5812 114.859 83.6866C114.894 83.792 114.952 83.8886 115.027 83.9697C116.001 85.2967 117.55 84.8325 119.099 84.6811C118.988 84.4187 118.897 84.1513 118.801 83.8889C118.688 83.5452 118.555 83.2082 118.403 82.8798C118.368 82.807 118.33 82.7362 118.287 82.6679C118.218 82.5473 118.137 82.434 118.045 82.3298C117.989 82.2643 117.928 82.2036 117.863 82.1482L117.782 82.0826C117.73 82.0377 117.672 81.9987 117.611 81.9665C117.575 81.9414 117.536 81.921 117.495 81.906C117.457 81.8828 117.416 81.8658 117.374 81.8555C117.352 81.8512 117.33 81.8512 117.308 81.8555L117.136 81.8051C117.057 81.7842 116.976 81.769 116.894 81.7597C116.695 81.7394 116.493 81.7394 116.294 81.7597C116.291 81.7311 116.291 81.7024 116.294 81.6739C116.289 81.6219 116.289 81.5695 116.294 81.5175C116.31 81.4208 116.352 81.3302 116.415 81.2551C116.434 81.2292 116.456 81.2055 116.48 81.1845C116.513 81.1536 116.548 81.1265 116.586 81.1037L116.667 81.0533C116.919 80.9221 117.242 80.8666 117.449 80.7404L117.515 80.69C117.54 80.6721 117.563 80.6499 117.58 80.6244C117.624 80.569 117.652 80.5027 117.661 80.4326C117.782 79.4588 117.157 78.9189 116.147 79.0249C114.437 79.1813 112.732 79.3731 110.991 79.5295C110.829 80.2863 111.561 80.579 111.919 81.0785L111.904 81.1189ZM111.016 78.3286C113.236 78.3286 115.512 78.5557 117.515 77.2286C115.391 76.8603 113.256 77.1277 111.213 76.4314C110.178 76.0782 109.85 76.9814 109.76 77.6575C109.644 78.5557 110.577 78.2882 111.031 78.2882L111.016 78.3286Z" fill="#D34343"/>
<path d="M104.763 68.6457C105.233 70.664 107.594 70.2654 109.259 70.5631C110.007 70.6609 110.761 70.693 111.514 70.659C113.639 70.659 113.911 71.4865 112.594 73.0405C112.625 73.2423 112.655 73.4492 112.68 73.6561C113.215 73.4492 113.649 72.9043 114.315 73.1868C119.184 72.5057 123.902 70.9869 128.821 70.5681C128.851 70.4168 128.872 70.2604 128.887 70.109L110.975 56.9902C110.904 57.9994 110.778 58.9782 110.768 59.9773C110.737 62.1671 110.198 63.9079 107.952 64.9775C106.449 65.6738 104.304 66.6426 104.763 68.6457Z" fill="#AE226A"/>
<path d="M133.911 98.8659L134.557 98.6742L134.43 98.4824L133.901 98.8558L133.911 98.8659Z" fill="#D34343"/>
<path d="M129.172 159.07C129.182 159.119 129.181 159.17 129.171 159.22C129.16 159.269 129.14 159.316 129.112 159.357C129.526 159.433 129.944 159.479 130.343 159.59C141.625 162.738 152.905 165.892 164.184 169.05C166.203 168.576 168.12 167.622 170.239 167.486C173.827 166.026 177.517 164.829 181.279 163.904C181.29 163.754 181.313 163.605 181.35 163.46C177.106 159.307 173.029 154.968 168.574 151.057C164.79 147.737 161.475 143.948 157.62 140.719C151.288 144.594 145.076 148.63 139.132 153.05C136.717 154.921 134.041 156.431 131.191 157.531C131.099 157.555 131.009 157.587 130.923 157.627C130.852 157.773 130.728 157.887 130.575 157.945L130.429 158.081L130.02 158.419L129.172 159.07Z" fill="#44A097"/>
<path d="M164.184 169.05C152.902 165.898 141.621 162.745 130.342 159.59C129.944 159.479 129.525 159.433 129.111 159.357H128.97C129.643 162.899 130.316 166.443 130.988 169.989C131.132 170.022 131.269 170.08 131.392 170.16C134.066 170.125 136.745 170.029 139.415 170.074C141.433 170.115 142.805 171.674 144.521 172.441C146.943 173.526 149.233 174.913 151.585 176.17C155.202 175.256 157.831 172.577 161.015 170.887C162.024 170.347 162.943 169.585 164.154 169.489C164.18 169.344 164.19 169.197 164.184 169.05Z" fill="#894B63"/>
<path d="M96.0578 45.084C96.3051 46.9408 97.7986 47.1023 98.6463 47.8995C99.4207 47.5687 100.099 47.0481 100.619 46.3858L96.0578 45.084Z" fill="#C62030"/>
<path d="M164.183 169.049C164.198 169.19 164.198 169.332 164.183 169.473C167.109 181.128 168.724 193.046 171.201 204.792C171.295 205.461 171.337 206.135 171.327 206.81C171.383 206.967 171.433 207.123 171.484 207.28L172.13 207.446C172.574 201.946 174.652 196.795 175.505 191.376C175.939 188.596 176.64 185.856 177.221 183.101C175.677 183.293 175.016 182.218 174.905 181.052C174.758 179.488 174.032 178.227 173.426 176.869C172.121 173.839 171.058 170.709 170.248 167.51C168.118 167.621 166.211 168.574 164.183 169.049Z" fill="#68246A"/>
<path d="M170.234 167.485C171.044 170.684 172.107 173.814 173.412 176.845C174.018 178.202 174.744 179.463 174.891 181.027C175.002 182.193 175.663 183.268 177.207 183.076C178.518 176.673 180.542 170.426 181.273 163.902C177.512 164.828 173.822 166.025 170.234 167.485Z" fill="#AE226A"/>
<path d="M185.281 163.811L185.115 163.645L184.933 163.796L185.105 163.846L185.281 163.811Z" fill="#44A097"/>
<path d="M111.024 55.1603L111.114 55.3319C111.152 55.287 111.176 55.2321 111.183 55.1739C111.19 55.1157 111.181 55.0566 111.155 55.0039L111.024 55.1603Z" fill="#AE226A"/>
<path d="M171.469 207.254C171.418 207.098 171.368 206.942 171.312 206.785L170.233 206.815C170.52 207.31 170.989 207.3 171.469 207.254Z" fill="#D9532F"/>
<path d="M130.019 158.419L130.428 158.081C130.135 158.006 130.034 158.167 130.019 158.419Z" fill="#69BD52"/>
<path d="M130.572 157.945C130.724 157.888 130.849 157.774 130.92 157.627C130.602 157.506 130.516 157.647 130.572 157.945Z" fill="#69BD52"/>
<path d="M50.1621 170.992L50.1167 170.033C49.7282 170.033 49.1076 169.851 49.0521 170.295C48.9915 170.921 49.6727 170.921 50.1621 170.992Z" fill="#38A5BA"/>
<path d="M110.921 74.3548L111.4 74.814L112.682 73.6585C112.656 73.4517 112.626 73.2448 112.596 73.043C111.914 73.2941 111.328 73.753 110.921 74.3548Z" fill="#D34343"/>
<path d="M117.615 80.3516C117.606 80.4219 117.578 80.4884 117.534 80.544C117.58 80.4896 117.608 80.4225 117.615 80.3516Z" fill="#FEFEFE"/>
<path d="M123.332 88.7402H123.3C123.311 88.7416 123.322 88.7416 123.332 88.7402Z" fill="#FEFEFE"/>
<path d="M118.795 83.849C118.686 83.5037 118.553 83.1665 118.396 82.8398C118.549 83.1683 118.682 83.5052 118.795 83.849Z" fill="#FEFEFE"/>
<path d="M116.262 81.6934L116.24 81.7148H116.262V81.6934Z" fill="#FEFEFE"/>
<g style="mix-blend-mode:hue">
<path d="M73.8036 102.468L73.8289 102.503L73.7381 102.438L73.8036 102.468ZM184.43 144.19L184.334 144.044C184.385 144.09 184.43 144.14 184.43 144.19ZM184.935 144.695C184.768 144.528 184.597 144.357 184.43 144.19C184.627 144.362 184.798 144.528 184.965 144.7L184.935 144.695ZM250.528 244.529L250.559 244.574L250.523 244.539L250.528 244.529Z" fill="#C3001D"/>
<path d="M186.324 243.991C186.606 245.445 186.389 247.019 186.399 248.532C188.317 249.587 190.224 251.61 191.849 251.953C194.937 252.604 197.424 254.693 200.553 254.92C200.86 254.92 201.304 254.951 201.441 255.142C203.055 257.372 205.169 256.843 207.364 256.389C209.044 256.04 210.689 256.479 212.289 257.07C219.61 259.774 226.588 263.241 233.657 266.515C234.48 266.894 235.226 267.524 236.22 267.423C238.466 264.991 236.135 263.498 234.823 262.272C229.53 257.307 224.035 252.549 218.606 247.73C217.935 247.13 216.694 246.615 216.951 245.712C217.264 244.642 218.757 245.369 219.6 244.829C219.706 244.763 219.923 244.874 220.105 244.884C229.479 245.525 238.89 244.738 248.249 245.661C249.258 245.757 250.091 245.53 250.57 244.556L250.025 243.991L250.096 244.072L249.491 243.477C243.506 237.493 236.286 233.486 228.46 230.509C224.545 228.996 220.528 227.785 216.547 226.473C215.447 226.11 214.706 225.645 214.484 224.318C214.08 222.248 212.887 220.416 211.159 219.207C211.043 219.429 210.982 219.712 210.8 219.863C203.974 225.307 197.177 230.807 190.275 236.13C187.595 238.184 185.602 240.263 186.324 243.991Z" fill="#C3001D"/>
<path d="M88.8811 213.846C88.8407 215.683 90.9902 216.323 91.2374 217.63C91.4847 218.937 90.1577 220.582 91.6764 221.909C92.3979 222.545 92.075 223.175 91.8934 223.927C91.3888 226.026 91.9237 227.757 94.1791 228.529C94.6599 228.603 95.0927 228.862 95.385 229.25C99.583 235.628 101.944 242.803 104.543 249.887C104.736 250.529 104.977 251.154 105.264 251.759C105.673 252.496 106.188 252.294 106.637 251.729C106.894 250.939 107.203 250.167 107.56 249.418C113.292 238.999 119.11 228.63 124.771 218.175C126.92 214.219 129.236 210.354 131.406 206.409C132.708 204.042 133.929 201.646 135.074 199.183C133.989 199.133 132.902 199.225 131.84 199.456C125.634 200.758 119.418 201.979 113.206 203.275C105.197 204.924 97.1913 206.584 89.1889 208.255C89.4715 209.719 89.9054 211.167 89.0073 212.6C88.8666 212.999 88.8233 213.426 88.8811 213.846Z" fill="#C3001D"/>
<path d="M128.328 108.551C128.977 108.416 129.618 108.248 130.25 108.046C138.35 104.958 146.443 101.862 154.53 98.7571C155.388 96.532 156.22 94.2917 157.118 92.0817C157.734 90.568 158.127 88.9231 159.586 87.8888C159.709 87.131 159.878 86.3812 160.09 85.6434C160.236 85.1389 160.398 84.6747 160.569 84.1953L160.842 83.4889C161.311 82.3083 161.851 81.1578 162.416 80.0226C162.532 79.7955 162.648 79.5684 162.759 79.3414C163.218 78.4332 163.683 77.53 164.137 76.6167C164.066 76.4099 163.995 76.208 163.92 76.0062C163.844 75.8044 163.763 75.6026 163.683 75.4058C163.516 75.0122 163.34 74.6237 163.148 74.2402C162.764 73.4731 162.304 72.7463 161.775 72.0706C155.847 69.3964 149.898 66.7676 143.999 64.0328C141.855 63.0237 140.064 62.8976 137.985 64.4466C135.151 66.6455 132.097 68.546 128.873 70.1179C128.873 70.2693 128.837 70.4257 128.807 70.5771C128.408 75.2746 128.888 79.957 128.302 84.7049C127.898 88.5646 127.93 92.4575 128.398 96.31C128.555 97.7581 129.695 98.5957 131.128 98.7874C132.048 98.8564 132.972 98.8649 133.893 98.8126L134.423 98.4443C134.468 98.5048 134.509 98.5704 134.549 98.631L133.903 98.8278C132.389 99.2365 130.901 100.175 129.266 99.1911L127.717 99.5039C128.116 102.531 127.414 105.594 128.328 108.551Z" fill="#C3001D"/>
<path d="M131.188 157.529C134.04 156.429 136.716 154.918 139.13 153.043C145.074 148.628 151.285 144.592 157.612 140.712C160.927 141.11 164.247 141.484 167.557 141.918C173.193 142.654 178.814 143.431 184.445 144.188C184.415 144.138 184.38 144.092 184.344 144.042C183.113 142.261 180.878 140.949 181.63 138.224C178.93 135.484 179.697 131.377 177.548 128.259C175.842 125.782 176.413 122.29 175.777 119.283C174.98 115.514 174.349 111.714 173.643 107.92C168.573 109.232 163.501 110.547 158.425 111.866C158.14 111.907 157.871 112.021 157.645 112.198C157.418 112.375 157.242 112.609 157.133 112.875C154.136 119.915 151.109 126.939 148.051 133.945C147.546 135.101 147.546 136.62 146.134 137.266H146.093C145.483 139.143 143.989 140.429 142.844 141.923C140.139 145.455 137.294 148.866 134.488 152.327C133.519 154.179 131.395 155.238 131.188 157.529Z" fill="#C3001D"/>
<path d="M89.1833 208.267C97.1925 206.606 105.198 204.946 113.201 203.287C119.412 202.011 125.628 200.764 131.834 199.468C132.896 199.237 133.983 199.145 135.069 199.195L135.24 199.165C136.174 194.992 135.952 190.718 136.406 186.505C136.467 185.43 136.295 184.354 135.901 183.352C134.463 178.932 132.369 174.724 131.4 170.147C131.277 170.065 131.141 170.005 130.997 169.971C126.935 171.323 123.257 173.816 118.832 174.118C115.052 180.173 112 186.601 109.068 193.428C106.667 190.476 104.679 187.479 101.601 185.557C100.561 187.928 98.3866 189.321 96.7215 191.142C94.4258 193.665 92.5235 196.526 89.9149 198.756L89.1833 208.267Z" fill="#C3001D"/>
<path d="M180.148 226.742C182.323 230.38 183.847 234.31 185.527 238.2C186.031 239.371 185.386 239.653 184.583 240.017C182.323 241.046 180.067 242.082 177.817 243.125C180.754 244.795 183.791 246.294 186.395 248.488C186.395 246.975 186.602 245.421 186.319 243.947C185.597 240.239 187.591 238.16 190.255 236.111C197.177 230.788 203.954 225.288 210.78 219.844C210.962 219.698 211.023 219.41 211.139 219.188C207.102 216.847 205.639 212.81 204.024 208.774C202.722 205.514 200.997 202.421 199.483 199.258C195.411 199.439 191.773 201.276 187.878 202.22C184.79 202.956 181.975 205.045 178.473 203.829C175.718 202.876 174.219 203.713 172.761 206.443C172.57 206.801 172.317 207.124 172.095 207.452C172.443 209.193 173.306 210.727 174.018 212.326C175.703 216.115 177.257 219.965 178.867 223.785C179.028 224.915 181.329 225.071 180.148 226.742Z" fill="#C3001D"/>
<path d="M94.8939 45.29L95.0907 50.9311L98.6227 47.9037C97.775 47.1064 96.2815 46.945 96.0342 45.0882L100.575 46.39C105.828 43.2516 105.828 43.2516 109.839 48.0046C114.027 48.7463 118.22 49.4628 122.403 50.2348C130.168 51.6526 137.888 53.0856 145.578 54.5791C147.127 54.8768 147.54 54.8061 146.955 53.0654C146.092 50.477 145.608 47.7573 144.962 45.0932C141.092 40.9608 136.324 38.8517 130.668 38.9425C129.253 38.9742 127.864 38.5612 126.697 37.7619C122.578 35.0211 118.723 31.9029 115.183 28.4476C109.42 23.0235 107.165 22.751 100.313 26.5958C98.8648 27.4081 97.447 28.281 96.014 29.1186L94.9494 30.7736C94.9292 35.6141 94.9107 40.4529 94.8939 45.29Z" fill="#C3001D"/>
<path d="M113.791 246.558C111.152 247.97 109.345 250.468 106.641 251.74C106.898 250.95 107.207 250.178 107.564 249.429C113.296 239.009 119.114 228.641 124.775 218.186C126.924 214.23 129.24 210.365 131.41 206.419C131.733 205.829 132.056 205.234 132.374 204.638C132.611 204.189 132.848 203.745 133.075 203.296C133.252 202.958 133.423 202.62 133.58 202.287C134.084 201.278 134.589 200.244 135.058 199.204L135.23 199.174C138.065 199.174 140.74 199.971 143.424 200.743C143.126 201.033 142.811 201.304 142.48 201.555C138.282 204.376 134.13 207.217 132.106 212.197C131.602 213.458 130.396 214.245 129.351 215.093C125.315 218.363 125.315 218.363 127.116 223.398C127.374 224.11 127.621 224.816 127.929 225.512C132.571 236.673 135.043 248.389 136.804 260.282L119.366 260.196L123.065 254.525C120.91 256.276 119.588 258.718 117.393 260.368L111.177 260.292C113.195 258.082 115.718 256.306 117.151 253.586C118.867 252.037 119.709 249.969 120.486 247.86L116.682 253.168C114.452 255.186 112.388 257.381 109.799 258.95C109.335 259.232 108.957 259.883 108.286 259.55C106.903 258.854 106.585 254.358 107.781 253.294C110.062 251.286 112.393 249.348 113.791 246.558ZM114.336 246.285L115.713 244.832C114.381 244.408 114.325 245.367 113.876 245.841L114.336 246.285Z" fill="#C3001D"/>
<path d="M127.877 108.958C131.843 114.912 135.95 120.79 139.729 126.85C141.894 130.296 144.634 133.41 146.112 137.265C147.54 136.619 147.52 135.1 148.029 133.944C151.117 126.941 154.145 119.918 157.112 112.874C157.22 112.608 157.397 112.374 157.623 112.197C157.85 112.02 158.119 111.906 158.403 111.865C163.476 110.543 168.549 109.227 173.621 107.919C173.143 104.636 172.404 101.397 171.411 98.2312C165.765 98.0344 160.159 99.1142 154.503 98.7358C146.41 101.834 138.317 104.93 130.223 108.025C129.592 108.227 128.95 108.395 128.301 108.529L127.877 108.958Z" fill="#C3001D"/>
<path d="M46.5338 85.7077H46.5703V85.666L46.5338 85.7077Z" fill="#C3001D"/>
<path d="M32.5104 117.468C34.2915 120.693 35.4419 124.285 37.9849 127.055C45.4424 115.955 51.7596 104.218 58.2483 92.568C58.7529 91.6195 59.2575 90.6355 59.762 89.6718C57.4713 86.7958 54.7164 84.3941 51.9261 82.0276C51.356 81.5231 50.5638 81.1093 50.8262 80.2364C51.0885 79.3635 51.9513 79.6209 52.572 79.6663C57.1938 79.9791 61.7753 79.2828 66.3567 79.0204C69.8332 78.8236 73.3803 78.9901 76.8164 78.1273C76.181 75.8788 75.0752 73.7908 73.572 72.0019L50.2661 67.0723C49.706 70.4478 49.817 73.7124 51.7798 76.6944C51.9917 77.0173 52.5921 77.2292 51.8504 77.8095C49.5647 79.5956 48.5859 82.3203 47.163 84.722C47.1125 85.1257 47.0419 85.5142 46.5979 85.6706C46.6282 86.4931 46.8956 87.3912 46.3961 88.0976C43.9539 91.5286 42.7733 95.5652 40.9366 99.2889C37.9597 105.288 35.2956 111.409 32.5104 117.468Z" fill="#C3001D"/>
<path d="M116.795 287.119C115.322 287.886 113.768 288.471 112.219 289.137L115.715 299.874C120.135 300.273 124.49 299.637 128.834 299.132C128.92 298.477 128.945 297.8 129.091 297.155C130.721 290.02 132.245 282.86 134.067 275.771C135.076 271.77 135.515 267.577 137.422 263.823L136.801 260.291L119.363 260.205C117.093 262.521 114.999 265.014 112.355 266.951C111.033 267.92 111.371 272.638 112.991 274.197C116.154 277.224 116.679 281.397 117.981 285.237C118.385 286.342 117.461 286.776 116.795 287.119Z" fill="#C3001D"/>
<path d="M172.102 207.487C172.324 207.149 172.577 206.826 172.768 206.478C174.227 203.748 175.725 202.911 178.48 203.864C181.982 205.08 184.797 202.991 187.885 202.255C191.76 201.331 195.398 199.475 199.49 199.293C196.816 193.142 193.794 187.138 192.719 180.397C192.129 176.698 192.446 173.025 192.542 169.332C192.588 167.571 192.472 165.8 192.431 164.049L185.302 163.822L185.125 163.852L184.954 163.802C183.746 163.962 182.518 163.848 181.361 163.469C181.325 163.613 181.302 163.76 181.29 163.908C180.604 170.023 178.768 175.901 177.476 181.885C177.385 182.286 177.299 182.684 177.219 183.081C177.072 183.773 176.921 184.459 176.77 185.15C176.618 185.841 176.462 186.522 176.31 187.214C176.008 188.586 175.725 189.969 175.508 191.356C174.671 196.78 172.577 201.952 172.133 207.427L172.102 207.487Z" fill="#C3001D"/>
<path d="M111.116 55.3286L110.98 56.9634L128.892 70.1074C132.118 68.5358 135.174 66.6353 138.01 64.4361C140.088 62.8871 141.88 63.0334 144.024 64.0223C149.917 66.7571 155.866 69.4111 161.795 72.0601C160.856 70.0116 159.933 67.958 158.964 65.9296C158.535 65.0214 158.066 63.9113 156.981 63.8003C153.308 63.3916 152.44 60.4298 151.709 57.7455C150.402 52.9774 148.641 48.5523 144.978 45.0859C145.624 47.7501 146.108 50.4697 146.971 53.0581C147.556 54.819 147.142 54.8897 145.593 54.5718C137.889 53.0581 130.169 51.6453 122.444 50.2224C118.261 49.4504 114.068 48.734 109.88 47.9922C111.974 50.0105 111.737 52.4778 111.157 54.9956C111.183 55.0489 111.194 55.109 111.187 55.1682C111.18 55.2275 111.155 55.2833 111.116 55.3286Z" fill="#C3001D"/>
<path d="M136.885 185.697C140.285 187.867 143.399 189.678 146.305 191.777C148.086 193.059 150.533 193.492 151.598 195.728C155.221 193.992 155.21 193.997 157.627 197.428C158.303 198.387 159.04 199.3 159.752 200.239C163.484 202.012 166.998 204.213 170.221 206.798L171.301 206.768C171.301 206.601 171.301 206.435 171.301 206.263C171.311 205.756 171.274 205.249 171.19 204.749C168.698 193.008 167.098 181.09 164.172 169.43C162.961 169.526 162.047 170.287 161.033 170.827C157.849 172.518 155.221 175.197 151.603 176.11C150.288 177.373 148.8 178.442 147.183 179.284C143.727 181.262 140.437 183.477 136.885 185.697Z" fill="#C3001D"/>
<path d="M73.8301 102.503L73.8049 102.468L73.7393 102.438L73.8301 102.503Z" fill="#C3001D"/>
<path d="M51.9037 82.03C54.694 84.3964 57.454 86.7982 59.7396 89.6742C60.7185 87.3936 63.0092 85.7235 62.8276 82.8878C62.7973 82.4791 63.3574 82.2016 63.7863 82.3227C64.7954 82.5951 66.0013 82.4085 66.3394 83.8717C66.5603 84.8415 66.9744 85.7569 67.5569 86.5632C68.1395 87.3694 68.8786 88.05 69.7301 88.5642C65.6431 89.649 67.2981 91.6269 68.5645 93.6603C70.2346 96.3547 71.7887 99.1197 73.3932 101.854C73.5244 102.056 73.6657 102.248 73.8019 102.45C75.4266 103.136 76.577 104.428 77.8385 105.583C80.6943 108.172 83.2171 111.164 86.5675 113.187C86.7188 113.278 86.8702 113.369 87.0266 113.449L87.2436 113.576C87.4757 112.597 87.7112 111.618 87.95 110.639C88.1888 109.66 88.4243 108.681 88.6564 107.702L90.0742 101.839C85.5331 96.4505 82.4502 90.093 78.3329 84.4217C78.0554 84.0332 77.5559 83.4125 78.1816 83.1804C80.0888 82.4236 78.7366 81.475 78.3683 80.6576C77.8951 79.7845 77.3676 78.9419 76.789 78.1348C73.3529 78.9976 69.8058 78.8311 66.3293 79.0279C61.7478 79.2902 57.1663 79.9865 52.5445 79.6737C51.9239 79.6283 51.0308 79.4063 50.7987 80.2439C50.5666 81.0814 51.3336 81.5658 51.9037 82.03Z" fill="#C3001D"/>
<path d="M218.603 247.694C224.033 252.513 229.527 257.281 234.82 262.236C236.132 263.462 238.463 264.955 236.218 267.387C237.52 267.73 237.54 267.735 237.858 266.56C238.823 262.913 239.183 259.132 238.922 255.369C238.862 254.324 238.534 253.259 239.069 252.008C240.466 257.261 240.35 262.362 239.573 267.493C239.472 268.169 238.887 269.007 239.901 269.471C241.291 270.192 242.729 270.816 244.205 271.338C244.599 271.459 244.75 270.43 244.901 269.87C245.804 266.38 246.169 262.773 245.986 259.173C245.921 258.269 246.022 257.361 246.284 256.494C246.516 257.419 246.75 258.342 246.985 259.264C248.792 258.502 249.624 256.711 251.022 255.202V256.872H251.88C251.819 255.278 252.425 254.142 253.726 253.093C255.311 251.816 256.592 250.161 258 248.673C255.568 247.195 252.647 246.604 250.548 244.525C250.043 245.499 249.21 245.726 248.227 245.63C238.867 244.707 229.457 245.494 220.082 244.853C219.92 244.853 219.703 244.732 219.577 244.798C218.735 245.338 217.241 244.611 216.928 245.681C216.691 246.579 217.932 247.094 218.603 247.694Z" fill="#C3001D"/>
<path d="M65.3166 54.9629C65.3189 54.9753 65.3189 54.988 65.3166 55.0003V54.9629Z" fill="#C3001D"/>
<path d="M61.0947 51.1775C61.8314 52.6105 63.5217 53.0696 64.2735 54.4471C64.7276 54.4168 65.1868 54.3714 65.3179 54.9517L65.4996 54.9971L65.9789 55.1081L66.2615 55.1737L66.6853 55.2847C67.0952 55.363 67.4813 55.5355 67.8132 55.7886C68.145 56.0416 68.4136 56.3683 68.5976 56.7429L68.8095 56.9598C70.7975 57.3433 72.0741 55.8094 73.608 55.0728C78.8958 52.5499 84.2544 50.1381 89.4514 47.3932C91.1165 46.5153 92.726 45.0369 94.8957 45.2791C94.9158 40.4454 94.9344 35.6099 94.9512 30.7728L94.5072 29.8848C91.0055 31.9384 87.2212 33.6337 85.097 37.4936C84.2543 36.9891 83.4067 36.4492 82.5338 35.9799C81.3682 35.324 80.1623 35.2786 79.5064 36.5652C78.6183 38.2707 77.261 38.0789 75.8533 37.7358C74.4456 37.3927 73.1387 36.8579 71.7461 36.5804C69.4403 36.1162 67.7096 37.64 68.1032 39.8651C68.3958 41.4494 67.1848 42.9379 66.6904 43.4677C65.2473 45.0167 65.1767 47.9079 62.2956 48.2006C60.4892 48.3721 60.3076 49.6436 61.0947 51.1775Z" fill="#C3001D"/>
<path d="M157.613 140.713C161.468 143.942 164.783 147.736 168.567 151.057C173.023 154.967 177.1 159.306 181.343 163.459C182.5 163.838 183.728 163.952 184.936 163.792L185.117 163.645L185.284 163.812L192.413 164.039C192.464 156.582 190.244 150.032 184.966 144.699C184.799 144.527 184.628 144.361 184.461 144.194C178.83 143.438 173.209 142.681 167.573 141.924C164.248 141.485 160.928 141.111 157.613 140.713Z" fill="#C3001D"/>
<path d="M101.534 107.801C101.63 108.013 101.721 108.235 101.812 108.457C101.847 108.552 101.888 108.644 101.933 108.735C102.026 108.953 102.139 109.163 102.271 109.36C105.349 113.901 108.709 118.347 107.64 124.376C110.491 124.648 113.36 124.685 116.217 124.487C116.464 123.781 116.787 123.105 117.181 122.469C120.713 117.928 124.058 113.25 127.883 108.952L128.332 108.543C127.434 105.586 128.12 102.523 127.732 99.5312C124.159 100.767 121.086 103.184 117.05 103.386C112.902 103.593 108.785 104.395 104.658 104.9C104.269 105.652 103.492 105.985 102.796 106.414C102.564 106.55 102.346 106.708 102.145 106.888C102.077 106.944 102.014 107.006 101.958 107.075C101.773 107.283 101.631 107.527 101.54 107.791L101.534 107.801Z" fill="#C3001D"/>
<path d="M128.851 299.122C134.018 299.5 139.169 300.196 144.361 299.727C145.27 299.646 146.213 299.692 147.015 299.117C146.375 293.41 144.705 287.94 143.226 282.425C142.283 278.919 140.9 275.488 141.137 271.744C140.982 271.735 140.835 271.666 140.728 271.553C140.621 271.439 140.562 271.289 140.562 271.133C138.625 269.07 138.297 266.325 137.459 263.797C135.552 267.551 135.133 271.744 134.104 275.745C132.282 282.834 130.758 289.994 129.129 297.129C128.962 297.79 128.927 298.486 128.851 299.122Z" fill="#C3001D"/>
<path d="M73.3752 62.2279C73.8251 61.6202 74.1916 60.955 74.4651 60.25C75.1059 58.6909 75.9485 58.1914 77.7498 58.7363C80.5637 59.6454 83.5707 59.7779 86.4536 59.1198C88.0985 58.7414 89.5466 58.3579 89.5668 56.2034C89.5668 55.1943 90.4801 54.6645 91.2268 54.1095C92.569 53.1003 94.0019 52.2173 95.0918 50.9155L94.895 45.2745C92.7254 45.0323 91.1158 46.5107 89.4507 47.3886C84.2537 50.1335 78.8952 52.5302 73.6073 55.0681C72.0936 55.8048 70.7969 57.3387 68.8089 56.9552C68.7383 57.1015 68.7029 57.3236 68.5818 57.3841C62.9509 60.2601 57.3115 63.1193 51.6637 65.9617C51.2618 66.0646 50.844 66.0903 50.4326 66.0374C50.367 66.3856 50.3064 66.7287 50.2459 67.0768L73.5518 72.0065C69.8483 68.8226 70.7565 65.5581 73.3752 62.2279Z" fill="#C3001D"/>
<path d="M20.3781 124.917C20.7278 127.483 20.9064 130.068 20.9129 132.657C20.9835 137.168 21.2611 141.679 21.367 146.19C21.3973 147.396 21.8262 147.89 23.0018 147.754C28.4812 141.223 33.4874 134.31 37.9824 127.067C35.4596 124.276 34.289 120.684 32.5079 117.48C30.894 116.337 29.4835 114.932 28.3351 113.322L20.3781 124.917Z" fill="#C3001D"/>
<path d="M116.215 124.493C119.242 124.523 122.269 124.645 125.267 124.549C126.932 124.498 127.729 124.781 128.062 126.698C128.709 130.079 129.975 133.312 131.796 136.234C136.604 135.937 141.281 137.38 146.075 137.279H146.115C144.637 133.414 141.897 130.311 139.732 126.865C135.938 120.81 131.846 114.927 127.88 108.973C124.056 113.272 120.685 117.939 117.178 122.49C116.786 123.121 116.463 123.793 116.215 124.493Z" fill="#C3001D"/>
<path d="M136.408 186.503C135.954 190.716 136.176 194.989 135.243 199.162C138.078 199.162 140.753 199.959 143.437 200.731L151.596 195.726C150.531 193.491 148.064 193.057 146.303 191.775C143.396 189.676 140.283 187.865 136.883 185.695C140.414 183.475 143.724 181.26 147.176 179.328C148.793 178.486 150.281 177.417 151.596 176.154C149.249 174.898 146.959 173.505 144.532 172.425C142.816 171.658 141.429 170.094 139.426 170.059C136.756 170.008 134.077 170.109 131.403 170.145C132.387 174.721 134.466 178.929 135.904 183.349C136.298 184.351 136.47 185.427 136.408 186.503Z" fill="#C3001D"/>
<path d="M88.9505 115.684C91.7256 118.423 94.3898 121.284 97.4727 123.706C100.838 124.276 104.244 124.307 107.645 124.382C108.714 118.353 105.354 113.913 102.276 109.366C102.144 109.169 102.031 108.96 101.938 108.741C101.893 108.651 101.852 108.558 101.817 108.463C101.726 108.241 101.635 108.019 101.539 107.807C101.04 107.769 100.538 107.819 100.056 107.954C96.2516 109.831 92.4421 111.708 88.6982 113.706C87.5075 114.321 88.3501 115.093 88.9505 115.684Z" fill="#C3001D"/>
<path d="M1.68158 155.942C4.12873 158.465 7.23183 159.606 10.5519 160.362C10.8806 160.428 11.2209 160.4 11.5347 160.282C11.8484 160.164 12.1231 159.962 12.3279 159.696C15.7186 156.22 19.2355 152.854 22.0762 148.884C20.874 148.331 19.5974 147.957 18.2869 147.773C14.0435 147.158 9.8152 146.411 5.58692 145.715L1.3637 151.018C-0.0289059 152.759 0.15274 154.373 1.68158 155.942Z" fill="#C3001D"/>
<path d="M5.5882 145.714C9.81647 146.411 14.0447 147.157 18.2881 147.773C19.5987 147.956 20.8753 148.33 22.0774 148.883L23.0059 147.748C21.8302 147.884 21.4013 147.389 21.3711 146.184C21.2651 141.673 20.9876 137.162 20.9169 132.651C20.9102 130.064 20.7316 127.48 20.3821 124.916C15.4508 131.845 10.5195 138.778 5.5882 145.714Z" fill="#C3001D"/>
<path d="M172.618 240.27C174.12 241.592 175.894 242.569 177.815 243.131C180.072 242.092 182.327 241.056 184.581 240.023C185.383 239.66 186.034 239.377 185.525 238.207C183.844 234.332 182.321 230.386 180.146 226.748L179.586 226.995C176.785 228.197 174.249 229.939 172.123 232.122C169.399 235.018 169.585 237.702 172.618 240.27Z" fill="#C3001D"/>
<path d="M39.0877 160.357C41.3532 157.667 44.4765 156.991 48.1699 158.394C47.3778 161.421 46.5452 164.449 49.4011 166.941C49.6376 167.115 49.8282 167.343 49.9565 167.607C50.0849 167.871 50.1471 168.162 50.1378 168.455C48.4273 167.88 47.4736 168.495 47.1104 170.251C46.8613 171.222 46.5598 172.179 46.2072 173.117C44.6458 173.443 43.0214 173.262 41.5698 172.601C40.1181 171.941 38.9146 170.835 38.1341 169.444C36.3681 166.523 36.7415 163.147 39.0877 160.357ZM47.2466 167.981C47.0448 167.713 46.848 167.441 46.6461 167.168L46.4998 166.972C46.4191 166.861 46.3333 166.75 46.2425 166.639C46.1315 166.497 46.0154 166.361 45.8994 166.235C45.8137 166.139 45.7227 166.048 45.6269 165.963C45.5308 165.866 45.4298 165.776 45.3242 165.69L45.1526 165.559C45.0819 165.504 45.0077 165.453 44.9306 165.408C44.8545 165.357 44.7753 165.312 44.6935 165.271C44.6119 165.226 44.5276 165.185 44.4412 165.15C44.3554 165.11 44.2696 165.08 44.1788 165.044L47.2466 167.981ZM44.0527 164.999L44.1687 165.039L44.093 164.963C44.0566 164.907 44.0084 164.859 43.9518 164.822L44.0527 164.999ZM43.5986 164.464C43.609 164.492 43.6225 164.519 43.6389 164.545C43.6761 164.595 43.7203 164.639 43.7701 164.676L43.8811 164.757L43.9366 164.797L43.6036 164.207C43.5887 164.254 43.5802 164.303 43.5784 164.353C43.5785 164.391 43.5854 164.428 43.5986 164.464Z" fill="#C3001D"/>
<path d="M87.3978 122.16C90.6371 123.442 94.0581 123.558 97.4891 123.704C94.4062 121.282 91.7421 118.421 88.967 115.682C88.3665 115.091 87.5239 114.334 88.7097 113.704C92.4535 111.685 96.2781 109.829 100.067 107.952C100.55 107.817 101.052 107.767 101.551 107.805C101.618 107.604 101.715 107.413 101.838 107.24C101.878 107.186 101.92 107.134 101.965 107.084C102.02 107.015 102.083 106.953 102.151 106.897C102.352 106.718 102.57 106.559 102.802 106.423C103.499 106.004 104.276 105.671 104.664 104.909C103.499 104.985 102.282 104.884 101.172 105.176C96.7625 106.327 93.0994 105.176 90.072 101.826L88.6642 107.704C88.4254 108.683 88.1899 109.662 87.9578 110.641C87.7257 111.62 87.492 112.6 87.2565 113.583L87.1808 114.355C86.8882 116.973 87.1606 119.567 87.3978 122.16Z" fill="#C3001D"/>
<path d="M154.531 98.7491C160.188 99.1175 165.793 98.0377 171.439 98.2446C171.022 95.8903 170.409 93.5748 169.608 91.3219C168.094 91.3926 166.742 90.8678 165.309 90.444C163.25 89.8435 161.868 87.8656 159.587 87.8909C158.149 88.9252 157.735 90.5752 157.12 92.0838C156.222 94.2837 155.389 96.524 154.531 98.7491Z" fill="#C3001D"/>
<path d="M101.986 298.234C102.175 298.655 102.482 299.011 102.87 299.261C103.258 299.511 103.709 299.643 104.17 299.642C108.02 299.642 111.86 300.217 115.715 299.864L112.218 289.127C109.776 289.697 107.314 290.192 104.897 290.863C101.572 291.786 100.26 295.242 101.986 298.234Z" fill="#C3001D"/>
<path d="M88.5108 192.179C89.4695 194.278 89.6562 196.519 89.9236 198.739C92.5322 196.508 94.4344 193.637 96.7302 191.125C98.3953 189.303 100.57 187.911 101.609 185.539C99.0209 183.324 96.0894 182.365 92.7845 183.546C90.0901 184.51 88.748 186.659 88.2888 189.434C88.0903 190.351 88.1676 191.306 88.5108 192.179Z" fill="#C3001D"/>
<path d="M131.45 148.792C133.054 149.468 133.922 150.77 134.477 152.324C137.272 148.863 140.128 145.447 142.833 141.92C143.978 140.406 145.472 139.14 146.082 137.263C141.289 137.364 136.611 135.921 131.803 136.218C132.812 138.378 133.644 140.679 134.941 142.662C136.238 144.645 135.728 145.502 133.932 146.501C132.963 147.046 131.873 147.621 131.45 148.792Z" fill="#C3001D"/>
<path d="M28.3363 113.31C29.4847 114.92 30.8952 116.325 32.5091 117.468C35.2943 111.413 37.9584 105.287 40.9101 99.3032C42.7468 95.5795 43.9375 91.5429 46.3696 88.1119C46.8741 87.4055 46.6017 86.5073 46.5714 85.6849V85.6445L28.3363 113.31Z" fill="#C3001D"/>
<path d="M50.4303 66.0533C50.8418 66.1062 51.2595 66.0805 51.6614 65.9776C57.3126 63.142 62.952 60.2828 68.5796 57.4C68.7007 57.3395 68.736 57.1174 68.8066 56.9711L68.5947 56.7542C68.1711 56.9088 67.7064 56.9088 67.2828 56.7542C67.1758 56.7112 67.0728 56.6588 66.9751 56.5977C66.9019 56.5571 66.8327 56.5098 66.7682 56.4565L66.6118 56.3303C66.2535 56.0175 65.9457 55.6189 65.6026 55.2707L65.4563 55.1244L65.3049 54.9882C65.1041 54.9925 64.9051 54.9491 64.7243 54.8613C64.5436 54.7736 64.3864 54.6441 64.2655 54.4836C61.995 53.53 59.9464 53.9235 57.8929 55.2455C53.8967 57.8339 51.3385 61.3407 50.4303 66.0533Z" fill="#C3001D"/>
<path d="M118.837 174.115C123.262 173.812 126.94 171.319 131.002 169.967C130.329 166.425 129.656 162.881 128.984 159.336L126.405 161.354C123.554 165.404 121.024 169.671 118.837 174.115Z" fill="#C3001D"/>
<path d="M159.585 87.8814C161.865 87.8814 163.248 89.8341 165.307 90.4345C166.74 90.8584 168.092 91.3831 169.605 91.3125C168.347 86.2231 166.52 81.2912 164.161 76.6094C163.712 77.5226 163.238 78.4258 162.779 79.334C162.668 79.5611 162.552 79.7881 162.436 80.0152C161.87 81.1505 161.331 82.3009 160.861 83.4816L160.589 84.188C160.417 84.6925 160.256 85.1466 160.11 85.6361C159.89 86.3734 159.715 87.1232 159.585 87.8814Z" fill="#C3001D"/>
<path d="M164.135 206.344C168.419 212.707 173.465 218.414 178.879 223.807C177.269 219.988 175.715 216.138 174.03 212.349C173.319 210.749 172.456 209.215 172.108 207.475V207.404L171.462 207.237C170.982 207.283 170.513 207.293 170.226 206.798C169.151 206.879 168.127 206.561 167.087 206.43C166.134 206.309 165.129 205.189 164.135 206.344Z" fill="#C3001D"/>
<path d="M143.226 282.426C144.705 287.941 146.375 293.41 147.016 299.117C148.615 298.834 148.938 297.664 148.842 296.317C148.529 291.775 147.949 287.325 146.455 283.031C146.022 281.785 145.593 280.458 144.296 279.762C143.332 279.257 143.64 278.319 143.529 277.537C143.231 275.397 143.14 273.177 141.137 271.744C140.9 275.488 142.283 278.919 143.226 282.426Z" fill="#C3001D"/>
<path d="M73.7382 102.438L81.5489 116.48C83.1231 114.966 85.3281 115.122 87.1899 114.365L87.2656 113.593C87.0335 113.472 86.8115 113.341 86.5895 113.21C83.2392 111.192 80.7164 108.195 77.8605 105.606C76.5839 104.451 75.4335 103.159 73.824 102.473L73.7382 102.438Z" fill="#C3001D"/>
<path d="M126.794 156.45C127.561 157.343 127.904 158.62 129.171 159.059L130.018 158.413C130.018 158.155 130.135 157.994 130.427 158.075L130.573 157.933C130.523 157.671 130.573 157.535 130.816 157.585L130.922 157.621L130.982 157.595C131.049 157.567 131.118 157.543 131.189 157.525C131.396 155.234 133.52 154.154 134.469 152.333C133.909 150.764 133.041 149.462 131.441 148.801C129.115 150.875 126.986 153.08 126.794 156.45Z" fill="#C3001D"/>
<path d="M49.3928 166.944C49.6292 167.117 49.8199 167.346 49.9482 167.609C50.0766 167.873 50.1388 168.164 50.1294 168.457L50.2203 168.568C50.4674 168.639 50.6911 168.775 50.8685 168.961C51.0459 169.147 51.1704 169.378 51.2294 169.628C54.2265 165.914 52.8591 160.909 48.1768 158.406C47.3695 161.419 46.5369 164.446 49.3928 166.944Z" fill="#C3001D"/>
<path d="M81.5486 116.477C82.7747 119.116 84.1572 121.594 87.3965 122.159C87.1593 119.565 86.8919 116.972 87.1896 114.363C85.3278 115.12 83.1228 114.959 81.5486 116.477Z" fill="#C3001D"/>
<path d="M109.292 262.559C109.544 263.568 109.645 264.925 110.664 265.374C111.683 265.823 112.526 264.87 113.253 264.259C114.691 263.018 116.033 261.666 117.41 260.359L111.194 260.283C110.376 260.904 108.949 261.186 109.292 262.559Z" fill="#C3001D"/>
<path d="M159.751 200.236C161.214 202.255 162.676 204.291 164.136 206.347C165.145 205.191 166.154 206.311 167.082 206.437C168.122 206.569 169.146 206.887 170.221 206.806C166.997 204.217 163.484 202.013 159.751 200.236Z" fill="#C3001D"/>
<path d="M46.1767 173.105C46.9638 173.087 47.7374 172.897 48.4434 172.548C49.1493 172.199 49.7706 171.701 50.2637 171.087L50.1476 170.971C49.643 170.9 48.977 170.9 49.0376 170.275C49.0779 169.836 49.7137 170.017 50.1022 170.012L50.1729 169.947C50.1729 169.477 50.1728 169.008 50.2082 168.539L50.1173 168.428C48.4069 167.853 47.4532 168.468 47.0899 170.224C46.8381 171.2 46.5332 172.162 46.1767 173.105Z" fill="#C3001D"/>
<path d="M126.408 161.38L128.987 159.362H129.123C129.168 159.297 129.193 159.22 129.194 159.14C129.196 159.117 129.196 159.093 129.194 159.07C127.927 158.631 127.584 157.354 126.817 156.461C126.085 158.055 126.63 159.731 126.408 161.38Z" fill="#C3001D"/>
<path d="M50.1836 169.962L50.784 170.033L51.2129 169.614C51.1539 169.364 51.0293 169.134 50.852 168.948C50.6746 168.761 50.4509 168.626 50.2038 168.555C50.2138 169.024 50.2138 169.493 50.1836 169.962Z" fill="#C3001D"/>
<path d="M94.507 29.8958L94.951 30.7839L96.0156 29.1289L94.507 29.8958Z" fill="#C3001D"/>
<path d="M50.1149 170.03L50.1603 170.989L50.2763 171.105C50.4592 170.999 50.6054 170.84 50.6956 170.649C50.7857 170.458 50.8155 170.244 50.7809 170.035L50.1805 169.965L50.1149 170.03Z" fill="#C3001D"/>
<path d="M46.5324 85.7064H46.5677C47.0117 85.55 47.0723 85.1615 47.1328 84.7578L46.5576 85.6761L46.5324 85.7064Z" fill="#C3001D"/>
<path d="M140.532 271.148C140.532 271.304 140.591 271.455 140.698 271.568C140.805 271.682 140.952 271.75 141.107 271.759L140.532 271.148Z" fill="#C3001D"/>
<path d="M110.92 74.3526L111.4 74.8118C112.832 76.7745 114.785 75.8512 116.728 75.9168C116.4 74.4031 114.826 74.2567 114.316 73.1871C119.185 72.5059 123.903 70.9872 128.822 70.5684C128.424 75.2659 128.903 79.9483 128.318 84.6962C127.913 88.5559 127.945 92.4488 128.414 96.3013C128.57 97.7494 129.71 98.587 131.143 98.7787C132.063 98.8477 132.987 98.8561 133.908 98.8039C132.395 99.2126 130.906 100.151 129.271 99.1672C127.056 98.0622 125.356 99.9543 123.191 100.252C123.241 98.0007 123.627 95.7694 124.337 93.6321C124.513 93.0266 124.977 92.4817 123.948 92.068C118.398 89.8226 114.624 85.3774 110.688 81.1693C107.857 78.1621 107.948 77.5162 110.92 74.3526ZM124.543 91.0033C124.556 90.9129 124.556 90.8212 124.543 90.7309C124.535 90.6808 124.522 90.6317 124.503 90.5845C124.489 90.5462 124.472 90.5091 124.453 90.4735L124.402 90.3878C124.38 90.3501 124.355 90.3147 124.327 90.2818C124.291 90.2364 124.251 90.196 124.21 90.1506C124.084 90.0245 123.943 89.9084 123.807 89.7873L123.691 89.6814C123.635 89.6297 123.582 89.5741 123.534 89.5149C123.51 89.4885 123.488 89.4598 123.469 89.4291C123.452 89.4091 123.439 89.3871 123.428 89.3635C123.424 89.3504 123.424 89.3362 123.428 89.3231C123.409 89.2897 123.394 89.2541 123.383 89.2172C123.332 89.0909 123.315 88.9536 123.333 88.8186C123.335 88.8052 123.335 88.7915 123.333 88.7782C123.384 88.7373 123.438 88.7002 123.494 88.6672C123.568 88.6201 123.65 88.5859 123.736 88.5663H123.852H123.943C123.971 88.5612 124 88.5612 124.029 88.5663C124.068 88.5797 124.106 88.5983 124.14 88.6218C124.182 88.6476 124.221 88.6781 124.256 88.7126L124.342 88.7984C124.564 89.0355 124.745 89.3534 125.013 89.4593C125.472 89.646 125.77 90.5543 126.4 89.7671C126.814 89.2626 127.344 88.425 126.794 87.9961C125.28 86.8104 124.2 84.2573 121.531 85.8719C121.537 85.9405 121.55 86.0082 121.572 86.0737C121.589 86.127 121.609 86.1792 121.632 86.2301L121.693 86.3361C121.721 86.3843 121.753 86.4298 121.789 86.4723L121.925 86.6136L122.162 86.8205C122.205 86.8475 122.245 86.8778 122.283 86.9113C122.521 87.0643 122.748 87.2328 122.964 87.4159L123.035 87.4865L123.1 87.5571C123.211 87.6841 123.292 87.8345 123.336 87.997C123.381 88.1595 123.388 88.3299 123.358 88.4956C123.352 88.5415 123.343 88.5869 123.333 88.6319C123.333 88.6319 123.333 88.6874 123.333 88.7176L123.302 88.7429C123.113 88.7307 122.929 88.6773 122.762 88.5864C122.716 88.5662 122.672 88.5408 122.631 88.5108C122.568 88.4711 122.509 88.4254 122.455 88.3745C122.407 88.3381 122.363 88.2976 122.323 88.2534C122.195 88.1257 122.075 87.9891 121.965 87.8447C121.889 87.7539 121.819 87.6631 121.738 87.5723L121.617 87.431C121.577 87.3856 121.531 87.3452 121.491 87.3048C121.424 87.236 121.35 87.175 121.269 87.1232L121.178 87.0576C121.141 87.0328 121.102 87.0109 121.062 86.992C120.81 89.4997 121.652 90.4685 124.559 90.9781L124.543 91.0033ZM121.037 84.444C121.642 85.0393 122.672 84.6962 123.645 84.2674L121.077 81.5376C120.931 82.7486 120.421 83.7779 121.052 84.4036L121.037 84.444ZM119.326 88.1828C120.502 85.4783 118.796 85.66 116.597 85.8921L119.326 88.1828ZM111.904 81.1189C112.848 82.4206 113.852 83.4449 115.37 81.7496C115.422 81.6881 115.486 81.6381 115.559 81.6029C115.631 81.5677 115.71 81.548 115.79 81.5452C115.87 81.5423 115.95 81.5563 116.025 81.5863C116.1 81.6163 116.167 81.6616 116.223 81.7193V81.7496C116.236 81.8281 116.236 81.9082 116.223 81.9867C116.202 82.0706 116.164 82.1495 116.112 82.2188C116.093 82.2534 116.067 82.2842 116.036 82.3096C116.01 82.3391 115.982 82.3661 115.951 82.3904C115.908 82.4288 115.862 82.4642 115.814 82.4963C115.776 82.5255 115.735 82.5525 115.693 82.5771C115.375 82.7839 115.002 82.9504 114.856 83.2078C114.854 83.2212 114.854 83.2347 114.856 83.2481C114.841 83.2714 114.831 83.297 114.826 83.3238C114.823 83.3354 114.823 83.3476 114.826 83.3591C114.813 83.4694 114.825 83.5812 114.859 83.6866C114.894 83.792 114.952 83.8886 115.027 83.9697C116.001 85.2967 117.55 84.8325 119.099 84.6811C118.988 84.4187 118.897 84.1513 118.801 83.8889C118.688 83.5452 118.555 83.2082 118.403 82.8798C118.368 82.807 118.33 82.7362 118.287 82.6679C118.218 82.5473 118.137 82.434 118.045 82.3298C117.989 82.2643 117.928 82.2036 117.863 82.1482L117.782 82.0826C117.73 82.0377 117.672 81.9987 117.611 81.9665C117.575 81.9414 117.536 81.921 117.495 81.906C117.457 81.8828 117.416 81.8658 117.374 81.8555C117.352 81.8512 117.33 81.8512 117.308 81.8555L117.136 81.8051C117.057 81.7842 116.976 81.769 116.894 81.7597C116.695 81.7394 116.493 81.7394 116.294 81.7597C116.291 81.7311 116.291 81.7024 116.294 81.6739C116.289 81.6219 116.289 81.5695 116.294 81.5175C116.31 81.4208 116.352 81.3302 116.415 81.2551C116.434 81.2292 116.456 81.2055 116.48 81.1845C116.513 81.1536 116.548 81.1265 116.586 81.1037L116.667 81.0533C116.919 80.9221 117.242 80.8666 117.449 80.7404L117.515 80.69C117.54 80.6721 117.563 80.6499 117.58 80.6244C117.624 80.569 117.652 80.5027 117.661 80.4326C117.782 79.4588 117.157 78.9189 116.147 79.0249C114.437 79.1813 112.732 79.3731 110.991 79.5295C110.829 80.2863 111.561 80.579 111.919 81.0785L111.904 81.1189ZM111.016 78.3286C113.236 78.3286 115.512 78.5557 117.515 77.2286C115.391 76.8603 113.256 77.1277 111.213 76.4314C110.178 76.0782 109.85 76.9814 109.76 77.6575C109.644 78.5557 110.577 78.2882 111.031 78.2882L111.016 78.3286Z" fill="#C3001D"/>
<path d="M104.763 68.6457C105.233 70.664 107.594 70.2654 109.259 70.5631C110.007 70.6609 110.761 70.693 111.514 70.659C113.639 70.659 113.911 71.4865 112.594 73.0405C112.625 73.2423 112.655 73.4492 112.68 73.6561C113.215 73.4492 113.649 72.9043 114.315 73.1868C119.184 72.5057 123.902 70.9869 128.821 70.5681C128.851 70.4168 128.872 70.2604 128.887 70.109L110.975 56.9902C110.904 57.9994 110.778 58.9782 110.768 59.9773C110.737 62.1671 110.198 63.9079 107.952 64.9775C106.449 65.6738 104.304 66.6426 104.763 68.6457Z" fill="#C3001D"/>
<path d="M133.911 98.8659L134.557 98.6742L134.43 98.4824L133.901 98.8558L133.911 98.8659Z" fill="#C3001D"/>
<path d="M129.172 159.07C129.182 159.119 129.181 159.17 129.171 159.22C129.16 159.269 129.14 159.316 129.112 159.357C129.526 159.433 129.944 159.479 130.343 159.59C141.625 162.738 152.905 165.892 164.184 169.05C166.203 168.576 168.12 167.622 170.239 167.486C173.827 166.026 177.517 164.829 181.279 163.904C181.29 163.754 181.313 163.605 181.35 163.46C177.106 159.307 173.029 154.968 168.574 151.057C164.79 147.737 161.475 143.948 157.62 140.719C151.288 144.594 145.076 148.63 139.132 153.05C136.717 154.921 134.041 156.431 131.191 157.531C131.099 157.555 131.009 157.587 130.923 157.627C130.852 157.773 130.728 157.887 130.575 157.945L130.429 158.081L130.02 158.419L129.172 159.07Z" fill="#C3001D"/>
<path d="M164.184 169.05C152.902 165.898 141.621 162.745 130.342 159.59C129.944 159.479 129.525 159.433 129.111 159.357H128.97C129.643 162.899 130.316 166.443 130.988 169.989C131.132 170.022 131.269 170.08 131.392 170.16C134.066 170.125 136.745 170.029 139.415 170.074C141.433 170.115 142.805 171.674 144.521 172.441C146.943 173.526 149.233 174.913 151.585 176.17C155.202 175.256 157.831 172.577 161.015 170.887C162.024 170.347 162.943 169.585 164.154 169.489C164.18 169.344 164.19 169.197 164.184 169.05Z" fill="#C3001D"/>
<path d="M96.0578 45.084C96.3051 46.9408 97.7986 47.1023 98.6463 47.8995C99.4207 47.5687 100.099 47.0481 100.619 46.3858L96.0578 45.084Z" fill="#C3001D"/>
<path d="M164.183 169.049C164.198 169.19 164.198 169.332 164.183 169.473C167.109 181.128 168.724 193.046 171.201 204.792C171.295 205.461 171.337 206.135 171.327 206.81C171.383 206.967 171.433 207.123 171.484 207.28L172.13 207.446C172.574 201.946 174.652 196.795 175.505 191.376C175.939 188.596 176.64 185.856 177.221 183.101C175.677 183.293 175.016 182.218 174.905 181.052C174.758 179.488 174.032 178.227 173.426 176.869C172.121 173.839 171.058 170.709 170.248 167.51C168.118 167.621 166.211 168.574 164.183 169.049Z" fill="#C3001D"/>
<path d="M170.234 167.485C171.044 170.684 172.107 173.814 173.412 176.845C174.018 178.202 174.744 179.463 174.891 181.027C175.002 182.193 175.663 183.268 177.207 183.076C178.518 176.673 180.542 170.426 181.273 163.902C177.512 164.828 173.822 166.025 170.234 167.485Z" fill="#C3001D"/>
<path d="M185.281 163.811L185.115 163.645L184.933 163.796L185.105 163.846L185.281 163.811Z" fill="#C3001D"/>
<path d="M111.024 55.1603L111.114 55.3319C111.152 55.287 111.176 55.2321 111.183 55.1739C111.19 55.1157 111.181 55.0566 111.155 55.0039L111.024 55.1603Z" fill="#C3001D"/>
<path d="M171.469 207.254C171.418 207.098 171.368 206.942 171.312 206.785L170.233 206.815C170.52 207.31 170.989 207.3 171.469 207.254Z" fill="#C3001D"/>
<path d="M65.3166 55.0003C65.3189 54.988 65.3189 54.9753 65.3166 54.9629V55.0003Z" fill="#C3001D"/>
<path d="M65.3166 55.0003C65.3189 54.988 65.3189 54.9753 65.3166 54.9629V55.0003Z" fill="#C3001D"/>
<path d="M130.019 158.419L130.428 158.081C130.135 158.006 130.034 158.167 130.019 158.419Z" fill="#C3001D"/>
<path d="M130.572 157.945C130.724 157.888 130.849 157.774 130.92 157.627C130.602 157.506 130.516 157.647 130.572 157.945Z" fill="#C3001D"/>
<path d="M50.1621 170.992L50.1167 170.033C49.7282 170.033 49.1076 169.851 49.0521 170.295C48.9915 170.921 49.6727 170.921 50.1621 170.992Z" fill="#C3001D"/>
<path d="M110.921 74.3548L111.4 74.814L112.682 73.6585C112.656 73.4517 112.626 73.2448 112.596 73.043C111.914 73.2941 111.328 73.753 110.921 74.3548Z" fill="#C3001D"/>
<path d="M117.615 80.3516C117.606 80.4219 117.578 80.4884 117.534 80.544C117.58 80.4896 117.608 80.4225 117.615 80.3516Z" fill="#C3001D"/>
<path d="M123.332 88.7402H123.3C123.311 88.7416 123.322 88.7416 123.332 88.7402Z" fill="#C3001D"/>
<path d="M118.795 83.849C118.686 83.5037 118.553 83.1665 118.396 82.8398C118.549 83.1683 118.682 83.5052 118.795 83.849Z" fill="#C3001D"/>
<path d="M116.262 81.6934L116.24 81.7148H116.262V81.6934Z" fill="#C3001D"/>
</g>
</svg>
