<svg width="80" height="80" viewBox="0 0 80 80" fill="none" xmlns="http://www.w3.org/2000/svg">
<path d="M79.9855 60.2041C79.9855 48.468 79.9855 36.7318 79.9855 24.9957C79.9855 21.9471 78.3085 20.2732 75.2568 20.2717C73.7724 20.2717 72.2818 20.2231 70.8052 20.292C70.074 20.3249 69.9644 20.0728 69.9722 19.4214C70.0082 16.7674 69.9926 14.1134 69.9863 11.4594C69.9863 8.77561 68.2169 7.00313 65.5394 7.00157C45.1779 7.00052 24.8168 7 4.45625 7C2.45203 7 1.03029 7.88781 0.259922 9.76676C0.205119 9.90142 0.191027 10.0799 0 10.1238V56.9629C0.191027 57.0036 0.205119 57.1853 0.259922 57.3184C1.04282 59.2255 2.49431 60.0882 4.52514 60.0882C12.8442 60.0882 21.1633 60.0961 29.4808 60.0679C30.1807 60.0679 30.367 60.2448 30.3232 60.9228C30.2605 61.8811 30.3075 62.8456 30.3075 63.807H32.1865C32.1865 62.7423 32.2021 61.676 32.1786 60.6128C32.1786 60.2135 32.2788 60.071 32.7 60.0773C34.2846 60.0992 35.8692 60.0992 37.4538 60.0773C37.875 60.0773 37.983 60.2135 37.9752 60.6128C37.9517 61.676 37.9674 62.7423 37.9674 63.807H39.8463C39.8463 62.7391 39.8635 61.6728 39.8463 60.6065C39.8354 60.1947 39.9653 60.0757 40.3756 60.0773C44.4101 60.0909 48.4457 60.0909 52.4823 60.0773C52.9254 60.0773 52.9927 60.2574 52.9833 60.6316C52.9635 61.4113 52.9635 62.1942 52.9833 62.9803C53.0413 65.401 54.9187 67.2659 57.3315 67.2706C63.4507 67.2799 69.5698 67.2799 75.6889 67.2706C76.8079 67.2715 77.8833 66.8364 78.6869 66.0577C79.4905 65.2789 79.9591 64.2178 79.9933 63.0993C80.0121 62.13 79.9855 61.1671 79.9855 60.2041ZM73.1836 25.3793C73.5438 24.4602 73.9055 23.5426 74.2421 22.6141C74.3643 22.2775 74.5302 22.0927 74.9123 22.1444C75.1209 22.157 75.33 22.157 75.5386 22.1444C77.1185 22.1585 78.1096 23.1465 78.1112 24.7373C78.1112 30.4619 78.1112 36.1859 78.1112 41.9094C78.1112 47.6073 78.1034 53.3052 78.1237 59.0032C78.1237 59.5888 78.011 59.7861 77.3706 59.7861C70.1074 59.761 62.8442 59.761 55.581 59.7861C54.9547 59.7861 54.82 59.6013 54.8216 59.0032C54.8393 47.6334 54.844 36.2636 54.8357 24.8939C54.8357 22.9836 56.2966 21.7842 58.1411 22.1318C58.4542 22.1913 58.4887 22.409 58.5748 22.6016C58.9882 23.5536 59.4125 24.5024 59.7851 25.4717C59.9856 25.9915 60.3206 26.1951 60.8499 26.1935C64.5984 26.1935 68.3469 26.1935 72.0954 26.1935C72.6951 26.2107 72.9911 25.8725 73.1836 25.3793ZM72.4571 22.1741C72.1768 22.8458 71.9169 23.4612 71.6617 24.0781C71.5458 24.3615 71.3078 24.3318 71.073 24.3318C67.9508 24.3318 64.8291 24.3318 61.7079 24.3318C61.4261 24.3318 61.2085 24.3036 61.1067 23.9842C60.9188 23.3954 60.7043 22.8145 60.4804 22.171L72.4571 22.1741ZM52.1409 58.2297C43.2159 58.203 34.2815 58.2124 25.3533 58.2124H4.64884C2.80277 58.2124 1.87739 57.273 1.87582 55.4269C1.87582 54.0474 1.91183 52.6679 1.86016 51.2901C1.83354 50.5995 2.00108 50.385 2.73544 50.3882C10.9621 50.4179 19.1888 50.4069 27.4155 50.4069C35.662 50.4069 43.9143 50.4017 52.1723 50.3913C52.8346 50.3913 52.9896 50.5682 52.9755 51.2086C52.9317 53.263 52.9317 55.3178 52.9755 57.3732C52.9912 58.0449 52.8362 58.2328 52.1409 58.2297ZM52.9677 24.5056C52.9677 32.2302 52.9724 39.9547 52.9818 47.6793C52.9818 48.3323 52.8706 48.5468 52.1488 48.5452C35.6735 48.5212 19.1977 48.5212 2.72135 48.5452C2.04649 48.5452 1.86329 48.4027 1.86486 47.7028C1.88469 35.6869 1.88939 23.6689 1.87895 11.6488C1.87895 9.80277 2.80747 8.87895 4.65824 8.87895H65.2545C67.2117 8.87895 68.112 9.77302 68.112 11.7287C68.112 14.3044 68.0807 16.8802 68.134 19.4543C68.1481 20.1793 67.9163 20.2936 67.2634 20.2873C63.9063 20.2544 60.5493 20.2685 57.1906 20.2732C54.7683 20.2748 52.9614 22.0833 52.9599 24.5056H52.9677ZM75.1033 65.4245C69.3099 65.3352 63.4992 65.3493 57.6979 65.4245C55.9505 65.4464 54.5758 64.366 54.831 61.9797C54.8905 61.4364 55.2898 61.6572 55.5403 61.6572C59.1823 61.6415 62.8244 61.6462 66.4664 61.6462C70.1084 61.6462 73.752 61.6603 77.3941 61.6321C77.975 61.6321 78.0955 61.7809 78.1347 62.3587C78.2474 64.0638 77.2312 65.4574 75.1033 65.4245Z" fill="#C3001D"/>
<path d="M55.4985 70.9222C54.3711 68.9086 53.2813 66.8731 52.2291 64.8156C51.8658 64.111 51.4227 63.7994 50.5913 63.8088C47.0072 63.8448 43.4215 63.8088 39.8374 63.8088H30.308C26.691 63.8166 23.074 63.8417 19.4586 63.8198C18.7728 63.8198 18.3406 64.0358 18.0149 64.6324C16.8667 66.7306 15.7023 68.8183 14.5216 70.8956C14.1349 71.5751 14.196 72.1185 14.8426 72.5772H55.3027C55.8335 72.0778 55.8649 71.5767 55.4985 70.9222ZM16.7545 70.6591C17.2821 69.6602 17.9069 68.752 18.2623 67.7483C18.8667 66.0495 19.9236 65.6329 21.7071 65.6533C31.0752 65.7629 40.4449 65.7112 49.8146 65.6909C50.4096 65.6909 50.7416 65.8365 51.014 66.3955C51.7045 67.8125 52.4765 69.1904 53.2578 70.6591H16.7545Z" fill="#C3001D"/>
<path d="M39.9799 54.3622C39.9235 55.0481 39.4632 55.2532 38.8384 55.2485C37.5654 55.2391 36.2924 55.2485 35.0195 55.2485C33.7668 55.2485 32.5251 55.2407 31.2772 55.2485C30.6509 55.2485 30.1905 55.0778 30.1577 54.3638C30.1295 53.7375 30.5241 53.3758 31.2741 53.3742C33.794 53.3648 36.3144 53.3648 38.8353 53.3742C39.5446 53.3774 40.0269 53.7939 39.9799 54.3622Z" fill="#C3001D"/>
<path d="M69.6599 63.5239C69.6599 64.1502 69.2653 64.4508 68.65 64.4555C67.9234 64.4555 67.1969 64.4555 66.4704 64.4555C65.7439 64.4555 65.0158 64.4555 64.2892 64.4555C63.6723 64.4555 63.284 64.1423 63.2871 63.516C63.2903 62.8897 63.6801 62.5875 64.2971 62.5859C65.7501 62.5859 67.2037 62.5859 68.6578 62.5859C69.2747 62.5844 69.663 62.8975 69.6599 63.5239Z" fill="#C3001D"/>
</svg>
