<svg width="40" height="40" viewBox="0 0 40 40" fill="none" xmlns="http://www.w3.org/2000/svg">
<path d="M33.9745 14.8018C25.9568 22.8226 17.9378 30.8406 9.91757 38.8556C9.72772 39.0455 9.50507 39.2025 9.29804 39.3752H8.98554C8.79499 39.2439 8.61238 39.1014 8.43867 38.9486C7.10117 37.6345 5.76758 36.3168 4.4379 34.9955C3.92931 34.4916 3.93243 34.1947 4.44571 33.6822L28.7214 9.46355C29.1847 9.00184 29.323 9.00496 29.9237 9.26121C30.7835 9.6304 31.5532 10.1813 32.18 10.876C32.9261 11.6846 33.7823 12.3862 34.1972 13.4667C34.4589 14.1463 34.4901 14.287 33.9745 14.8018Z" fill="#042365"/>
<path d="M27.8132 38.3999C27.8132 38.8515 27.6788 39.1765 27.2663 39.3742H25.6257C25.2093 39.1843 25.0741 38.8617 25.0749 38.407C25.0874 34.2549 25.0874 30.1028 25.0749 25.9508C25.07 25.8302 25.0919 25.71 25.1389 25.5989C25.1859 25.4877 25.2569 25.3883 25.3468 25.3078C26.1428 24.5266 26.9241 23.7281 27.7757 22.8711C27.7882 23.0859 27.8007 23.207 27.8007 23.3281C27.8027 28.3526 27.8069 33.3765 27.8132 38.3999Z" fill="#042365"/>
<path d="M39.9992 5.39072V5.85946L34.543 11.2501L32.1992 8.90633C32.2319 8.86241 32.2672 8.82042 32.3047 8.78055C33.951 7.11389 35.5982 5.45087 37.2461 3.7915C37.7383 3.29541 38.0492 3.29151 38.5258 3.7915C39.0226 4.31416 39.5078 4.85556 39.9992 5.39072Z" fill="#042365"/>
<path d="M26.4153 1.23125C25.7801 1.41484 25.1426 1.50546 24.5989 1.77812C23.9989 2.08202 23.7637 2.70858 23.72 3.41874C23.3254 3.41874 22.9505 3.43202 22.5778 3.4078C22.4997 3.40233 22.377 3.26796 22.359 3.17342C22.1387 2.02812 21.4114 1.39999 20.2497 1.38124C19.8466 1.37499 19.4434 1.37343 19.0403 1.38124C17.8864 1.4039 17.1231 2.08437 16.952 3.23827C16.945 3.28749 16.9317 3.33514 16.9184 3.39842H15.6294C15.4114 1.85077 14.4435 1.25234 12.9583 1.38437C12.7466 0.664841 12.8708 0.316405 13.4372 0H25.859C26.4348 0.291405 26.5192 0.496873 26.4153 1.23125Z" fill="#042365"/>
<path d="M21.0238 38.4136C21.0238 38.8714 20.8894 39.1902 20.4691 39.3754H18.8285C18.4003 39.166 18.2878 38.8152 18.2917 38.3597C18.3089 36.4847 18.3042 34.6097 18.2917 32.7402C18.2866 32.6193 18.3084 32.4988 18.3556 32.3873C18.4027 32.2758 18.4741 32.1762 18.5644 32.0957C19.3628 31.3144 20.1464 30.5191 20.9917 29.6738C21.0019 29.8645 21.0144 29.9863 21.0144 30.1059C21.016 32.8723 21.0081 35.6433 21.0238 38.4136Z" fill="#042365"/>
<path d="M6.31326 7.57338L0.103906 13.7749C0.0804684 13.7171 0.0406248 13.6187 0 13.5171V12.3452C0.0781247 12.046 0.144531 11.7452 0.234374 11.4491C0.581644 10.268 1.31472 9.23735 2.31651 8.52176C3.3183 7.80618 4.53101 7.44697 5.76091 7.5015C5.94998 7.51088 6.13826 7.54994 6.31326 7.57338Z" fill="#042365"/>
<path d="M14.1922 38.8125C14.175 39.0125 13.8539 39.1883 13.6726 39.375H12.1102L11.6641 39.0883L14.2195 36.5469C14.2195 37.2961 14.2539 38.0586 14.1922 38.8125Z" fill="#042365"/>
<path d="M14.2387 21.5833C14.2449 21.723 14.2201 21.8622 14.1661 21.9911C14.112 22.12 14.0301 22.2352 13.9262 22.3287C13.1519 23.0818 12.3988 23.8544 11.6371 24.6201L11.5293 24.5857V3.71857C11.5285 2.92092 11.7191 2.73498 12.523 2.73498C12.8613 2.73498 13.1996 2.72483 13.5387 2.73498C13.9621 2.75139 14.2066 3.00295 14.2293 3.42404C14.2355 3.52795 14.2293 3.63185 14.2293 3.73654C14.2309 9.68756 14.234 15.6365 14.2387 21.5833Z" fill="#042365"/>
<path d="M21.016 15.036C21.0184 15.1491 20.9814 15.2596 20.9113 15.3485C20.0894 16.1821 19.2574 17.0063 18.4262 17.8313C18.4113 17.8453 18.3801 17.843 18.3027 17.8594V3.73993C18.3027 2.92118 18.491 2.73681 19.3184 2.73681C19.6309 2.73681 19.9434 2.73134 20.2559 2.73681C20.7488 2.74774 21.0152 2.99696 21.016 3.48055C21.016 7.33262 21.016 11.1844 21.016 15.036Z" fill="#042365"/>
<path d="M27.7985 8.31941C27.7998 8.40851 27.77 8.49527 27.7142 8.56472C26.8657 9.4241 26.0118 10.2733 25.0829 11.2014C25.0829 8.53348 25.079 5.9827 25.0876 3.43271C25.0876 3.01631 25.3642 2.75381 25.7798 2.74131C26.222 2.72725 26.6649 2.72647 27.1079 2.74131C27.5212 2.75537 27.7938 3.01631 27.797 3.43896C27.8079 5.06552 27.8032 6.69286 27.7985 8.31941Z" fill="#042365"/>
<path d="M4.65234 18.2449L10.7609 12.1348C11.4508 15.4519 8.1203 18.9199 4.65234 18.2449Z" fill="#042365"/>
<path d="M10.2226 10.4441L2.9625 17.7097L2.1875 17.1965L9.70856 9.65039L10.2226 10.4441Z" fill="#042365"/>
<path d="M8.6573 8.62101L1.14092 16.1647C0.992485 15.9343 0.814361 15.7093 0.700299 15.4554C0.659674 15.3655 0.740143 15.171 0.82608 15.0835C1.86592 14.028 2.9167 12.9835 3.96513 11.9358C5.15106 10.7507 6.34559 9.57335 7.51746 8.37336C7.7573 8.12804 7.94011 8.09133 8.19871 8.3007C8.34793 8.42179 8.51589 8.52179 8.6573 8.62101Z" fill="#042365"/>
</svg>
