<svg width="40" height="40" viewBox="0 0 40 40" fill="none" xmlns="http://www.w3.org/2000/svg">
<path d="M39.6914 16.5961C38.2812 9.375 34.1547 4.33125 27.4078 1.43672C25.5328 0.632031 23.55 0.210938 21.5117 0.0671875C21.3971 0.0524108 21.2835 0.0299647 21.1719 0L18.8281 0C18.057 0.103125 17.2789 0.16875 16.5156 0.3125C10.1875 1.52891 5.46016 4.97813 2.34922 10.6109C0.999219 13.0586 0.260938 15.7031 0.0664062 18.4914C0.0515119 18.605 0.0293307 18.7174 0 18.8281L0 21.1719C0.103125 21.9414 0.167187 22.7195 0.3125 23.4805C1.62812 30.2055 5.38203 35.0781 11.5164 38.1031C13.718 39.1891 16.0719 39.7742 18.5266 39.9359C18.6285 39.9501 18.7293 39.9715 18.8281 40H21.1719C21.943 39.8969 22.7211 39.8312 23.4844 39.6875C29.8125 38.4711 34.5398 35.0219 37.6508 29.3891C39.0008 26.9445 39.7391 24.3016 39.9336 21.5117C39.9484 21.3971 39.9705 21.2836 40 21.1719V18.8281C39.8992 18.0836 39.8352 17.332 39.6914 16.5961ZM21.0156 5.63906C23.1422 4.79922 25.2625 3.94453 27.3914 3.10938C27.5661 3.04839 27.7572 3.05395 27.9281 3.125C30.9026 4.51489 33.4557 6.66818 35.3273 9.36562C35.3861 9.45743 35.4383 9.55323 35.4836 9.65234C35.3164 10.3555 35.1625 11.0016 35.0109 11.6469C34.7336 12.8188 34.4539 13.9977 34.1852 15.1758C34.1375 15.3844 34.0594 15.5055 33.8367 15.5781C31.7391 16.2656 29.6469 16.9727 27.5484 17.657C27.4673 17.6761 27.3831 17.6781 27.3011 17.6628C27.2192 17.6474 27.1414 17.6151 27.0727 17.568C25.0315 15.9534 23.0003 14.3286 20.9789 12.6937C20.8325 12.5625 20.7433 12.379 20.7305 12.1828C20.7133 10.1516 20.7234 8.12031 20.7117 6.09297C20.7031 5.84219 20.7852 5.72891 21.0156 5.63906ZM4.65938 9.4C6.53098 6.68448 9.09299 4.51729 12.0813 3.12187C12.2308 3.06081 12.3976 3.05664 12.55 3.11016C14.7055 3.95 16.8547 4.80625 19.0086 5.64922C19.2266 5.73438 19.2984 5.84688 19.2961 6.07812C19.2836 7.10625 19.2906 8.13516 19.2906 9.16406C19.2906 10.1797 19.2992 11.1953 19.2812 12.2109C19.2717 12.3832 19.1958 12.545 19.0695 12.6625C17.0242 14.3151 14.9706 15.9557 12.9086 17.5844C12.8435 17.6268 12.7702 17.6549 12.6934 17.667C12.6167 17.6791 12.5383 17.6749 12.4633 17.6547C10.3633 16.9703 8.26771 16.2729 6.17656 15.5625C6.10001 15.5304 6.03116 15.4824 5.97458 15.4216C5.91801 15.3609 5.87501 15.2888 5.84844 15.2102C5.40833 13.4174 4.98307 11.6206 4.57266 9.81953C4.5488 9.67378 4.57969 9.52435 4.65938 9.4ZM11.1648 31.0508C11.0948 31.1289 11.0162 31.1989 10.9305 31.2594C10.1422 31.1367 9.42266 31.025 8.70312 30.9133C7.42188 30.7109 6.13516 30.5023 4.85 30.3125C4.55234 30.2672 4.34609 30.1641 4.17422 29.8859C2.68002 27.4934 1.75224 24.791 1.46172 21.9852C1.44828 21.8373 1.48849 21.6895 1.575 21.5687C2.81641 20.0617 4.07031 18.5656 5.3125 17.0617C5.4375 16.9117 5.54141 16.8711 5.73984 16.9383C7.81953 17.6414 9.90547 18.3258 11.9836 19.0328C12.0615 19.0645 12.1318 19.1124 12.1898 19.1733C12.2478 19.2342 12.2923 19.3066 12.3203 19.3859C12.9453 21.8292 13.5549 24.2755 14.1492 26.725C14.1801 26.8811 14.149 27.043 14.0625 27.1766C13.1086 28.475 12.1367 29.7656 11.1648 31.0508ZM27.7344 32.3688C26.6773 34.2062 25.6305 36.0492 24.5688 37.8836C24.4854 38.023 24.3536 38.1268 24.1984 38.175C21.6016 38.7664 18.993 38.8398 16.3781 38.2961C16.2325 38.2669 16.1021 38.1869 16.0102 38.0703C14.7477 36.1135 13.493 34.1526 12.2461 32.1875C12.2257 32.1486 12.208 32.1084 12.193 32.0672C13.2086 30.7172 14.2164 29.3617 15.2398 28.0164C15.2857 27.9664 15.3412 27.926 15.4029 27.8977C15.4646 27.8694 15.5314 27.8537 15.5992 27.8516C18.5279 27.8427 21.457 27.8427 24.3867 27.8516C24.4661 27.8583 24.5433 27.8807 24.614 27.9175C24.6846 27.9542 24.7473 28.0046 24.7984 28.0656C25.7766 29.3328 26.7359 30.6148 27.7102 31.8844C27.8461 32.0609 27.8398 32.1875 27.7344 32.3688ZM38.5414 21.9875C38.2573 24.8186 37.3093 27.5426 35.7742 29.9383C35.6649 30.103 35.4975 30.2204 35.3055 30.2672C33.293 30.6031 31.2758 30.9164 29.2602 31.2352C29.2344 31.2398 29.2086 31.2422 29.1094 31.2539C29.0229 31.2008 28.944 31.1361 28.875 31.0617C27.8906 29.7656 26.9078 28.4742 25.9375 27.1688C25.8519 27.0355 25.8216 26.874 25.8531 26.7188C26.4505 24.2708 27.0599 21.8253 27.6813 19.382C27.7099 19.3028 27.755 19.2305 27.8136 19.1699C27.8721 19.1093 27.9429 19.0618 28.0211 19.0305C30.0859 18.3273 32.1617 17.6477 34.225 16.9461C34.4594 16.868 34.5727 16.9234 34.7141 17.0945C35.9422 18.5789 37.1805 20.0531 38.4039 21.5398C38.5021 21.6676 38.551 21.8266 38.5414 21.9875Z" fill="#042365"/>
</svg>
