<svg width="132" height="228" viewBox="0 0 132 228" fill="none" xmlns="http://www.w3.org/2000/svg">
<mask id="mask0_2202_12116" style="mask-type:alpha" maskUnits="userSpaceOnUse" x="0" y="0" width="132" height="240">
<path d="M13.5869 227.81C17.2167 227.81 20.6978 226.368 23.2645 223.801C25.8311 221.235 27.2731 217.753 27.2731 214.124C27.2731 210.494 25.8311 207.013 23.2645 204.446C20.6978 201.879 17.2167 200.438 13.5869 200.438C-4.52897 200.428 -4.52897 227.81 13.5869 227.81Z" fill="black"/>
<path d="M130.225 68.9416C129.91 66.9024 131.333 65.9991 130.179 64.6716C130.097 64.5758 130.813 49.74 126.246 47.2354C124.969 46.5329 118.979 42.7829 119.458 41.4051C119.974 39.9361 118.97 40.1916 118.222 39.6579C106.785 31.5648 99.2026 16.9024 84.2665 28.5812C83.3906 29.2655 82.8979 29.261 79.9964 29.9818C79.3532 30.1414 78.6689 29.8768 78.0347 30.2555C77.8386 30.3695 77.5192 30.1278 77.2729 30C73.2355 27.8832 71.4699 19.7126 70.5986 15.26H70.8906C70.7902 14.7582 71.0365 14.4891 70.9271 13.9827C71.0738 14.102 71.2503 14.1792 71.4376 14.2057C71.6249 14.2322 71.8159 14.2072 71.99 14.1332C71.7832 14.1499 71.5763 14.1012 71.3987 13.994C71.2211 13.8867 71.0816 13.7264 71.0001 13.5356C71.3559 12.9243 70.8769 12.8011 70.8906 12.4133C70.9164 12.3487 70.9348 12.2814 70.9453 12.2126C71.2144 12.431 71.4551 12.6824 71.6615 12.9608C71.5216 12.5266 71.2772 12.1334 70.9499 11.8157C70.9499 11.688 70.9179 11.5465 70.8906 11.4051C71.1415 11.9505 71.462 12.4612 71.844 12.9243C71.5931 12.3266 71.4608 11.7108 71.2282 11.0995C71.3938 11.2491 71.569 11.3878 71.7528 11.5146C71.2246 10.7108 70.7535 9.8708 70.3431 9.00092L71.0776 9.55749C70.7352 9.02946 70.3206 8.5519 69.8459 8.13869C69.7318 7.95621 69.6086 7.77829 69.4718 7.60037C69.4617 7.56172 69.4495 7.52364 69.4353 7.48632C69.1778 7.15128 68.9387 6.80254 68.719 6.44161C68.8513 6.56022 68.9791 6.67883 69.1068 6.8157C68.6467 5.83452 67.8988 5.01665 66.9626 4.47081L66.9216 4.37956C66.0222 3.93265 65.0922 3.55 64.1387 3.23449C64.8924 3.21366 65.6397 3.09089 66.3605 2.86953C64.0201 2.69617 63.751 2.6688 61.4517 1.73358L61.4243 1.79745H61.3741C60.627 1.83056 59.8831 1.91592 59.1479 2.05292C58.8741 1.94799 58.7783 1.59672 58.3997 1.62865H58.3723C58.5454 1.46265 58.6673 1.2505 58.7236 1.01734C58.4569 1.37349 58.0899 1.64194 57.6698 1.78832C57.5055 1.78832 57.5466 1.44161 57.4781 1.27737C57.5895 0.853535 57.559 0.404915 57.3915 0C57.4295 0.389112 57.3396 0.780008 57.1354 1.11343C56.9313 1.44685 56.6239 1.70461 56.2601 1.84763C56.4475 1.61171 56.556 1.32286 56.5703 1.0219C56.2829 1.7792 55.5575 2.06204 54.8595 2.25365C54.8196 2.23598 54.7814 2.21459 54.7455 2.18978C54.8905 1.71035 54.8696 1.19602 54.6862 0.729927C54.6988 1.14322 54.6061 1.55293 54.417 1.92062C54.3743 1.89241 54.3284 1.86943 54.2802 1.85219C53.6177 2.10944 53.0342 2.53568 52.5876 3.08851C51.8762 3.31501 51.2016 3.64388 50.5849 4.06478L50.6761 4.1834C50.3878 4.20066 50.0986 4.1651 49.823 4.07847C50.1067 3.72888 50.3232 3.32983 50.4617 2.90146C49.825 3.63987 49.1056 4.30267 48.3176 4.87683C48.6521 4.40797 48.9235 3.89722 49.125 3.35767C48.3341 4.30416 47.4371 5.15676 46.4517 5.89873L46.511 5.97172C45.0876 5.78467 43.719 5.38778 42.6515 4.26551C43.0236 5.06921 43.6398 5.73497 44.4124 6.16789C44.4102 6.19369 44.4102 6.21964 44.4124 6.24544C43.7829 5.9413 43.1396 5.63717 42.4827 5.33303C43.1637 5.97671 43.9315 6.52185 44.7637 6.95256C43.3176 6.65146 41.8851 6.49635 40.9499 5.25548C41.1487 5.89513 41.5507 6.4525 42.0949 6.84307C42.1447 6.95197 42.2217 7.04624 42.3185 7.11679C41.8585 7.02888 41.4329 6.81214 41.0913 6.49179C41.4973 7.34946 42.4325 7.54106 43.167 7.8604C43.1714 7.89677 43.1714 7.93353 43.167 7.96989C42.8249 8.33486 42.1907 7.76916 41.4243 7.78741C41.0038 7.54193 40.6081 7.25622 40.2427 6.93431C40.4232 7.16002 40.6371 7.35692 40.8769 7.51825C40.5652 7.28919 40.2696 7.03922 39.9918 6.77008C40.3099 7.18349 40.703 7.53327 41.1506 7.8011C40.766 7.56335 40.4082 7.28499 40.0831 6.97081C40.3419 7.28718 40.65 7.55982 40.9955 7.77829H40.9635C40.6477 7.57309 40.35 7.34109 40.0739 7.08486C40.2809 7.33818 40.5255 7.55821 40.7993 7.73723C40.6031 7.68249 40.0694 7.16697 40.0557 7.19891C40.1801 7.37631 40.3345 7.53069 40.5119 7.65511C40.0054 7.44067 39.5647 7.09596 39.2345 6.65602C39.6907 8.02464 40.7856 8.33486 42.0265 8.68614C42.2911 9.01004 41.9809 9.0876 41.7938 9.17884C41.2966 9.02373 40.7947 8.823 40.2929 8.63595C40.7407 9.02378 41.2303 9.36041 41.7528 9.6396C42.25 10.3741 43.3632 9.79015 42.9435 12.0757C42.9536 12.1479 42.9836 12.2158 43.0301 12.2719C43.0384 12.6832 42.9509 13.0909 42.7747 13.4626C43.0029 13.2478 43.1685 12.975 43.2537 12.6734C43.2537 13.458 43.6187 13.5128 43.6734 14.302C44.4672 15.3604 44.8778 17.9517 44.8915 18.0475C45.042 18.2299 45.1971 18.4033 45.3477 18.5812C47.6287 27.646 49.2072 24.3385 49.7592 26.8796C50.6716 31.1907 55.6898 34.1788 56.8075 36.2181C57.8385 38.1205 59.7044 37.7692 61.4973 36.5511C62.1497 36.0949 62.7747 38.3759 61.4973 39.3659C59.5219 40.9489 59.1022 42.9927 54.855 44.6351C44.271 48.7409 43.9334 56.3367 40.7446 73.6588C40.4617 75.1825 41.2692 75.219 40.9909 76.282C39.1661 83.271 37.3413 82.5183 35.667 90.7619C29.5539 121.168 28.0712 110.762 26.7026 120.488C26.4289 122.418 28.4955 122.117 27.2227 123.152C23.24 126.391 23.4134 126.893 20.9727 134.745V134.909C21.3422 135.712 21.0821 136.875 22.9343 140.47C23.5685 141.697 22.0219 140.926 22.4781 142.327C29.0931 162.623 35.3933 166.049 40.5666 193.75C40.7628 194.795 38.7874 192.838 39.1342 194.886C39.3395 196.086 41.8303 202.956 41.9763 203.061C42.4736 203.422 41.6661 204.311 42.2637 204.754C43.1761 205.411 43.1351 211.665 42.6469 213.216C42.1132 214.918 43.3312 214.22 43.2172 215.871C42.6424 223.996 45.0831 222.929 45.1652 223.937C45.261 225.306 46.3057 223.057 47.355 223.659C47.5922 223.796 48.0986 222.938 47.8842 222.683C47.5648 222.295 47.6606 222.035 47.9115 221.674C48.3997 220.963 48.8604 222.204 49.417 221.218C50.0466 220.123 48.5593 220.488 49.3805 219.361C49.9371 218.6 50.001 217.473 51.073 217.993C51.4152 218.157 52.1953 216.971 51.6524 216.588C50.8769 216.04 51.6798 215.584 51.8851 214.9C52.0584 214.32 53.9198 214.612 53.4635 213.6C53.3221 213.289 53.4635 212.879 53.1442 212.66C52.9617 212.541 52.8705 212.4 52.9708 212.181C53.2902 211.506 53.9745 212.637 54.4444 211.451C54.9143 210.265 53.4727 210.821 53.8604 209.626C57.1725 199.174 57.0539 199.133 57.7519 199.389C58.0849 199.512 58.0712 199.663 59.2619 197.792C60.0831 196.501 57.7975 196.793 58.9106 195.716C59.3988 195.26 59.5721 194.59 60.2473 194.936C61.3148 195.488 61.6159 194.024 61.8714 193.709C62.4873 192.86 60.9179 192.943 61.7026 192.135C62.1588 191.679 62.5146 191.004 61.6068 190.995C61.0092 190.995 59.4307 187.86 56.8531 186.569C52.063 184.174 52.8477 182.965 52.0721 184.047C51 185.552 48.4225 162.97 48.5685 161.332C49.0247 156.236 47.9161 151.405 45.886 147.86C45.8312 147.765 41.8166 140.652 42.6332 140.721C44.9553 140.917 45.5484 143.171 47.4918 142.454C48.5092 142.08 71.9626 130.821 72.0676 133.253C72.1588 135.301 71.7026 136.072 72.9116 137.938C74.1205 139.804 71.2236 151.277 73.9152 157.883C74.4353 159.161 73.2309 158.408 73.3404 159.489C76.1004 187.03 81.9079 205.443 66.9763 233.166C66.5839 233.873 66.4561 234.696 66.6159 235.488C66.698 235.894 65.9772 237.956 67.8522 238.454C71.9581 239.548 71.6205 238.54 74.0794 239.745H74.2437C74.3395 239.69 74.49 239.658 74.522 239.58C75.115 238.07 77.6515 239.047 77.7929 238.992C78.2491 238.814 78.1625 238.23 78.7053 238.079C83.5594 236.884 85.6032 233.152 86.0046 228.166C86.2738 225.005 89.5356 220.963 88.0667 213.609C86.0639 203.609 88.7966 196.679 91.6752 183.002C94.3258 170.397 90.5621 157.874 89.0064 158.184C87.2546 158.54 86.8349 148.759 89.1296 148.96C92.5101 149.256 98.1488 147.076 98.7099 143.732C102.966 118.755 111.123 117.851 105.553 93.7044C105.284 92.5411 110.863 89.5986 107.93 85.3513C106.944 83.9188 109.604 83.8185 105.599 69.4526C104.887 66.8978 103.888 49.0466 103.984 48.9964C104.079 48.9462 111.091 53.4763 111.187 53.5584C112.068 54.2108 111.821 52.1898 113.277 53.0383C113.614 53.2391 119.663 56.8157 119.476 57.4407C118.162 61.4416 123.067 64.9316 121.42 65.5019C110.27 69.3614 115.215 75.3148 117.46 72.3449C118.235 71.3276 119.549 71.6926 119.394 72.2582C118.81 74.3933 118.194 76.6287 121.005 75.9535C121.621 75.803 121.817 78.0657 123.66 76.7519C124.426 76.2044 123.851 78.1843 125.941 77.9882C126.976 77.8924 126.995 80.4745 131.351 75.7072C133.135 73.7592 130.726 72.1898 130.225 68.9416ZM64.9873 99.1789C64.8732 100.091 64.1844 99.9362 62.0083 100.251C40.5165 103.344 29.6998 121.816 43.8057 101.236C51.1871 90.4699 49.9051 80.4471 52.4736 79.9042C55.3705 79.2929 57.8614 68.8915 58.5274 70.1004C60.2838 73.2938 64.2619 76.7382 65.3705 87.8924C65.6396 88.7364 62.0128 91.7336 65.2838 95.3924C65.9134 96.1132 65.3522 96.2592 65.0055 99.1789H64.9873Z" fill="black"/>
</mask>
<g mask="url(#mask0_2202_12116)">
<path fill-rule="evenodd" clip-rule="evenodd" d="M23.8692 120.494L23.8102 120.697L-93.1855 36.9111L-92.8927 36.392L23.6675 119.866L23.8692 120.494ZM37.6975 -77.0059L65.3382 -22.5273L68.75 -34.2943L91.5045 -6.79923L133.459 -74.9525L145.238 -31.6682L224.933 -8.24274L170.382 60.7345L171.294 64.0859L167.81 63.9878L163.356 69.619L161.438 63.8084L149.664 63.4769L199.88 124.154L169.652 123.592C189.611 130.011 208.891 137.563 227.317 146.537L227.325 146.532L227.321 146.54L227.345 146.551L227.356 146.553L227.353 146.555L227.366 146.562L246.191 116.573L284.383 252.314L344.694 253.886L204.369 324.53L228.383 346.308L228.543 343.538L229.515 347.335L232.374 349.927L230.922 352.825L235.993 372.629L278.961 422.255L251.907 434.764L271.188 510.047L222.465 448.62L222.479 448.37L172.808 471.335L180.283 451.768L179.906 449.143C162.067 430.831 146.152 413.103 136.621 393.689L47.3267 384.097L47.7954 383.35L-24.7104 375.562L52.7539 252.16L41.9603 247.781L-13.8044 246.924L23.8223 120.971L41.9276 137.749L41.6732 137.012L24.4659 120.893L23.7572 120.88L23.7886 120.772L23.0244 120.962L23.7947 120.95L-1.03067 203.953L-23.4335 178.101L-56.7475 242.374L-74.8966 208.925L-134.491 224.201L-138.85 230.938L-141.665 224.48C-159.445 227.766 -189.061 210.271 -209.499 190.91L-200.723 189.144C-198.503 181.911 -197.6 176.143 -196.853 171.369C-194.803 158.276 -193.924 152.661 -170.248 144.785L-177.35 119.815C-148.52 124.396 -126.26 140.549 -109.205 165.868L-93.6205 161.04L-103.103 175.695C-102.736 176.337 -102.371 176.983 -102.009 177.634L-104.45 177.776L-121.308 203.828L-120.357 202.485L-106.682 202.031L-90.4847 179.268L-90.0508 180.102L-23.9717 177.48L-24.1592 177.263L-72.9715 179.211L-44.3738 153.936L-55.8733 140.666L-85.4397 148.05L-103.651 34.2867L-159.71 -6.09232L-56.49 -28.1465L-61.2416 -19.7223L-23.8053 -27.7199L-28.959 -43.7421L37.6975 -77.0059ZM-9.92238 15.4402L-41.7117 22.2314L-8.76411 19.0411L-9.92238 15.4402ZM78.933 248.349L70.7024 248.222L70.5445 252.051L78.933 248.349ZM164.878 344.411L169.836 378.962L164.558 344.572L164.878 344.411ZM226.497 361.66L227.432 362.741L227.625 359.407L226.497 361.66ZM162.967 249.15L162.967 249.15L227.356 146.579L227.278 146.608L163.005 248.995L163.024 248.995L162.961 249.159L162.965 249.153L162.967 249.15ZM162.675 249.914L162.954 249.182L162.953 249.182L162.675 249.914ZM-160.142 180.981L-159.964 180.945L-162.546 171.865L-160.142 180.981ZM-159.894 181.009L-157.662 180.879L-159.501 181.448L-159.894 181.009Z" fill="#042365"/>
<g style="mix-blend-mode:color-dodge">
<path fill-rule="evenodd" clip-rule="evenodd" d="M-85.3733 148.053L23.9479 120.752L-104.465 28.7891L-85.3733 148.053Z" fill="#F6A980"/>
<path fill-rule="evenodd" clip-rule="evenodd" d="M-13.738 246.927L162.738 249.639L23.8887 120.975L-13.738 246.927Z" fill="#E59E78"/>
<path fill-rule="evenodd" clip-rule="evenodd" d="M70.3137 259.262L74.1401 166.452L1.61065 231.384L70.3137 259.262Z" fill="#AA5F3A"/>
<path fill-rule="evenodd" clip-rule="evenodd" d="M123.846 352.306L163.09 248.998L88.4574 248.18L77.4295 327.618L123.846 352.306Z" fill="#D9865B"/>
<path fill-rule="evenodd" clip-rule="evenodd" d="M112.944 190.287L227.447 146.572C183.282 125.05 134.208 111.709 82.63 102.545L112.944 190.287Z" fill="#AA5F3A"/>
<path fill-rule="evenodd" clip-rule="evenodd" d="M71.7491 223.875L186.252 180.16C142.087 158.637 93.0124 145.297 41.4347 136.133L71.7491 223.875Z" fill="#AA5F3A"/>
<path fill-rule="evenodd" clip-rule="evenodd" d="M162.664 249.648L227.392 146.535L119.738 210.841L162.664 249.648Z" fill="#AA5F3A"/>
<path fill-rule="evenodd" clip-rule="evenodd" d="M224.999 -8.23951L128.349 -36.6486L163.423 69.6223L224.999 -8.23951Z" fill="#E59E78"/>
<path fill-rule="evenodd" clip-rule="evenodd" d="M171.361 64.0891L133.525 -74.9492L50.0376 60.6731L171.361 64.0891Z" fill="#B56C46"/>
<path fill-rule="evenodd" clip-rule="evenodd" d="M119.769 210.862L227.423 146.556L89.4542 123.12L119.769 210.862Z" fill="#E59E78"/>
<path fill-rule="evenodd" clip-rule="evenodd" d="M-0.96429 203.956L23.8611 120.953L-71.5551 122.497L-0.96429 203.956Z" fill="#C58766"/>
<path fill-rule="evenodd" clip-rule="evenodd" d="M24.2643 120.249L8.66678 17.3629L-104.148 28.2869L24.2643 120.249Z" fill="#E77D49"/>
<path fill-rule="evenodd" clip-rule="evenodd" d="M6.50084 11.8717L37.9471 -40.8949L-65.276 -18.843L6.50084 11.8717Z" fill="#AB64E6"/>
<path fill-rule="evenodd" clip-rule="evenodd" d="M-61.8119 -19.5027L-93.256 33.2603L9.96134 11.2098L-61.8119 -19.5027Z" fill="#B17AF8"/>
<path fill-rule="evenodd" clip-rule="evenodd" d="M24.1601 120.548L120.083 210.405L89.7877 121.697L24.1601 120.548Z" fill="#F1B886"/>
<path fill-rule="evenodd" clip-rule="evenodd" d="M163.033 249.153L117.532 368.283L344.761 253.889L163.033 249.153Z" fill="#B66C46"/>
<path fill-rule="evenodd" clip-rule="evenodd" d="M23.8236 120.883L199.946 124.158L68.8164 -34.291L23.8236 120.883Z" fill="#D9865B"/>
<path fill-rule="evenodd" clip-rule="evenodd" d="M23.9962 120.685L66.3003 -20.7587L37.7639 -77.0026L-28.8926 -43.7389L23.9962 120.685Z" fill="#E59E78"/>
</g>
</g>
<g style="mix-blend-mode:hue">
<mask id="mask1_2202_12116" style="mask-type:alpha" maskUnits="userSpaceOnUse" x="0" y="0" width="132" height="240">
<path d="M13.5869 227.81C17.2167 227.81 20.6978 226.368 23.2645 223.801C25.8311 221.235 27.2731 217.753 27.2731 214.124C27.2731 210.494 25.8311 207.013 23.2645 204.446C20.6978 201.879 17.2167 200.438 13.5869 200.438C-4.52897 200.428 -4.52897 227.81 13.5869 227.81Z" fill="#C3001D"/>
<path d="M130.225 68.9416C129.91 66.9024 131.333 65.9991 130.179 64.6716C130.097 64.5758 130.813 49.74 126.246 47.2354C124.969 46.5329 118.979 42.7829 119.458 41.4051C119.974 39.9361 118.97 40.1916 118.222 39.6579C106.785 31.5648 99.2026 16.9024 84.2665 28.5812C83.3906 29.2655 82.8979 29.261 79.9964 29.9818C79.3532 30.1414 78.6689 29.8768 78.0347 30.2555C77.8386 30.3695 77.5192 30.1278 77.2729 30C73.2355 27.8832 71.4699 19.7126 70.5986 15.26H70.8906C70.7902 14.7582 71.0365 14.4891 70.9271 13.9827C71.0738 14.102 71.2503 14.1792 71.4376 14.2057C71.6249 14.2322 71.8159 14.2072 71.99 14.1332C71.7832 14.1499 71.5763 14.1012 71.3987 13.994C71.2211 13.8867 71.0816 13.7264 71.0001 13.5356C71.3559 12.9243 70.8769 12.8011 70.8906 12.4133C70.9164 12.3487 70.9348 12.2814 70.9453 12.2126C71.2144 12.431 71.4551 12.6824 71.6615 12.9608C71.5216 12.5266 71.2772 12.1334 70.9499 11.8157C70.9499 11.688 70.9179 11.5465 70.8906 11.4051C71.1415 11.9505 71.462 12.4612 71.844 12.9243C71.5931 12.3266 71.4608 11.7108 71.2282 11.0995C71.3938 11.2491 71.569 11.3878 71.7528 11.5146C71.2246 10.7108 70.7535 9.8708 70.3431 9.00092L71.0776 9.55749C70.7352 9.02946 70.3206 8.5519 69.8459 8.13869C69.7318 7.95621 69.6086 7.77829 69.4718 7.60037C69.4617 7.56172 69.4495 7.52364 69.4353 7.48632C69.1778 7.15128 68.9387 6.80254 68.719 6.44161C68.8513 6.56022 68.9791 6.67883 69.1068 6.8157C68.6467 5.83452 67.8988 5.01665 66.9626 4.47081L66.9216 4.37956C66.0222 3.93265 65.0922 3.55 64.1387 3.23449C64.8924 3.21366 65.6397 3.09089 66.3605 2.86953C64.0201 2.69617 63.751 2.6688 61.4517 1.73358L61.4243 1.79745H61.3741C60.627 1.83056 59.8831 1.91592 59.1479 2.05292C58.8741 1.94799 58.7783 1.59672 58.3997 1.62865H58.3723C58.5454 1.46265 58.6673 1.2505 58.7236 1.01734C58.4569 1.37349 58.0899 1.64194 57.6698 1.78832C57.5055 1.78832 57.5466 1.44161 57.4781 1.27737C57.5895 0.853535 57.559 0.404915 57.3915 0C57.4295 0.389112 57.3396 0.780008 57.1354 1.11343C56.9313 1.44685 56.6239 1.70461 56.2601 1.84763C56.4475 1.61171 56.556 1.32286 56.5703 1.0219C56.2829 1.7792 55.5575 2.06204 54.8595 2.25365C54.8196 2.23598 54.7814 2.21459 54.7455 2.18978C54.8905 1.71035 54.8696 1.19602 54.6862 0.729927C54.6988 1.14322 54.6061 1.55293 54.417 1.92062C54.3743 1.89241 54.3284 1.86943 54.2802 1.85219C53.6177 2.10944 53.0342 2.53568 52.5876 3.08851C51.8762 3.31501 51.2016 3.64388 50.5849 4.06478L50.6761 4.1834C50.3878 4.20066 50.0986 4.1651 49.823 4.07847C50.1067 3.72888 50.3232 3.32983 50.4617 2.90146C49.825 3.63987 49.1056 4.30267 48.3176 4.87683C48.6521 4.40797 48.9235 3.89722 49.125 3.35767C48.3341 4.30416 47.4371 5.15676 46.4517 5.89873L46.511 5.97172C45.0876 5.78467 43.719 5.38778 42.6515 4.26551C43.0236 5.06921 43.6398 5.73497 44.4124 6.16789C44.4102 6.19369 44.4102 6.21964 44.4124 6.24544C43.7829 5.9413 43.1396 5.63717 42.4827 5.33303C43.1637 5.97671 43.9315 6.52185 44.7637 6.95256C43.3176 6.65146 41.8851 6.49635 40.9499 5.25548C41.1487 5.89513 41.5507 6.4525 42.0949 6.84307C42.1447 6.95197 42.2217 7.04624 42.3185 7.11679C41.8585 7.02888 41.4329 6.81214 41.0913 6.49179C41.4973 7.34946 42.4325 7.54106 43.167 7.8604C43.1714 7.89677 43.1714 7.93353 43.167 7.96989C42.8249 8.33486 42.1907 7.76916 41.4243 7.78741C41.0038 7.54193 40.6081 7.25622 40.2427 6.93431C40.4232 7.16002 40.6371 7.35692 40.8769 7.51825C40.5652 7.28919 40.2696 7.03922 39.9918 6.77008C40.3099 7.18349 40.703 7.53327 41.1506 7.8011C40.766 7.56335 40.4082 7.28499 40.0831 6.97081C40.3419 7.28718 40.65 7.55982 40.9955 7.77829H40.9635C40.6477 7.57309 40.35 7.34109 40.0739 7.08486C40.2809 7.33818 40.5255 7.55821 40.7993 7.73723C40.6031 7.68249 40.0694 7.16697 40.0557 7.19891C40.1801 7.37631 40.3345 7.53069 40.5119 7.65511C40.0054 7.44067 39.5647 7.09596 39.2345 6.65602C39.6907 8.02464 40.7856 8.33486 42.0265 8.68614C42.2911 9.01004 41.9809 9.0876 41.7938 9.17884C41.2966 9.02373 40.7947 8.823 40.2929 8.63595C40.7407 9.02378 41.2303 9.36041 41.7528 9.6396C42.25 10.3741 43.3632 9.79015 42.9435 12.0757C42.9536 12.1479 42.9836 12.2158 43.0301 12.2719C43.0384 12.6832 42.9509 13.0909 42.7747 13.4626C43.0029 13.2478 43.1685 12.975 43.2537 12.6734C43.2537 13.458 43.6187 13.5128 43.6734 14.302C44.4672 15.3604 44.8778 17.9517 44.8915 18.0475C45.042 18.2299 45.1971 18.4033 45.3477 18.5812C47.6287 27.646 49.2072 24.3385 49.7592 26.8796C50.6716 31.1907 55.6898 34.1788 56.8075 36.2181C57.8385 38.1205 59.7044 37.7692 61.4973 36.5511C62.1497 36.0949 62.7747 38.3759 61.4973 39.3659C59.5219 40.9489 59.1022 42.9927 54.855 44.6351C44.271 48.7409 43.9334 56.3367 40.7446 73.6588C40.4617 75.1825 41.2692 75.219 40.9909 76.282C39.1661 83.271 37.3413 82.5183 35.667 90.7619C29.5539 121.168 28.0712 110.762 26.7026 120.488C26.4289 122.418 28.4955 122.117 27.2227 123.152C23.24 126.391 23.4134 126.893 20.9727 134.745V134.909C21.3422 135.712 21.0821 136.875 22.9343 140.47C23.5685 141.697 22.0219 140.926 22.4781 142.327C29.0931 162.623 35.3933 166.049 40.5666 193.75C40.7628 194.795 38.7874 192.838 39.1342 194.886C39.3395 196.086 41.8303 202.956 41.9763 203.061C42.4736 203.422 41.6661 204.311 42.2637 204.754C43.1761 205.411 43.1351 211.665 42.6469 213.216C42.1132 214.918 43.3312 214.22 43.2172 215.871C42.6424 223.996 45.0831 222.929 45.1652 223.937C45.261 225.306 46.3057 223.057 47.355 223.659C47.5922 223.796 48.0986 222.938 47.8842 222.683C47.5648 222.295 47.6606 222.035 47.9115 221.674C48.3997 220.963 48.8604 222.204 49.417 221.218C50.0466 220.123 48.5593 220.488 49.3805 219.361C49.9371 218.6 50.001 217.473 51.073 217.993C51.4152 218.157 52.1953 216.971 51.6524 216.588C50.8769 216.04 51.6798 215.584 51.8851 214.9C52.0584 214.32 53.9198 214.612 53.4635 213.6C53.3221 213.289 53.4635 212.879 53.1442 212.66C52.9617 212.541 52.8705 212.4 52.9708 212.181C53.2902 211.506 53.9745 212.637 54.4444 211.451C54.9143 210.265 53.4727 210.821 53.8604 209.626C57.1725 199.174 57.0539 199.133 57.7519 199.389C58.0849 199.512 58.0712 199.663 59.2619 197.792C60.0831 196.501 57.7975 196.793 58.9106 195.716C59.3988 195.26 59.5721 194.59 60.2473 194.936C61.3148 195.488 61.6159 194.024 61.8714 193.709C62.4873 192.86 60.9179 192.943 61.7026 192.135C62.1588 191.679 62.5146 191.004 61.6068 190.995C61.0092 190.995 59.4307 187.86 56.8531 186.569C52.063 184.174 52.8477 182.965 52.0721 184.047C51 185.552 48.4225 162.97 48.5685 161.332C49.0247 156.236 47.9161 151.405 45.886 147.86C45.8312 147.765 41.8166 140.652 42.6332 140.721C44.9553 140.917 45.5484 143.171 47.4918 142.454C48.5092 142.08 71.9626 130.821 72.0676 133.253C72.1588 135.301 71.7026 136.072 72.9116 137.938C74.1205 139.804 71.2236 151.277 73.9152 157.883C74.4353 159.161 73.2309 158.408 73.3404 159.489C76.1004 187.03 81.9079 205.443 66.9763 233.166C66.5839 233.873 66.4561 234.696 66.6159 235.488C66.698 235.894 65.9772 237.956 67.8522 238.454C71.9581 239.548 71.6205 238.54 74.0794 239.745H74.2437C74.3395 239.69 74.49 239.658 74.522 239.58C75.115 238.07 77.6515 239.047 77.7929 238.992C78.2491 238.814 78.1625 238.23 78.7053 238.079C83.5594 236.884 85.6032 233.152 86.0046 228.166C86.2738 225.005 89.5356 220.963 88.0667 213.609C86.0639 203.609 88.7966 196.679 91.6752 183.002C94.3258 170.397 90.5621 157.874 89.0064 158.184C87.2546 158.54 86.8349 148.759 89.1296 148.96C92.5101 149.256 98.1488 147.076 98.7099 143.732C102.966 118.755 111.123 117.851 105.553 93.7044C105.284 92.5411 110.863 89.5986 107.93 85.3513C106.944 83.9188 109.604 83.8185 105.599 69.4526C104.887 66.8978 103.888 49.0466 103.984 48.9964C104.079 48.9462 111.091 53.4763 111.187 53.5584C112.068 54.2108 111.821 52.1898 113.277 53.0383C113.614 53.2391 119.663 56.8157 119.476 57.4407C118.162 61.4416 123.067 64.9316 121.42 65.5019C110.27 69.3614 115.215 75.3148 117.46 72.3449C118.235 71.3276 119.549 71.6926 119.394 72.2582C118.81 74.3933 118.194 76.6287 121.005 75.9535C121.621 75.803 121.817 78.0657 123.66 76.7519C124.426 76.2044 123.851 78.1843 125.941 77.9882C126.976 77.8924 126.995 80.4745 131.351 75.7072C133.135 73.7592 130.726 72.1898 130.225 68.9416ZM64.9873 99.1789C64.8732 100.091 64.1844 99.9362 62.0083 100.251C40.5165 103.344 29.6998 121.816 43.8057 101.236C51.1871 90.4699 49.9051 80.4471 52.4736 79.9042C55.3705 79.2929 57.8614 68.8915 58.5274 70.1004C60.2838 73.2938 64.2619 76.7382 65.3705 87.8924C65.6396 88.7364 62.0128 91.7336 65.2838 95.3924C65.9134 96.1132 65.3522 96.2592 65.0055 99.1789H64.9873Z" fill="#C3001D"/>
</mask>
<g mask="url(#mask1_2202_12116)">
<path fill-rule="evenodd" clip-rule="evenodd" d="M23.8692 120.494L23.8102 120.697L-93.1855 36.9111L-92.8927 36.392L23.6675 119.866L23.8692 120.494ZM37.6975 -77.0059L65.3382 -22.5273L68.75 -34.2943L91.5045 -6.79923L133.459 -74.9525L145.238 -31.6682L224.933 -8.24274L170.382 60.7345L171.294 64.0859L167.81 63.9878L163.356 69.619L161.438 63.8084L149.664 63.4769L199.88 124.154L169.652 123.592C189.611 130.011 208.891 137.563 227.317 146.537L227.325 146.532L227.321 146.54L227.345 146.551L227.356 146.553L227.353 146.555L227.366 146.562L246.191 116.573L284.383 252.314L344.694 253.886L204.369 324.53L228.383 346.308L228.543 343.538L229.515 347.335L232.374 349.927L230.922 352.825L235.993 372.629L278.961 422.255L251.907 434.764L271.188 510.047L222.465 448.62L222.479 448.37L172.808 471.335L180.283 451.768L179.906 449.143C162.067 430.831 146.152 413.103 136.621 393.689L47.3267 384.097L47.7954 383.35L-24.7104 375.562L52.7539 252.16L41.9603 247.781L-13.8044 246.924L23.8223 120.971L41.9276 137.749L41.6732 137.012L24.4659 120.893L23.7572 120.88L23.7886 120.772L23.0244 120.962L23.7947 120.95L-1.03067 203.953L-23.4335 178.101L-56.7475 242.374L-74.8966 208.925L-134.491 224.201L-138.85 230.938L-141.665 224.48C-159.445 227.766 -189.061 210.271 -209.499 190.91L-200.723 189.144C-198.503 181.911 -197.6 176.143 -196.853 171.369C-194.803 158.276 -193.924 152.661 -170.248 144.785L-177.35 119.815C-148.52 124.396 -126.26 140.549 -109.205 165.868L-93.6205 161.04L-103.103 175.695C-102.736 176.337 -102.371 176.983 -102.009 177.634L-104.45 177.776L-121.308 203.828L-120.357 202.485L-106.682 202.031L-90.4847 179.268L-90.0508 180.102L-23.9717 177.48L-24.1592 177.263L-72.9715 179.211L-44.3738 153.936L-55.8733 140.666L-85.4397 148.05L-103.651 34.2867L-159.71 -6.09232L-56.49 -28.1465L-61.2416 -19.7223L-23.8053 -27.7199L-28.959 -43.7421L37.6975 -77.0059ZM-9.92238 15.4402L-41.7117 22.2314L-8.76411 19.0411L-9.92238 15.4402ZM78.933 248.349L70.7024 248.222L70.5445 252.051L78.933 248.349ZM164.878 344.411L169.836 378.962L164.558 344.572L164.878 344.411ZM226.497 361.66L227.432 362.741L227.625 359.407L226.497 361.66ZM162.967 249.15L162.967 249.15L227.356 146.579L227.278 146.608L163.005 248.995L163.024 248.995L162.961 249.159L162.965 249.153L162.967 249.15ZM162.675 249.914L162.954 249.182L162.953 249.182L162.675 249.914ZM-160.142 180.981L-159.964 180.945L-162.546 171.865L-160.142 180.981ZM-159.894 181.009L-157.662 180.879L-159.501 181.448L-159.894 181.009Z" fill="#C3001D"/>
<g style="mix-blend-mode:color-dodge">
<path fill-rule="evenodd" clip-rule="evenodd" d="M-85.3733 148.053L23.9479 120.752L-104.465 28.7891L-85.3733 148.053Z" fill="#C3001D"/>
<path fill-rule="evenodd" clip-rule="evenodd" d="M-13.738 246.927L162.738 249.639L23.8887 120.975L-13.738 246.927Z" fill="#C3001D"/>
<path fill-rule="evenodd" clip-rule="evenodd" d="M70.3137 259.262L74.1401 166.452L1.61065 231.384L70.3137 259.262Z" fill="#C3001D"/>
<path fill-rule="evenodd" clip-rule="evenodd" d="M123.846 352.306L163.09 248.998L88.4574 248.18L77.4295 327.618L123.846 352.306Z" fill="#C3001D"/>
<path fill-rule="evenodd" clip-rule="evenodd" d="M112.944 190.287L227.447 146.572C183.282 125.05 134.208 111.709 82.63 102.545L112.944 190.287Z" fill="#C3001D"/>
<path fill-rule="evenodd" clip-rule="evenodd" d="M71.7491 223.875L186.252 180.16C142.087 158.637 93.0124 145.297 41.4347 136.133L71.7491 223.875Z" fill="#C3001D"/>
<path fill-rule="evenodd" clip-rule="evenodd" d="M162.664 249.648L227.392 146.535L119.738 210.841L162.664 249.648Z" fill="#C3001D"/>
<path fill-rule="evenodd" clip-rule="evenodd" d="M224.999 -8.23951L128.349 -36.6486L163.423 69.6223L224.999 -8.23951Z" fill="#C3001D"/>
<path fill-rule="evenodd" clip-rule="evenodd" d="M171.361 64.0891L133.525 -74.9492L50.0376 60.6731L171.361 64.0891Z" fill="#C3001D"/>
<path fill-rule="evenodd" clip-rule="evenodd" d="M119.769 210.862L227.423 146.556L89.4542 123.12L119.769 210.862Z" fill="#C3001D"/>
<path fill-rule="evenodd" clip-rule="evenodd" d="M-0.96429 203.956L23.8611 120.953L-71.5551 122.497L-0.96429 203.956Z" fill="#C3001D"/>
<path fill-rule="evenodd" clip-rule="evenodd" d="M24.2643 120.249L8.66678 17.3629L-104.148 28.2869L24.2643 120.249Z" fill="#C3001D"/>
<path fill-rule="evenodd" clip-rule="evenodd" d="M6.50084 11.8717L37.9471 -40.8949L-65.276 -18.843L6.50084 11.8717Z" fill="#C3001D"/>
<path fill-rule="evenodd" clip-rule="evenodd" d="M-61.8119 -19.5027L-93.256 33.2603L9.96134 11.2098L-61.8119 -19.5027Z" fill="#C3001D"/>
<path fill-rule="evenodd" clip-rule="evenodd" d="M24.1601 120.548L120.083 210.405L89.7877 121.697L24.1601 120.548Z" fill="#C3001D"/>
<path fill-rule="evenodd" clip-rule="evenodd" d="M163.033 249.153L117.532 368.283L344.761 253.889L163.033 249.153Z" fill="#C3001D"/>
<path fill-rule="evenodd" clip-rule="evenodd" d="M23.8236 120.883L199.946 124.158L68.8164 -34.291L23.8236 120.883Z" fill="#C3001D"/>
<path fill-rule="evenodd" clip-rule="evenodd" d="M23.9962 120.685L66.3003 -20.7587L37.7639 -77.0026L-28.8926 -43.7389L23.9962 120.685Z" fill="#C3001D"/>
</g>
</g>
</g>
</svg>
