<svg width="56" height="56" viewBox="0 0 56 56" fill="none" xmlns="http://www.w3.org/2000/svg">
<g clip-path="url(#clip0_2202_8509)">
<path d="M54.9523 25.7457C53.131 23.9182 51.3065 22.0951 49.4791 20.2764C49.1437 19.9624 48.8799 19.5799 48.7056 19.1549C48.5313 18.7298 48.4507 18.2722 48.4692 17.8132C48.5277 15.4314 48.5715 13.0496 48.6003 10.6677C48.6279 8.60595 47.4199 7.38881 45.3633 7.41241C43.0025 7.44127 40.6417 7.47799 38.2808 7.54357C37.2316 7.57243 36.3869 7.20256 35.6577 6.45496C33.8975 4.66072 32.1099 2.89272 30.3314 1.11815C28.8217 -0.380983 27.198 -0.371801 25.6844 1.14045C23.9518 2.87042 22.2009 4.58072 20.4998 6.34085C20.126 6.75308 19.6641 7.07567 19.1484 7.28459C18.6327 7.49351 18.0764 7.58338 17.5212 7.54751C15.2285 7.46357 12.9306 7.43996 10.638 7.41635C8.62474 7.39274 7.40759 8.61775 7.43251 10.635C7.46006 12.9958 7.49547 15.3566 7.56367 17.7175C7.58742 18.2087 7.50333 18.6991 7.3173 19.1543C7.13128 19.6095 6.84782 20.0185 6.48687 20.3524C4.68082 22.1296 2.89576 23.9317 1.1094 25.7299C-0.33334 27.1792 -0.33334 28.8331 1.1094 30.2798C2.91675 32.0898 4.71886 33.9037 6.53671 35.7005C6.88041 36.0214 7.15062 36.4128 7.32879 36.8479C7.50697 37.2831 7.58888 37.7516 7.56892 38.2214C7.5099 40.6688 7.46137 43.1162 7.43776 45.5662C7.42071 47.3316 8.68376 48.5828 10.4426 48.5947C11.6873 48.6038 12.9346 48.5947 14.178 48.5947V48.4635C15.382 48.4635 16.5847 48.4897 17.7835 48.4556C18.8157 48.4268 19.6394 48.7927 20.3581 49.5206C22.1209 51.3109 23.9072 53.0802 25.6844 54.8561C27.2164 56.3867 28.8322 56.3815 30.3746 54.8391C32.123 53.0934 33.8844 51.3621 35.6078 49.5928C35.9615 49.2065 36.3969 48.904 36.8821 48.707C37.3674 48.5101 37.8905 48.4238 38.4133 48.4543C40.7282 48.5304 43.0471 48.5592 45.3647 48.5855C47.4173 48.6117 48.6331 47.3906 48.6056 45.3328C48.5754 42.9719 48.5387 40.6111 48.4744 38.2502C48.4515 37.7702 48.5335 37.291 48.7147 36.8459C48.8959 36.4008 49.172 36.0005 49.5237 35.673C51.3455 33.8787 53.1489 32.0661 54.9523 30.2522C56.3596 28.8318 56.3596 27.1595 54.9523 25.7457ZM38.2218 24.5442C34.5957 28.1773 30.967 31.806 27.3357 35.4303C26.0372 36.7262 24.4148 36.7275 23.1059 35.4303C21.3221 33.6641 19.5462 31.8886 17.7782 30.104C16.5624 28.879 16.5204 27.1399 17.655 26.0119C18.7895 24.8839 20.5129 24.943 21.7471 26.1627C22.8947 27.2986 24.0305 28.4475 25.2687 29.6896C25.6713 29.2489 25.9979 28.8672 26.3507 28.5091C28.9887 25.865 31.6294 23.2244 34.2726 20.5872C35.5186 19.3465 37.2132 19.2992 38.3595 20.4495C39.5058 21.5998 39.4455 23.3166 38.2218 24.5442Z" fill="#042365"/>
</g>
<defs>
<clipPath id="clip0_2202_8509">
<rect width="56" height="56" fill="white"/>
</clipPath>
</defs>
</svg>
