<svg width="56" height="56" viewBox="0 0 56 56" fill="none" xmlns="http://www.w3.org/2000/svg">
<path d="M55.6795 31.8318C53.164 35.5504 49.7418 38.2617 45.9543 40.553C45.0739 41.0845 44.1453 41.592 43.1741 41.9037C41.8704 42.3226 40.5634 42.0492 39.3844 41.3678C36.1033 39.4735 33.0092 37.3353 30.4543 34.5048C29.7679 33.7271 29.1221 32.9145 28.5195 32.0702C28.2581 31.7104 28.0044 31.5605 27.5472 31.5605C18.3644 31.5773 9.18204 31.5813 0 31.5726V49.6187C0.32155 50.7453 0.874966 51.6968 1.98945 52.2108C2.29679 52.353 2.63146 52.4525 2.95301 52.5718H53.0448C54.1713 52.2513 55.1228 51.6968 55.6358 50.5845C55.7791 50.275 55.8786 49.9469 55.9978 49.6187V31.5726C55.8884 31.6579 55.7528 31.7235 55.6795 31.8318ZM15.6094 42.0722C13.3695 42.0809 11.1296 42.0809 8.88965 42.0722C7.77626 42.0722 6.99535 41.3263 7.0041 40.3113C7.01285 39.2963 7.79376 38.5811 8.917 38.5723C10.0402 38.5636 11.1383 38.5723 12.2495 38.5723C13.3607 38.5723 14.4708 38.5668 15.582 38.5723C16.6933 38.5778 17.4873 39.2941 17.4949 40.3069C17.5026 41.3197 16.7228 42.0645 15.6094 42.0722Z" fill="#042365"/>
<path d="M54.4657 8.7562C50.473 7.06679 46.4849 5.36571 42.5017 3.65297C42.4732 3.64093 42.4568 3.60156 42.4349 3.57422H41.56C40.9038 3.86733 40.2475 4.1692 39.5793 4.44918C36.1691 5.91402 32.7567 7.37522 29.3422 8.83276C28.5525 9.17291 27.998 9.69898 28.009 10.5849C28.068 14.426 27.7694 18.2769 28.3228 22.1049C28.8763 25.9329 30.4075 29.3234 33.0444 32.1823C35.3543 34.6891 38.1279 36.5889 41.0514 38.2929C41.7076 38.6778 42.3639 38.6363 43.0201 38.2535C45.0839 37.0504 47.0745 35.738 48.8977 34.1816C52.6972 30.9431 55.0629 26.9106 55.694 21.9157C55.7935 21.1249 55.8974 20.3331 55.9991 19.5423V10.2458C55.7705 9.45618 55.1832 9.06025 54.4657 8.7562ZM48.5597 16.9699C47.6137 18.1949 46.6326 19.3925 45.6658 20.6021C44.381 22.2062 43.0952 23.8125 41.8083 25.421C40.8053 26.6733 39.518 26.6241 38.6278 25.3018C37.5231 23.6536 36.4185 22.0054 35.3302 20.3462C34.8271 19.5806 34.9004 18.7494 35.4746 18.1347C36.005 17.5671 36.845 17.3921 37.5198 17.7858C37.8409 17.9876 38.1165 18.2539 38.3292 18.5679C39.0182 19.5467 39.669 20.5518 40.3766 21.6116C42.2009 19.3291 43.9672 17.1274 45.7226 14.9203C46.1875 14.3363 46.7518 13.9841 47.5141 14.1088C48.8769 14.3319 49.4347 15.8391 48.5597 16.9699Z" fill="#042365"/>
<path d="M25.2559 24.5732H0V17.0266C0.3128 15.9438 0.814812 14.977 1.89758 14.5012C2.41819 14.2737 3.00988 14.0944 3.57095 14.0922C10.4372 14.0648 17.3035 14.0736 24.1709 14.0736C24.2595 14.0736 24.347 14.0834 24.499 14.0933C24.4859 17.5997 24.4104 21.0941 25.2559 24.5732Z" fill="#042365"/>
</svg>
