<svg width="56" height="56" viewBox="0 0 56 56" fill="none" xmlns="http://www.w3.org/2000/svg">
<path d="M50.7788 12.1275C50.7546 11.3116 50.4497 10.8433 49.7094 10.4825C42.6612 7.07677 35.6213 3.65574 28.5899 0.219344C28.4627 0.156831 28.3464 0.074577 28.2258 0H27.5678C25.9753 0.792929 24.3873 1.59792 22.7882 2.37769C17.1445 5.12973 11.4964 7.87519 5.84391 10.6141C5.32955 10.8652 5.05866 11.226 5.03892 11.7974C4.69893 22.0781 6.55897 31.8674 11.7048 40.8737C15.4062 47.352 20.6113 52.3136 27.2004 55.8154C27.7345 56.0995 28.1797 56.0347 28.6875 55.7639C36.2022 51.7488 41.7626 45.8561 45.5145 38.2317C48.1049 32.9674 49.6042 27.3741 50.3401 21.5714C50.7323 18.4397 50.879 15.2821 50.7788 12.1275ZM27.9352 39.3997C20.8065 39.4227 14.9862 33.6211 14.973 26.4803C14.9666 23.0488 16.3233 19.7553 18.7448 17.3239C21.1663 14.8925 24.4543 13.5224 27.8858 13.5149C35.0145 13.4973 40.8205 19.3067 40.8271 26.4562C40.8227 33.5772 35.0507 39.3723 27.9352 39.3997Z" fill="#042365"/>
<path d="M35.2998 23.8606C32.5463 26.6258 29.7869 29.3837 27.0217 32.1342C26.2321 32.9162 25.0751 32.8833 24.269 32.0926C23.0326 30.8796 21.8079 29.6549 20.5949 28.4185C19.7878 27.5993 19.7713 26.3973 20.528 25.6208C21.2848 24.8443 22.5175 24.8388 23.3642 25.6636C24.1319 26.4126 24.8765 27.1836 25.7517 28.0665C25.9371 27.8142 26.0643 27.585 26.2431 27.4085C28.3129 25.3269 30.3868 23.2497 32.4648 21.1769C33.0482 20.5934 33.7391 20.4092 34.52 20.6658C35.3009 20.9225 35.7165 21.4741 35.8361 22.2615C35.8831 22.5516 35.8589 22.8487 35.7655 23.1273C35.672 23.4059 35.5122 23.6576 35.2998 23.8606Z" fill="#042365"/>
</svg>
