<svg width="56" height="56" viewBox="0 0 56 56" fill="none" xmlns="http://www.w3.org/2000/svg">
<g clip-path="url(#clip0_2202_8533)">
<path d="M45.6733 27.4898C43.9704 27.818 43.0243 28.9686 42.9958 30.6956C42.9958 30.9144 42.9958 31.1331 42.9958 31.3836H22.9901V30.7273C22.9901 27.2109 22.9977 23.6945 22.9901 20.177C22.9835 17.8802 21.7651 16.1958 19.6651 15.6063C19.1703 15.4846 18.6618 15.4284 18.1524 15.4389C15.6554 15.4236 13.1594 15.4323 10.6635 15.4323H10.1166C10.0641 15.3634 10.0433 15.3492 10.0433 15.335C10.0532 13.1475 9.98537 10.9655 10.1068 8.78891C10.1724 7.59563 11.3383 6.64953 12.5491 6.47344C12.6703 6.44805 12.7897 6.41518 12.9068 6.375H43.0943C43.8807 6.54234 44.6343 6.76438 45.203 7.39766C45.7718 8.03094 46.0015 8.77688 46.0026 9.60266C46.0069 15.3973 46.0069 21.1917 46.0026 26.9856C46.0058 27.2284 46.019 27.4231 45.6733 27.4898Z" fill="#042365"/>
<path d="M20.9628 22.4316V44.4379H0V22.4535C0.200156 22.4459 0.400312 22.4327 0.599375 22.4327H20.9628V22.4316Z" fill="#042365"/>
<path d="M55.9991 33.3906H45.0332V45.4219H55.9991V33.3906Z" fill="#042365"/>
<path d="M18.9503 49.367C18.8289 49.39 18.7119 49.4348 18.5938 49.4688H2.40625C1.18125 49.2664 0.372969 48.5806 0 47.3906V46.4062L20.3 46.4161H20.9322C21.1706 47.8533 20.3077 49.1089 18.9503 49.367Z" fill="#042365"/>
<path d="M20.9475 20.3859C20.7977 20.3969 20.6391 20.4166 20.4816 20.4166C13.8162 20.4166 7.1513 20.4166 0.486719 20.4166C0.32375 20.4166 0.158594 20.3903 0 20.3761V19.3917C0.377344 18.4894 0.90125 17.7325 1.93375 17.5094C2.18203 17.455 2.43537 17.4272 2.68953 17.4263C7.89651 17.4233 13.1049 17.4219 18.3148 17.4219C20.0462 17.4273 21.1641 18.6819 20.9475 20.3859Z" fill="#042365"/>
<path d="M56.0004 47.3906V48.5938C55.9033 48.8177 55.7528 49.0145 55.5622 49.167C55.3716 49.3195 55.1465 49.4231 54.9067 49.4688H46.0473C45.0739 49.0717 44.877 48.6856 45.0629 47.3906H56.0004Z" fill="#042365"/>
<path d="M55.9987 30.2174V31.4206H44.9824C45.0141 30.9831 44.9824 30.5576 45.0918 30.1715C45.2307 29.6585 45.6507 29.4343 46.1779 29.4332C49.0545 29.4332 51.931 29.4332 54.8065 29.4277C55.3938 29.4256 55.7285 29.7592 55.9987 30.2174Z" fill="#042365"/>
<path d="M42.9488 33.4512H23.0195V36.3955H42.9488V33.4512Z" fill="#042365"/>
<path d="M32.9784 38.4473H23.0352V42.3771H32.9784V38.4473Z" fill="#042365"/>
<path d="M38.9318 46.391H23.0254V44.4278H23.6893C28.2601 44.4278 32.8309 44.4485 37.4005 44.4124C38.5151 44.4026 39.2435 44.5962 38.9318 46.391Z" fill="#042365"/>
</g>
<defs>
<clipPath id="clip0_2202_8533">
<rect width="56" height="56" fill="white"/>
</clipPath>
</defs>
</svg>
