<svg width="56" height="56" viewBox="0 0 56 56" fill="none" xmlns="http://www.w3.org/2000/svg">
<g clip-path="url(#clip0_2202_8493)">
<path d="M56.0008 1.3125V48.2344C55.5403 49.2669 54.7287 49.5644 53.6317 49.5611C43.788 49.5338 33.9442 49.5458 24.1059 49.5458H23.43C23.4158 49.4047 23.4059 49.35 23.4059 49.2964C23.4059 44.6852 23.4092 40.0739 23.4158 35.4627C23.4337 35.218 23.538 34.9878 23.71 34.813C28.5969 29.9064 33.4907 25.0064 38.3914 20.113C38.5008 20.0091 38.6178 19.9248 38.8059 19.7706V20.4783C38.8059 22.8113 38.8059 25.1442 38.8059 27.4783C38.794 27.7689 38.8205 28.0598 38.8847 28.3434C38.9981 28.7415 39.2505 29.0857 39.5961 29.3135C39.9417 29.5413 40.3576 29.6376 40.7681 29.5848C41.7011 29.4569 42.3256 28.7295 42.3267 27.7134C42.3347 23.6491 42.3347 19.5847 42.3267 15.5203C42.3267 14.3959 41.5983 13.6784 40.475 13.6686C39.1264 13.6566 37.7778 13.6686 36.4281 13.6686C33.712 13.6686 30.9962 13.6686 28.2808 13.6686C27.3587 13.6686 26.6773 14.1641 26.4652 14.9494C26.1502 16.1175 26.9683 17.1763 28.2436 17.1872C30.6859 17.208 33.1283 17.1948 35.5717 17.1948H36.2466C36.0683 17.3994 35.9819 17.5109 35.8823 17.6094C30.9926 22.5057 26.0936 27.3988 21.1856 32.2886C20.9763 32.4738 20.7082 32.5788 20.4288 32.585C15.9444 32.6025 11.46 32.5981 6.97563 32.597C6.81703 32.597 6.65844 32.5828 6.45281 32.5741V31.8948C6.45281 22.0511 6.44771 12.2092 6.4375 2.36906C6.4375 1.27203 6.73281 0.459375 7.76641 0H54.6883C55.2727 0.260668 55.7401 0.72811 56.0008 1.3125Z" fill="#042365"/>
<path d="M19.8669 53.8915C19.8669 54.9349 19.437 55.6196 18.4844 56.0002H1.3125C0.72811 55.7396 0.260668 55.2721 0 54.6877L0 37.5159C0.404688 36.4735 1.18344 36.1224 2.27281 36.129C7.06344 36.1574 11.8552 36.1421 16.6458 36.1421H17.3348C17.1008 36.3838 16.9728 36.5195 16.8405 36.6518C13.9967 39.4956 11.1493 42.3419 8.29828 45.1907C7.83891 45.6479 7.50203 46.1499 7.57422 46.8248C7.59724 47.1458 7.71047 47.4538 7.90088 47.7133C8.09129 47.9728 8.35113 48.1732 8.65047 48.2915C9.29031 48.5649 9.89953 48.4643 10.4431 48.0301C10.6111 47.8905 10.7711 47.7415 10.9222 47.5838C13.7193 44.7897 16.5138 41.9937 19.3058 39.1959C19.4363 39.0433 19.5545 38.8806 19.6591 38.7092L19.8209 38.7999C19.8341 38.9487 19.857 39.0963 19.857 39.2451C19.8592 44.1276 19.8472 49.009 19.8669 53.8915Z" fill="#042365"/>
</g>
<defs>
<clipPath id="clip0_2202_8493">
<rect width="56" height="56" fill="white"/>
</clipPath>
</defs>
</svg>
