<svg width="40" height="35" viewBox="0 0 40 35" fill="none" xmlns="http://www.w3.org/2000/svg">
<path d="M39.6455 31.9145C40.1833 32.8574 40.0775 33.5691 39.3802 34.0441C38.6828 34.5192 37.9066 34.3345 37.2433 33.4597C36.019 31.8463 34.834 30.1917 33.5612 28.6196C32.9266 27.8344 32.8442 27.0313 33.036 26.1098C33.1274 25.6868 33.1794 25.2547 33.2762 24.6452C32.258 25.3892 31.3831 25.9987 30.5496 26.6584C30.3398 26.8599 30.1939 27.1186 30.1301 27.4023C29.5923 29.2918 29.0832 31.192 28.5525 33.0833C28.2854 34.037 27.6688 34.4959 26.9069 34.3489C26.0769 34.1893 25.6341 33.5171 25.8223 32.5007C26.249 30.1881 26.7187 27.881 27.2045 25.5792C27.2993 25.2379 27.4648 24.9203 27.6903 24.647C28.9577 22.9494 30.2448 21.2661 31.5678 19.5218L29.3969 17.6611C29.0384 18.4229 28.6476 19.3766 28.142 20.2658C27.8765 20.7514 27.4938 21.163 27.0288 21.4633C25.5427 22.3417 24.0028 23.1322 22.479 23.9497C21.3658 24.5484 20.6021 24.4427 20.1378 23.6431C19.6735 22.8436 19.998 22.1033 21.0646 21.4812C22.0954 20.8825 23.1441 20.3106 24.148 19.6706C24.4861 19.4535 24.7529 19.1418 24.9152 18.7743C25.7273 16.7576 26.4928 14.7229 27.2672 12.69C28.3607 9.82177 31.315 9.19434 33.4716 11.3599C35.2642 13.1525 37.0635 14.9422 38.8693 16.7289C40.0542 17.9031 40.3339 19.4519 39.5863 21.0008C38.7498 22.7181 37.8935 24.4241 37.0175 26.1188C36.7701 26.5921 36.7611 26.956 37.0462 27.4256C37.9425 28.9028 38.794 30.4086 39.6455 31.9145Z" fill="#042365"/>
<path d="M22.8408 15.8075C22.8175 16.6537 22.208 17.1753 21.1987 17.1807C19.6158 17.1915 18.0311 17.1341 16.4499 17.204C15.498 17.2453 14.7702 16.9799 14.1787 16.2432C13.8847 15.8739 13.5333 15.5494 13.1192 15.112C12.2874 16.4798 11.5237 17.6898 10.8228 18.9321C10.7746 19.068 10.7586 19.2132 10.7761 19.3563C10.7935 19.4993 10.8438 19.6364 10.9232 19.7568C11.5482 20.6317 12.2328 21.4625 12.9722 22.2432C13.9564 23.2291 14.3597 24.3944 14.5461 25.7424C14.8348 27.8381 15.222 29.9211 15.5644 32.0167C15.6038 32.2516 15.6415 32.4882 15.6576 32.7338C15.715 33.6301 15.2758 34.2325 14.4798 34.3651C13.7914 34.4798 13.1317 34.0066 12.913 33.2071C12.3089 31.0254 11.6779 28.8509 11.1347 26.6549C10.9268 25.8124 10.5378 25.2046 9.80636 24.7583C9.29904 24.4481 8.84012 24.0609 8.41347 23.749C6.9423 26.2874 5.4771 28.8139 4.01788 31.3284C3.59661 32.0454 3.16816 32.7625 2.72179 33.4795C2.16069 34.3759 1.44363 34.625 0.714015 34.2235C-0.0155955 33.8219 -0.209202 33.0439 0.240754 32.1225C0.893281 30.7834 1.50995 29.4246 2.23239 28.1249C2.74632 27.2175 2.98781 26.1812 2.92795 25.1401C2.84907 23.2614 2.83831 21.3755 2.89209 19.495C2.90167 18.8063 3.07691 18.1299 3.403 17.5231C4.79231 15.0905 6.23898 12.6829 7.71971 10.3077C9.02835 8.20848 11.9432 8.0812 13.5243 9.99934C14.5426 11.2434 15.5931 12.4642 16.5969 13.7263C16.7511 13.9406 16.959 14.1105 17.1998 14.2188C17.4406 14.3271 17.7057 14.3699 17.9683 14.3429C19.0439 14.3017 20.1195 14.3178 21.1951 14.3429C22.2707 14.368 22.8659 14.9184 22.8408 15.8075Z" fill="#042365"/>
<path d="M28.5431 6.46895C28.5544 6.93903 28.4716 7.40662 28.2997 7.84428C28.1278 8.28193 27.8701 8.68082 27.5419 9.01753C27.2137 9.35424 26.8215 9.62197 26.3884 9.80501C25.9553 9.98805 25.4899 10.0827 25.0197 10.0834C24.5495 10.0841 24.0839 9.9909 23.6502 9.80918C23.2166 9.62746 22.8236 9.36093 22.4943 9.02522C22.1651 8.68952 21.9062 8.29141 21.733 7.85428C21.5597 7.41716 21.4755 6.94982 21.4854 6.47971C21.4741 6.00964 21.5569 5.54204 21.7288 5.10439C21.9007 4.66674 22.1583 4.26784 22.4866 3.93114C22.8148 3.59443 23.207 3.3267 23.6401 3.14365C24.0732 2.96061 24.5385 2.86596 25.0087 2.86524C25.4789 2.86452 25.9446 2.95776 26.3782 3.13948C26.8119 3.3212 27.2049 3.58774 27.5342 3.92344C27.8634 4.25915 28.1222 4.65725 28.2955 5.09438C28.4688 5.53151 28.5529 5.99885 28.5431 6.46895Z" fill="#042365"/>
<path d="M18.5184 3.58968C18.5419 4.06571 18.4688 4.54158 18.3033 4.98856C18.1379 5.43555 17.8836 5.84437 17.5558 6.19037C17.228 6.53636 16.8335 6.81235 16.3961 7.00167C15.9587 7.191 15.4875 7.28973 15.0109 7.29191C14.5343 7.29409 14.0622 7.19968 13.6231 7.01437C13.1839 6.82906 12.7869 6.55669 12.456 6.21371C12.125 5.87073 11.867 5.46425 11.6975 5.0188C11.528 4.57335 11.4505 4.09817 11.4697 3.62195C11.4571 3.15226 11.5386 2.68481 11.7092 2.24702C11.8798 1.80924 12.1361 1.40994 12.4631 1.07256C12.7901 0.735178 13.1812 0.466516 13.6134 0.282341C14.0457 0.0981651 14.5104 0.00218614 14.9802 3.69131e-05C15.4501 -0.00211231 15.9156 0.0896115 16.3495 0.269825C16.7834 0.450038 17.177 0.715111 17.5071 1.04948C17.8371 1.38386 18.0971 1.7808 18.2717 2.21701C18.4463 2.65321 18.532 3.1199 18.5238 3.58968H18.5184Z" fill="#042365"/>
</svg>
