<svg width="32" height="32" viewBox="0 0 32 32" fill="none" xmlns="http://www.w3.org/2000/svg">
<g style="mix-blend-mode:luminosity">
<path d="M5.2774 12.727H9.96547V26.6821H5.2774V12.727ZM7.65281 6C6.04828 6 5 7.04198 5 8.40961C5 9.74911 6.0176 10.8214 7.59146 10.8214H7.62135C9.25656 10.8214 10.2749 9.74906 10.2749 8.40961C10.2442 7.04198 9.25661 6 7.65281 6ZM21.476 12.3992C18.9875 12.3992 17.8727 13.7531 17.2507 14.7026V12.727H12.5612C12.6233 14.0361 12.5612 26.6821 12.5612 26.6821H17.2507V18.8886C17.2507 18.4712 17.2814 18.0553 17.4048 17.7563C17.7443 16.923 18.5159 16.0601 19.8101 16.0601C21.5081 16.0601 22.1863 17.3404 22.1863 19.2156V26.6821H26.875V18.6799C26.875 14.3936 24.5624 12.3992 21.476 12.3992Z" fill="#8BB1BB"/>
</g>
</svg>
