<svg width="100" height="120" viewBox="0 0 100 120" fill="none" xmlns="http://www.w3.org/2000/svg">
<path fill-rule="evenodd" clip-rule="evenodd" d="M96.6378 102.314L76.9919 104.825L81.3129 100.031C86.4404 100.602 91.5679 101.173 96.6378 102.314Z" fill="#FD0000"/>
<path fill-rule="evenodd" clip-rule="evenodd" d="M3.36328 102.314L22.1449 104.312L18.4578 100.031C14.5977 100.602 7.22332 101.686 3.36328 102.314Z" fill="#FD0000"/>
<path fill-rule="evenodd" clip-rule="evenodd" d="M49.8561 0.956676C84.2507 0.157696 97.2711 9.11769 97.2711 9.11769C112.711 110.931 49.8561 119.777 49.8561 119.777C49.8561 119.777 -12.9991 110.931 2.44107 9.11769C2.44107 9.11769 15.4615 0.157696 49.8561 0.956676Z" fill="#8BB1BB"/>
<path fill-rule="evenodd" clip-rule="evenodd" d="M49.8561 3.52438C82.7528 2.78247 95.1971 11.343 95.1971 11.343C110.003 108.762 49.8561 117.208 49.8561 117.208C49.8561 117.208 -10.2913 108.762 4.51506 11.343C4.51506 11.2859 16.9594 2.78247 49.8561 3.52438Z" fill="#EDEDED"/>
<path fill-rule="evenodd" clip-rule="evenodd" d="M49.8557 5.92167C81.3697 5.23683 93.2955 13.3979 93.2955 13.3979C107.468 106.65 49.8557 114.754 49.8557 114.754C49.8557 114.754 -7.6991 106.65 6.41595 13.3979C6.41595 13.3979 18.3417 5.23683 49.8557 5.92167Z" fill="#042365"/>
<path fill-rule="evenodd" clip-rule="evenodd" d="M12.6951 65.2754L13.156 66.7021H14.5963L13.3865 67.5582L13.8474 68.9279L12.6951 68.0718L11.4853 68.9279L11.9462 67.5582L10.7363 66.7021H12.2343L12.6951 65.2754Z" fill="white"/>
<path fill-rule="evenodd" clip-rule="evenodd" d="M86.9579 65.2754L86.497 66.7021H85.0566L86.2089 67.5582L85.748 68.9279L86.9579 68.0718L88.1677 68.9279L87.7068 67.5582L88.9167 66.7021H87.4188L86.9579 65.2754Z" fill="white"/>
<path fill-rule="evenodd" clip-rule="evenodd" d="M49.8543 104.426L50.3152 105.795H51.8132L50.6033 106.709L51.0642 108.078L49.8543 107.222L48.7021 108.078L49.1054 106.709L47.9531 105.795H49.3934L49.8543 104.426Z" fill="white"/>
<path fill-rule="evenodd" clip-rule="evenodd" d="M82.9837 32.858H72.7863C72.383 32.858 72.0949 32.5155 72.0949 32.1731C72.0949 31.7736 72.4406 31.4883 72.7863 31.4883H83.7903C83.9631 31.4883 84.1936 31.5453 84.3088 31.7166C84.424 31.8307 84.5392 32.059 84.4816 32.2302C84.4816 32.2302 84.1359 38.7362 80.852 44.329C78.6052 48.1527 75.0908 51.5769 69.4448 52.3759C69.0415 52.433 68.6958 52.1476 68.6382 51.7481C68.5806 51.3486 68.8687 51.0062 69.272 50.9492C75.7245 50.0361 79.1237 45.3563 80.9673 40.9048C82.35 37.5377 82.8109 34.2847 82.9837 32.858Z" fill="white"/>
<path fill-rule="evenodd" clip-rule="evenodd" d="M19.5526 32.858C19.7255 34.2847 20.1864 37.5377 21.569 40.9048C23.4126 45.3563 26.8118 50.0361 33.2644 50.9492C33.6677 51.0062 33.9557 51.3486 33.8981 51.7481C33.8405 52.1476 33.4948 52.433 33.0915 52.3759C27.4455 51.5769 23.8736 48.1527 21.6843 44.329C18.4004 38.6791 18.0547 32.2302 18.0547 32.2302C18.0547 32.059 18.1123 31.8307 18.2275 31.7166C18.3428 31.6024 18.5732 31.4883 18.746 31.4883H29.75C30.1533 31.4883 30.4414 31.8307 30.4414 32.1731C30.4414 32.5726 30.0957 32.858 29.75 32.858H19.5526Z" fill="white"/>
<path fill-rule="evenodd" clip-rule="evenodd" d="M36.0298 25.9531L28.3673 27.437H73.5354C73.5354 27.437 67.7166 26.1814 66.7948 25.9531C66.7372 25.9531 66.622 25.9531 66.5068 25.9531C64.3751 25.9531 36.0298 25.9531 36.0298 25.9531Z" fill="#8BB1BB"/>
<path fill-rule="evenodd" clip-rule="evenodd" d="M48.9359 71.0957C48.9359 71.0957 27.2736 62.421 28.3683 27.4941H73.4788C74.631 62.4781 52.9111 71.0957 52.9111 71.0957H48.9359Z" fill="#8BB1BB"/>
<path fill-rule="evenodd" clip-rule="evenodd" d="M46.0531 71.0957C46.0531 71.0957 24.3908 62.421 25.4854 27.4941H71.8635C73.0157 62.4781 50.086 71.0957 50.086 71.0957H46.0531Z" fill="white"/>
<path fill-rule="evenodd" clip-rule="evenodd" d="M28.7695 32.1738L38.1604 32.8016C38.1604 32.8016 33.8394 44.4439 39.3126 50.6645C39.3126 50.6645 29.4033 51.4064 28.7695 32.1738Z" fill="#DCECF0"/>
<path fill-rule="evenodd" clip-rule="evenodd" d="M64.9503 43.2461L55.329 43.8739C55.329 43.8739 59.7652 55.8015 54.1191 62.1934C54.1191 62.1934 64.2589 62.8782 64.9503 43.2461Z" fill="#DCECF0"/>
<path fill-rule="evenodd" clip-rule="evenodd" d="M49.15 74.5768L54.1623 74.2344C54.2776 75.8323 52.5492 82.6807 55.4874 86.961C58.4256 91.2412 61.94 92.2685 61.94 92.2685C65.7424 93.2958 65.5696 95.1791 65.5696 95.1791C65.8576 98.4892 50.8784 98.2038 49.2076 98.1467C47.5369 98.2038 32.5 98.4892 32.8457 95.1791C32.8457 95.1791 32.6153 93.2958 36.4753 92.2685C36.4753 92.2685 39.9897 91.2412 42.9279 86.961C45.8661 82.6807 44.1378 75.8323 44.253 74.2344L49.15 74.5768Z" fill="white"/>
<path fill-rule="evenodd" clip-rule="evenodd" d="M48.2278 79.7129V96.7198H39.2402C39.2402 96.6627 46.6146 95.5784 48.2278 79.7129Z" fill="#E2E2E2"/>
<path fill-rule="evenodd" clip-rule="evenodd" d="M55.6552 72.8649C55.6552 71.8947 54.8486 71.0957 53.8692 71.0957H44.4208C43.4414 71.0957 42.6348 71.8947 42.6348 72.8649C42.6348 73.8351 43.4414 74.6341 44.4208 74.6341H53.8692C54.8486 74.577 55.6552 73.778 55.6552 72.8649Z" fill="#FD0000"/>
<path fill-rule="evenodd" clip-rule="evenodd" d="M55.6547 72.8363C55.6547 71.875 54.8754 71.0957 53.9141 71.0957H49.0293V74.577H53.9141C54.8754 74.577 55.6547 73.7977 55.6547 72.8363Z" fill="#C3001D"/>
<path d="M41.9271 56.4288V53.0046H39.6802V48.9527H41.4086V49.6946H44.8653V44.8436H41.4086V45.5855H39.6802V41.5336H44.0011V42.2755H47.4579V38.1094H34.207V41.5336H35.3593V53.0046H34.207V56.4288H41.9271Z" fill="#042365"/>
<path d="M62.3797 56.428V51.9195H58.923V53.0609H54.602L62.3221 41.3044V38.2227H48.7832V42.7883H52.1823V41.6469H56.5032L48.7832 53.4033V56.4851H62.3797V56.428Z" fill="#CC0000"/>
<path fill-rule="evenodd" clip-rule="evenodd" d="M66.9664 22.1289C69.6166 22.1289 71.8058 24.2976 71.8058 26.9228C71.8058 29.548 69.6166 31.7167 66.9664 31.7167C64.3162 31.7167 62.127 29.548 62.127 26.9228C62.127 24.2976 64.2586 22.1289 66.9664 22.1289Z" fill="white" stroke="white" stroke-width="0.2" stroke-miterlimit="10" stroke-linecap="round" stroke-linejoin="round"/>
<path fill-rule="evenodd" clip-rule="evenodd" d="M64.3161 28.6913C64.3161 28.6913 63.9705 28.463 63.9128 28.6913C63.9128 28.6913 63.8552 28.8625 63.9704 29.0337C63.9704 29.0337 64.2009 29.6044 64.4313 29.0908L64.3161 28.6913Z" fill="#8BB1BB"/>
<path fill-rule="evenodd" clip-rule="evenodd" d="M63.9128 28.6927C63.9128 28.6356 63.9704 28.6356 63.9704 28.5786C64.0281 28.5215 64.0857 28.5215 64.1433 28.5215C64.2585 28.5215 64.3737 28.6356 64.3737 28.6356C64.3737 28.6356 64.3737 28.6356 64.3737 28.6927L64.5466 29.0922V29.1493C64.489 29.3205 64.3737 29.4346 64.3161 29.4346C64.2585 29.4346 64.2009 29.4346 64.1433 29.3775C64.0857 29.3205 64.0281 29.1493 63.9704 29.1493C63.8552 28.8639 63.8552 28.6927 63.9128 28.6927ZM64.2585 28.7498C64.2009 28.7498 64.1433 28.6927 64.0857 28.6927H64.028C64.028 28.6927 64.028 28.6927 64.028 28.7498C64.028 28.7498 63.9705 28.8639 64.0857 29.0351C64.0857 29.0351 64.1433 29.1493 64.2009 29.2063L64.2585 29.2634H64.3161C64.3161 29.2634 64.3737 29.2634 64.3737 29.2063C64.3737 29.1493 64.4313 29.1493 64.4313 29.0922L64.2585 28.7498Z" fill="#E7E7E7"/>
<path fill-rule="evenodd" clip-rule="evenodd" d="M64.3729 28.6926L70.307 26.7522C70.307 26.7522 71.0559 26.4669 71.2288 27.0946C71.2288 27.0946 71.344 27.6653 70.5375 27.7795L64.4305 29.0921L64.3729 28.6926Z" fill="#8BB1BB"/>
<path fill-rule="evenodd" clip-rule="evenodd" d="M70.3071 26.6957C70.3071 26.6957 70.5376 26.6387 70.7104 26.6387C70.9409 26.6387 71.1713 26.7528 71.2865 27.0952C71.2865 27.0952 71.3441 27.3235 71.1713 27.5518C71.0561 27.6659 70.8832 27.8371 70.5952 27.8371L64.4883 29.1497C64.4883 29.1497 64.4306 29.1497 64.4306 29.0927L64.2578 28.6932C64.2578 28.6932 64.2578 28.6361 64.3154 28.6361H64.373L70.3071 26.6957ZM71.1713 27.1523C71.1137 27.0382 71.0561 26.924 70.9985 26.8669C70.8833 26.7528 70.7104 26.7528 70.5952 26.7528C70.4223 26.7528 70.3071 26.8099 70.3071 26.8099L64.373 28.7503L64.4883 29.0927L70.5376 27.8371C70.8256 27.7801 70.9985 27.6659 71.0561 27.5518C71.2289 27.3235 71.1713 27.1523 71.1713 27.1523Z" fill="#E7E7E7"/>
<path fill-rule="evenodd" clip-rule="evenodd" d="M67.9442 29.6044L63.7385 25.0388C63.7385 25.0388 63.22 24.4111 62.7591 24.9247C62.7591 24.9247 62.4134 25.3813 62.9895 25.8378L67.6562 29.8898L67.9442 29.6044Z" fill="#8BB1BB"/>
<path fill-rule="evenodd" clip-rule="evenodd" d="M62.9902 25.8951C62.7021 25.6668 62.6445 25.4956 62.6445 25.3244C62.6445 25.0961 62.7598 24.8678 62.7598 24.8678C62.9902 24.5825 63.2783 24.6395 63.5087 24.7537C63.6816 24.8678 63.8544 24.9819 63.8544 25.039L68.0601 29.6046L68.1177 29.6617V29.7188L67.772 30.0041H67.7144L62.9902 25.8951ZM67.9449 29.6617L63.7391 25.0961C63.7391 25.0961 63.6815 24.982 63.5663 24.9249C63.4511 24.8678 63.3359 24.8107 63.163 24.8107C63.0478 24.8107 62.9902 24.8678 62.875 24.982C62.875 24.982 62.7598 25.1532 62.7598 25.3244C62.7598 25.4956 62.875 25.6668 63.1054 25.838L67.7144 29.89L67.9449 29.6617Z" fill="#E7E7E7"/>
<path fill-rule="evenodd" clip-rule="evenodd" d="M67.9439 29.6055C67.9439 29.6055 68.3472 29.6055 68.2896 29.7767C68.2896 29.7767 68.2319 29.9479 68.0591 30.062C68.0591 30.062 67.5406 30.4615 67.5982 29.8908L67.9439 29.6055Z" fill="#8BB1BB"/>
<path fill-rule="evenodd" clip-rule="evenodd" d="M68.0615 30.1762C68.0615 30.1762 67.9463 30.2903 67.831 30.2903C67.7734 30.2903 67.7158 30.2903 67.6582 30.2903C67.6006 30.2332 67.543 30.1191 67.543 29.9479C67.543 29.9479 67.543 29.9479 67.543 29.8908L67.8886 29.6055C67.8886 29.6055 67.8886 29.6055 67.9463 29.6055C67.9463 29.6055 68.1191 29.6055 68.2343 29.6625C68.2919 29.6625 68.3495 29.7196 68.3495 29.7767C68.3495 29.8338 68.3495 29.8337 68.3495 29.8908C68.3495 29.8337 68.2919 30.005 68.0615 30.1762ZM67.9463 29.7196L67.6582 29.9479C67.6582 30.005 67.6582 30.062 67.6582 30.1191C67.6582 30.1762 67.6582 30.1762 67.7158 30.1762H67.7734H67.831C67.9463 30.1191 68.0039 30.062 68.0039 30.062C68.1767 29.9479 68.1767 29.8338 68.1767 29.8338V29.7767L68.1191 29.7196C68.1191 29.7196 68.0039 29.7196 67.9463 29.7196Z" fill="#E7E7E7"/>
<path fill-rule="evenodd" clip-rule="evenodd" d="M67.5989 23.8431C68.5207 24.0713 69.0968 25.0415 68.8087 25.9546C68.5783 26.8678 67.5989 27.4385 66.6771 27.1531C65.7553 26.8678 65.1791 25.9546 65.4672 25.0415C65.6976 24.1284 66.6771 23.6148 67.5989 23.8431Z" fill="#8BB1BB"/>
<path fill-rule="evenodd" clip-rule="evenodd" d="M66.5629 23.8993C66.5629 23.8993 67.0814 25.1548 68.8674 25.269C68.925 25.269 68.925 25.269 68.925 25.2119C68.925 25.1548 68.925 25.1548 68.8674 25.1548C67.1391 25.0407 66.6782 23.8422 66.6782 23.8422C66.6782 23.7852 66.6205 23.7852 66.6205 23.7852C66.5629 23.8422 66.5053 23.8422 66.5629 23.8993Z" fill="white"/>
<path fill-rule="evenodd" clip-rule="evenodd" d="M67.7723 27.0939C67.7723 27.0939 67.2537 25.8383 65.4678 25.7812C65.4101 25.7812 65.4102 25.7813 65.4102 25.8383C65.4102 25.8954 65.4101 25.8954 65.4678 25.8954C67.1385 25.9525 67.6571 27.1509 67.6571 27.1509C67.6571 27.208 67.7147 27.208 67.7147 27.208C67.7147 27.1509 67.7723 27.1509 67.7723 27.0939Z" fill="white"/>
<path fill-rule="evenodd" clip-rule="evenodd" d="M67.5995 23.7847C66.6777 23.5564 65.6983 24.1271 65.4102 25.0402C65.1797 25.9534 65.7559 26.9236 66.6777 27.2089C67.5995 27.4372 68.5789 26.8665 68.8669 25.9534C69.0974 24.9832 68.5213 24.0701 67.5995 23.7847ZM67.5995 23.8418C68.5213 24.0701 69.0398 24.9832 68.8093 25.8963C68.5789 26.8094 67.6571 27.3231 66.7353 27.0948C65.8135 26.8665 65.295 25.9534 65.5254 25.0402C65.7559 24.1842 66.6777 23.6135 67.5995 23.8418Z" fill="#E7E7E7"/>
<path fill-rule="evenodd" clip-rule="evenodd" d="M66.6758 24.5269L67.0791 24.1844C67.0791 24.1844 67.0791 24.1274 67.0791 24.0703C67.0791 24.0703 67.0215 24.0703 66.9638 24.0703L66.5605 24.4127V24.4698C66.6182 24.5269 66.6758 24.5269 66.6758 24.5269Z" fill="white"/>
<path fill-rule="evenodd" clip-rule="evenodd" d="M67.5422 26.4672L67.1389 26.8096C67.1389 26.8096 67.0813 26.8667 67.1389 26.9237H67.1965L67.5998 26.5813V26.5242C67.6574 26.4101 67.5998 26.4101 67.5422 26.4672Z" fill="white"/>
<path fill-rule="evenodd" clip-rule="evenodd" d="M67.0224 24.8706L67.3681 24.4711V24.4141H67.3105L66.9648 24.8135V24.8706C66.9648 24.9277 67.0224 24.9277 67.0224 24.8706Z" fill="white"/>
<path fill-rule="evenodd" clip-rule="evenodd" d="M67.1951 26.125L66.8495 26.5245V26.5816C66.8495 26.5816 66.9071 26.5816 66.9647 26.5816L67.3104 26.1821V26.125C67.3104 26.125 67.2528 26.125 67.1951 26.125Z" fill="white"/>
<path fill-rule="evenodd" clip-rule="evenodd" d="M68.0019 25.3832L68.1172 24.8696C68.1172 24.8125 68.1172 24.8125 68.0595 24.8125C68.0019 24.8125 68.0019 24.8125 68.0019 24.8696L67.8867 25.3832C67.8867 25.4403 67.8867 25.4403 67.9444 25.4403C67.9444 25.4403 67.9443 25.3832 68.0019 25.3832Z" fill="white"/>
<path fill-rule="evenodd" clip-rule="evenodd" d="M66.2734 25.725L66.1582 26.2387C66.1582 26.2957 66.1582 26.2957 66.2158 26.2957C66.2734 26.2957 66.2734 26.2957 66.2734 26.2387L66.3887 25.725C66.3887 25.668 66.3886 25.668 66.331 25.668C66.2734 25.668 66.2734 25.668 66.2734 25.725Z" fill="white"/>
<path fill-rule="evenodd" clip-rule="evenodd" d="M67.4834 25.1543L67.7138 24.6977C67.7138 24.6406 67.7138 24.6406 67.7138 24.6406C67.6562 24.6406 67.6562 24.6406 67.6562 24.6406L67.4258 25.0972C67.4258 25.1542 67.4258 25.1543 67.4258 25.1543C67.4258 25.2113 67.4834 25.2113 67.4834 25.1543Z" fill="white"/>
<path fill-rule="evenodd" clip-rule="evenodd" d="M66.7343 25.8963L66.5039 26.3529C66.5039 26.41 66.5039 26.41 66.5039 26.41C66.5615 26.41 66.5615 26.41 66.5615 26.41L66.792 25.9534C66.792 25.8963 66.792 25.8963 66.792 25.8963C66.792 25.8392 66.7919 25.8392 66.7343 25.8963Z" fill="white"/>
<path fill-rule="evenodd" clip-rule="evenodd" d="M68.4043 25.4965L68.4619 24.9829C68.4619 24.9258 68.4619 24.9258 68.4043 24.9258C68.3467 24.9258 68.3467 24.9258 68.3467 24.9829L68.2891 25.4965C68.2891 25.5536 68.289 25.5536 68.3467 25.5536L68.4043 25.4965Z" fill="white"/>
<path fill-rule="evenodd" clip-rule="evenodd" d="M65.8701 25.6684L65.8125 26.182C65.8125 26.2391 65.8125 26.2391 65.8701 26.2391C65.9277 26.2391 65.9277 26.2391 65.9277 26.182L65.9853 25.6684C65.9853 25.6113 65.9853 25.6113 65.9277 25.6113C65.8701 25.6113 65.8701 25.6113 65.8701 25.6684Z" fill="white"/>
<path fill-rule="evenodd" clip-rule="evenodd" d="M54.6949 21.1602C57.3451 21.1602 59.5344 23.3288 59.5344 25.954C59.5344 28.5793 57.3451 30.7479 54.6949 30.7479C52.0448 30.7479 49.8555 28.5793 49.8555 25.954C49.8555 23.3288 52.0448 21.1602 54.6949 21.1602Z" fill="white" stroke="white" stroke-width="0.2" stroke-miterlimit="10" stroke-linecap="round" stroke-linejoin="round"/>
<path fill-rule="evenodd" clip-rule="evenodd" d="M54.6941 22.1309C56.7105 22.1309 58.3236 23.7288 58.3236 25.7263C58.3236 27.7237 56.7105 29.3217 54.6941 29.3217C52.6776 29.3217 51.0645 27.7237 51.0645 25.7263C51.0645 23.7288 52.6776 22.1309 54.6941 22.1309Z" fill="#8BB1BB"/>
<path fill-rule="evenodd" clip-rule="evenodd" d="M53.8866 24.0723L55.0388 25.2707L54.2322 26.6975L52.6191 26.3551L52.3887 24.7571L53.8866 24.0723Z" fill="white"/>
<path fill-rule="evenodd" clip-rule="evenodd" d="M56.4805 25.2709L57.1718 23.7871L58.785 23.9583L59.1306 25.5563L57.748 26.3553L56.4805 25.2709Z" fill="white"/>
<path fill-rule="evenodd" clip-rule="evenodd" d="M54.4062 29.3237L55.0976 27.8398L56.7107 28.011L57.0564 29.609L55.6161 30.4651L54.4062 29.3237Z" fill="white"/>
<path fill-rule="evenodd" clip-rule="evenodd" d="M49.9121 28.5229L50.5459 27.0391L52.2166 27.2103L52.5623 28.8082L51.122 29.6072L49.9121 28.5229Z" fill="white"/>
<path fill-rule="evenodd" clip-rule="evenodd" d="M53.9453 24.2425L54.4062 22.7016L54.291 22.6445L53.8301 24.1854L53.9453 24.2425Z" fill="white"/>
<path fill-rule="evenodd" clip-rule="evenodd" d="M57.286 23.8439L55.8457 22.5312L55.7305 22.6454L57.1708 23.958L57.286 23.8439Z" fill="white"/>
<path fill-rule="evenodd" clip-rule="evenodd" d="M56.8836 25.1562L54.8672 25.2704V25.3845L56.8836 25.3275V25.1562Z" fill="white"/>
<path fill-rule="evenodd" clip-rule="evenodd" d="M57.6894 26.0703L56.5371 28.0107L56.71 28.1248L57.9198 26.1844L57.6894 26.0703Z" fill="white"/>
<path fill-rule="evenodd" clip-rule="evenodd" d="M54.0039 26.3563L55.0985 28.1255L55.2714 28.0114L54.1191 26.2422L54.0039 26.3563Z" fill="white"/>
<path fill-rule="evenodd" clip-rule="evenodd" d="M52.9091 25.7266L51.9297 27.5528L52.0449 27.6099L53.0819 25.7836L52.9091 25.7266Z" fill="white"/>
<path fill-rule="evenodd" clip-rule="evenodd" d="M50.8906 23.786L52.6766 24.9274L52.7342 24.8133L51.0059 23.6719L50.8906 23.786Z" fill="white"/>
<path fill-rule="evenodd" clip-rule="evenodd" d="M54.6931 22.0742C52.6766 22.0742 51.0059 23.7292 51.0059 25.7267C51.0059 27.7242 52.6766 29.3792 54.6931 29.3792C56.7095 29.3792 58.3802 27.7242 58.3802 25.7267C58.4379 23.6722 56.7671 22.0742 54.6931 22.0742ZM54.6931 22.1883C56.6519 22.1883 58.265 23.7863 58.265 25.7267C58.265 27.6671 56.6519 29.2651 54.6931 29.2651C52.7342 29.2651 51.1211 27.6671 51.1211 25.7267C51.1787 23.7863 52.7342 22.1883 54.6931 22.1883Z" fill="#E7E7E7"/>
<path fill-rule="evenodd" clip-rule="evenodd" d="M42.6539 21.1602C45.3041 21.1602 47.4934 23.3288 47.4934 25.954C47.4934 28.5793 45.3041 30.7479 42.6539 30.7479C40.0037 30.7479 37.8145 28.5793 37.8145 25.954C37.8145 23.3288 39.9461 21.1602 42.6539 21.1602Z" fill="white" stroke="white" stroke-width="0.2" stroke-miterlimit="10" stroke-linecap="round" stroke-linejoin="round"/>
<path fill-rule="evenodd" clip-rule="evenodd" d="M42.653 22.1309C44.6695 22.1309 46.2826 23.7288 46.2826 25.7263C46.2826 27.7237 44.6695 29.3217 42.653 29.3217C40.6366 29.3217 39.0234 27.7237 39.0234 25.7263C39.0234 23.7288 40.6366 22.1309 42.653 22.1309Z" fill="#8BB1BB"/>
<path fill-rule="evenodd" clip-rule="evenodd" d="M39.9463 23.4442C39.9463 23.4442 41.7899 23.7296 42.6541 25.1563C43.2302 26.0694 43.403 27.4962 42.2508 29.6649V29.7219L42.366 29.779V29.7219C43.5182 27.4962 43.3454 26.0694 42.7693 25.0993C41.8475 23.6725 39.9463 23.3301 39.9463 23.3301H39.8887V23.4442H39.9463Z" fill="white"/>
<path fill-rule="evenodd" clip-rule="evenodd" d="M41.2137 22.1879C41.2137 22.1879 42.2507 22.3021 43.1149 23.3864C43.9791 24.4137 44.6705 26.4111 43.9215 30.1207V30.1777H44.0367V30.1207C44.7857 26.4111 44.0943 24.3566 43.2302 23.3293C42.3084 22.245 41.2137 22.1309 41.2137 22.1309H41.1561V22.245L41.2137 22.1879Z" fill="white"/>
<path fill-rule="evenodd" clip-rule="evenodd" d="M45.1881 22.7016C45.1881 22.7016 44.8424 23.843 45.0152 25.0415C45.1304 25.8404 45.4761 26.6394 46.3403 27.1531L46.3979 27.2101L46.4555 27.096L46.3979 27.0389C45.5913 26.5824 45.2456 25.7834 45.1304 25.0415C44.9576 23.9001 45.3033 22.7587 45.3033 22.7587V22.7016L45.1881 22.6445V22.7016Z" fill="white"/>
<path fill-rule="evenodd" clip-rule="evenodd" d="M39.2549 27.1535C39.2549 27.1535 41.6746 24.5283 46.2836 24.9848H46.3412V24.8707H46.2836C41.617 24.4141 39.1397 27.0964 39.1397 27.0964L39.082 27.1535H39.2549Z" fill="white"/>
<path fill-rule="evenodd" clip-rule="evenodd" d="M42.654 22.0742C40.58 22.0742 38.9668 23.7293 38.9668 25.7838C38.9668 27.8383 40.6376 29.4933 42.654 29.4933C44.7281 29.4933 46.3988 27.8383 46.3988 25.7838C46.3412 23.7293 44.6704 22.0742 42.654 22.0742ZM42.654 22.1883C44.6128 22.1883 46.226 23.7863 46.226 25.7267C46.226 27.6671 44.6128 29.265 42.654 29.265C40.6952 29.265 39.082 27.6671 39.082 25.7267C39.082 23.7863 40.6952 22.1883 42.654 22.1883Z" fill="#E7E7E7"/>
<path fill-rule="evenodd" clip-rule="evenodd" d="M31.5348 22.1875C34.1849 22.1875 36.3742 24.3562 36.3742 26.9814C36.3742 29.6066 34.1849 31.7753 31.5348 31.7753C28.8846 31.7753 26.6953 29.6066 26.6953 26.9814C26.6953 24.3562 28.827 22.1875 31.5348 22.1875Z" fill="white" stroke="white" stroke-width="0.2" stroke-miterlimit="10" stroke-linecap="round" stroke-linejoin="round"/>
<path fill-rule="evenodd" clip-rule="evenodd" d="M31.1323 25.0991C31.3051 24.9849 31.4779 24.9849 31.6508 25.1562L35.7989 28.5233C35.7989 28.5233 36.2022 28.7516 35.8565 29.094L35.1651 29.95C35.1651 29.95 34.8771 30.2925 34.589 30.0071L30.3833 26.5829C30.3833 26.5829 30.0952 26.3546 30.3257 26.0693C30.5561 25.841 31.1323 25.0991 31.1323 25.0991Z" fill="#8BB1BB"/>
<path fill-rule="evenodd" clip-rule="evenodd" d="M34.5309 30.0637L30.3252 26.6395C30.3252 26.6395 30.1523 26.5254 30.1523 26.3541C30.1523 26.2971 30.1524 26.1829 30.2676 26.0688C30.498 25.7834 31.0741 25.0986 31.0741 25.0986C31.247 24.9274 31.4774 24.9274 31.7079 25.1557L35.856 28.5228C35.9136 28.5228 36.0864 28.694 36.0864 28.8652C36.0864 28.9794 36.0288 29.0935 35.9136 29.2077L35.2222 30.0637C35.2222 30.0637 35.0494 30.2349 34.8766 30.2349C34.7613 30.1778 34.6461 30.1208 34.5309 30.0637ZM31.1894 25.1557C31.1318 25.2127 30.6133 25.8976 30.3828 26.1259C30.3252 26.1829 30.3252 26.24 30.3252 26.2971C30.3252 26.4112 30.4404 26.5254 30.4404 26.5254L34.6461 29.9496C34.7037 30.0066 34.819 30.0637 34.8766 30.0637C35.0494 30.0637 35.1646 29.8925 35.1646 29.8925L35.856 29.0364C35.9136 28.9223 35.9712 28.8652 35.9712 28.8082C35.9712 28.6369 35.7984 28.5228 35.7984 28.5228L31.6503 25.1557C31.4774 25.0415 31.3046 25.0415 31.1894 25.1557Z" fill="#E7E7E7"/>
<path fill-rule="evenodd" clip-rule="evenodd" d="M30.9591 25.3267L29.2883 23.957L28.885 24.4707L30.5558 25.8403L30.9591 25.3267Z" fill="#8BB1BB"/>
<path fill-rule="evenodd" clip-rule="evenodd" d="M30.1523 24.6977L30.2676 25.782C30.2676 25.8391 30.3252 25.8391 30.3252 25.8391C30.3828 25.8391 30.3828 25.782 30.3828 25.782L30.2676 24.6977C30.2676 24.6406 30.21 24.6406 30.21 24.6406C30.21 24.6406 30.1523 24.6406 30.1523 24.6977Z" fill="white"/>
<path fill-rule="evenodd" clip-rule="evenodd" d="M29.8652 24.4125L29.9805 25.4969C29.9805 25.5539 30.0381 25.5539 30.0381 25.5539C30.0957 25.5539 30.0957 25.4969 30.0957 25.4969L29.9805 24.4125C29.9805 24.3555 29.9228 24.3555 29.9228 24.3555C29.8652 24.3555 29.8652 24.3555 29.8652 24.4125Z" fill="white"/>
<path fill-rule="evenodd" clip-rule="evenodd" d="M29.5195 24.0707L29.6347 25.1551C29.6347 25.2121 29.6924 25.2121 29.6924 25.2121C29.75 25.2121 29.75 25.1551 29.75 25.1551L29.6347 24.0707C29.6347 24.0137 29.5771 24.0137 29.5771 24.0137C29.5195 24.0137 29.5195 24.0707 29.5195 24.0707Z" fill="white"/>
<path fill-rule="evenodd" clip-rule="evenodd" d="M31.074 25.3252C31.074 25.3252 31.074 25.2681 31.074 25.2111L29.4033 23.8984C29.4033 23.8984 29.3457 23.8984 29.288 23.8984L28.8848 24.4121C28.8848 24.4121 28.8848 24.4691 28.8848 24.5262L30.5555 25.8388H30.6131H30.6708L31.074 25.3252ZM29 24.4691L30.5555 25.7247L30.9012 25.3252L29.3457 24.0697L29 24.4691Z" fill="#E7E7E7"/>
<path fill-rule="evenodd" clip-rule="evenodd" d="M28.3674 24.4135C28.3674 24.4135 28.3098 24.3565 28.3674 24.2994L29.0587 23.4433C29.0587 23.4433 29.1164 23.3863 29.174 23.4433L29.5197 23.7287C29.5197 23.7287 29.5773 23.7858 29.5197 23.8428L28.8283 24.6989C28.8283 24.6989 28.7707 24.756 28.7131 24.6989L28.3674 24.4135Z" fill="#8BB1BB"/>
<path fill-rule="evenodd" clip-rule="evenodd" d="M28.3088 24.4704L28.6545 24.7558C28.7121 24.8129 28.7697 24.8129 28.8273 24.7558L29.5187 23.8997C29.5763 23.8427 29.5763 23.7856 29.5187 23.7285L29.173 23.4432C29.1154 23.3861 29.0578 23.3861 29.0002 23.4432L28.3088 24.2992C28.2512 24.3563 28.2512 24.4134 28.3088 24.4704ZM28.424 24.3563L28.7697 24.6417L29.4611 23.7856L29.1154 23.5003L28.424 24.3563Z" fill="#E7E7E7"/>
<path fill-rule="evenodd" clip-rule="evenodd" d="M33.2639 27.7229C32.4573 27.6087 31.6507 28.1224 31.5355 28.9213C31.4203 29.7203 31.9388 30.5193 32.7454 30.6334C33.5519 30.7476 34.3585 30.2339 34.4737 29.435C34.6466 28.636 34.0705 27.837 33.2639 27.7229Z" fill="#8BB1BB"/>
<path fill-rule="evenodd" clip-rule="evenodd" d="M34.3018 30.1222C34.3018 30.1222 34.3018 30.0651 34.2442 30.0081C34.2442 30.0081 34.1866 29.951 34.129 30.0081C34.0714 30.0651 34.0714 30.0651 34.129 30.1222C34.1866 30.1793 34.1866 30.2363 34.1866 30.2363L34.3018 30.1222ZM34.0714 29.8369C34.0714 29.7798 34.0138 29.7798 34.0138 29.7227C34.0138 29.7227 33.9562 29.6656 33.8985 29.7227C33.8985 29.7227 33.8409 29.7798 33.8985 29.8369C33.8985 29.8939 33.9562 29.8939 33.9562 29.951C33.9562 29.951 34.0138 30.0081 34.0714 29.951C34.0714 29.8939 34.0714 29.8369 34.0714 29.8369ZM33.8409 29.5515C33.8409 29.4944 33.7833 29.4944 33.7833 29.4374C33.7833 29.4374 33.7257 29.3803 33.7257 29.4374C33.7257 29.4374 33.6681 29.4944 33.7257 29.4944C33.7257 29.5515 33.7833 29.5515 33.7833 29.6086C33.7833 29.6086 33.8409 29.6656 33.8985 29.6086C33.8985 29.6086 33.8986 29.5515 33.8409 29.5515ZM33.6681 29.2091C33.6681 29.152 33.6105 29.152 33.6105 29.0949C33.6105 29.0949 33.5529 29.0379 33.4953 29.0949C33.4953 29.0949 33.4376 29.152 33.4953 29.2091C33.4953 29.2661 33.5529 29.2661 33.5529 29.3232C33.5529 29.3232 33.6105 29.3803 33.6105 29.3232C33.6681 29.2661 33.6681 29.2661 33.6681 29.2091ZM33.4376 28.9237C33.4376 28.8667 33.38 28.8667 33.38 28.8096C33.38 28.8096 33.3224 28.7525 33.2648 28.8096C33.2648 28.8096 33.2072 28.8667 33.2648 28.9237C33.2648 28.9808 33.3224 28.9808 33.3224 29.0379C33.3224 29.0379 33.38 29.0949 33.4376 29.0379C33.4376 28.9808 33.4376 28.9237 33.4376 28.9237ZM33.2072 28.6384C33.2072 28.5813 33.1496 28.5813 33.1496 28.5242C33.1496 28.5242 33.092 28.4672 33.0344 28.5242C33.0344 28.5242 32.9767 28.5813 33.0344 28.6384C33.0344 28.6954 33.092 28.6954 33.092 28.7525C33.092 28.7525 33.1496 28.8096 33.2072 28.7525C33.2072 28.6954 33.2072 28.6384 33.2072 28.6384ZM32.9768 28.296C32.9768 28.2389 32.9191 28.2389 32.9191 28.1818C32.9191 28.1818 32.8615 28.1247 32.8039 28.1818C32.8039 28.1818 32.7463 28.2389 32.8039 28.296C32.8039 28.353 32.8615 28.353 32.8615 28.4101C32.8615 28.4101 32.9191 28.4672 32.9768 28.4101C33.0344 28.353 33.0344 28.353 32.9768 28.296ZM32.8039 28.0106C32.8039 27.9535 32.7463 27.9535 32.7463 27.8965C32.7463 27.8965 32.6887 27.8394 32.6311 27.8965C32.6311 27.8965 32.5735 27.9535 32.6311 28.0106C32.6311 28.0677 32.6887 28.0677 32.6887 28.1248C32.6887 28.1248 32.7463 28.1818 32.8039 28.1248C32.8039 28.0677 32.8039 28.0677 32.8039 28.0106Z" fill="white"/>
<path fill-rule="evenodd" clip-rule="evenodd" d="M33.7833 30.576L31.9397 28.0078L33.7833 30.576ZM33.8409 30.576C33.8409 30.576 33.8409 30.5189 33.7833 30.4618C33.7833 30.4618 33.7257 30.4047 33.668 30.4618C33.668 30.4618 33.6104 30.5189 33.668 30.576C33.7257 30.633 33.7257 30.6901 33.7257 30.6901L33.8409 30.576ZM33.6104 30.2335C33.6104 30.1765 33.5528 30.1765 33.5528 30.1194C33.5528 30.1194 33.4952 30.0623 33.4376 30.1194C33.4376 30.1194 33.38 30.1765 33.4376 30.2335C33.4376 30.2906 33.4952 30.2906 33.4952 30.3477C33.4952 30.3477 33.5528 30.4048 33.6104 30.3477C33.668 30.3477 33.668 30.2906 33.6104 30.2335ZM33.4376 29.9482C33.4376 29.8911 33.38 29.8911 33.38 29.8341C33.38 29.8341 33.3224 29.777 33.2648 29.8341C33.2648 29.8341 33.2072 29.8911 33.2648 29.9482C33.2648 30.0053 33.3224 30.0053 33.3224 30.0623C33.3224 30.0623 33.38 30.1194 33.4376 30.0623C33.4376 30.0053 33.4376 30.0053 33.4376 29.9482ZM33.2072 29.6628C33.2072 29.6058 33.1495 29.6058 33.1495 29.5487C33.1495 29.5487 33.0919 29.4916 33.0343 29.5487C33.0343 29.5487 32.9767 29.6058 33.0343 29.6628C33.0343 29.7199 33.0919 29.7199 33.0919 29.777C33.0919 29.777 33.1495 29.8341 33.2072 29.777C33.2072 29.7199 33.2072 29.6628 33.2072 29.6628ZM32.9767 29.3775C32.9767 29.3204 32.9191 29.3204 32.9191 29.2634C32.9191 29.2634 32.8615 29.2063 32.8039 29.2634C32.8039 29.2634 32.7462 29.3204 32.8039 29.3775C32.8039 29.4346 32.8615 29.4346 32.8615 29.4916C32.8615 29.4916 32.9191 29.5487 32.9767 29.4916C32.9767 29.4346 32.9767 29.3775 32.9767 29.3775ZM32.7462 29.0351C32.7462 28.978 32.6886 28.978 32.6886 28.9209C32.6886 28.9209 32.631 28.8639 32.5734 28.9209C32.5734 28.9209 32.5158 28.978 32.5734 29.0351C32.5734 29.0921 32.631 29.0921 32.631 29.1492C32.631 29.1492 32.6886 29.2063 32.7462 29.1492C32.7462 29.1492 32.8039 29.0921 32.7462 29.0351ZM32.5158 28.7497C32.5158 28.6926 32.4582 28.6927 32.4582 28.6356C32.4582 28.6356 32.4006 28.5785 32.343 28.6356C32.343 28.6356 32.2854 28.6926 32.343 28.7497C32.343 28.8068 32.4006 28.8068 32.4006 28.8639C32.4006 28.8639 32.4582 28.9209 32.5158 28.8639C32.5734 28.8068 32.5734 28.8068 32.5158 28.7497ZM32.343 28.4644C32.343 28.4073 32.2853 28.4073 32.2853 28.3502C32.2853 28.3502 32.2277 28.2932 32.1701 28.3502C32.1701 28.3502 32.1125 28.4073 32.1701 28.4644C32.1701 28.5214 32.2277 28.5214 32.2277 28.5785C32.2277 28.5785 32.2854 28.6356 32.343 28.5785C32.343 28.5214 32.343 28.4644 32.343 28.4644ZM32.1125 28.179C32.0549 28.1219 32.0549 28.122 32.0549 28.0649C32.0549 28.0649 31.9973 28.0078 31.9397 28.0649C31.9397 28.0649 31.8821 28.1219 31.9397 28.179C31.9397 28.179 31.9973 28.2361 31.9973 28.2932C31.9973 28.2932 32.0549 28.3502 32.1125 28.2932C32.1125 28.2361 32.1125 28.179 32.1125 28.179Z" fill="white"/>
<path fill-rule="evenodd" clip-rule="evenodd" d="M34.0702 30.2915L32.3418 27.8945L34.0702 30.2915ZM34.1278 30.2344C34.1278 30.2344 34.1278 30.1773 34.0702 30.1203C34.0702 30.1203 34.0125 30.0632 33.9549 30.1203C33.9549 30.1203 33.8973 30.1773 33.9549 30.2344C34.0125 30.2915 34.0126 30.3486 34.0126 30.3486L34.1278 30.2344ZM33.8973 29.9491C33.8973 29.892 33.8397 29.892 33.8397 29.8349C33.8397 29.8349 33.7821 29.7779 33.7245 29.8349C33.7245 29.8349 33.6669 29.892 33.7245 29.9491C33.7245 30.0061 33.7821 30.0061 33.7821 30.0632C33.7821 30.0632 33.8397 30.1203 33.8973 30.0632C33.8973 30.0061 33.9549 30.0061 33.8973 29.9491ZM33.6669 29.6637C33.6669 29.6066 33.6093 29.6066 33.6093 29.5496C33.6093 29.5496 33.5517 29.4925 33.5517 29.5496C33.5517 29.5496 33.494 29.6066 33.5517 29.6637C33.5517 29.7208 33.6093 29.7208 33.6093 29.7779C33.6093 29.7779 33.6669 29.8349 33.7245 29.7779C33.7245 29.7208 33.7245 29.6637 33.6669 29.6637ZM33.494 29.3213C33.494 29.2642 33.4364 29.2642 33.4364 29.2072C33.4364 29.2072 33.3788 29.1501 33.3212 29.2072C33.3212 29.2072 33.2636 29.2642 33.3212 29.3213C33.3212 29.3784 33.3788 29.3784 33.3788 29.4354C33.3788 29.4354 33.4364 29.4925 33.494 29.4354C33.494 29.4354 33.494 29.3784 33.494 29.3213ZM33.2636 29.0359C33.2636 28.9789 33.206 28.9789 33.206 28.9218C33.206 28.9218 33.1484 28.8647 33.0908 28.9218C33.0908 28.9218 33.0331 28.9789 33.0908 28.9789C33.0908 29.0359 33.1484 29.0359 33.1484 29.093C33.1484 29.093 33.206 29.1501 33.2636 29.093C33.2636 29.093 33.2636 29.093 33.2636 29.0359ZM33.0331 28.7506C33.0331 28.6935 32.9755 28.6935 32.9755 28.6365C32.9755 28.6365 32.9179 28.5794 32.8603 28.6365C32.8603 28.6365 32.8027 28.6935 32.8603 28.7506C32.8603 28.8077 32.9179 28.8077 32.9179 28.8647C32.9179 28.8647 32.9755 28.9218 33.0331 28.8647C33.0331 28.8077 33.0907 28.7506 33.0331 28.7506ZM32.8027 28.4652C32.8027 28.4082 32.7451 28.4082 32.7451 28.3511C32.7451 28.3511 32.6875 28.294 32.6299 28.3511C32.6299 28.3511 32.5722 28.4082 32.6299 28.4652C32.6299 28.5223 32.6875 28.5223 32.6875 28.5794C32.6875 28.5794 32.7451 28.6364 32.8027 28.5794C32.8603 28.5223 32.8603 28.4652 32.8027 28.4652ZM32.6299 28.1228C32.6299 28.0658 32.5722 28.0657 32.5722 28.0087C32.5722 28.0087 32.5146 27.9516 32.5146 28.0087C32.5146 28.0087 32.457 28.0658 32.5146 28.1228C32.5146 28.1799 32.5722 28.1799 32.5722 28.237C32.5722 28.237 32.6299 28.294 32.6875 28.237C32.6299 28.1799 32.6299 28.1799 32.6299 28.1228Z" fill="white"/>
<path fill-rule="evenodd" clip-rule="evenodd" d="M33.5526 30.6352L31.8242 28.2383L33.5526 30.6352ZM33.6102 30.6352C33.6102 30.6352 33.6102 30.5782 33.5526 30.5211C33.5526 30.5211 33.495 30.464 33.4374 30.5211C33.4374 30.5211 33.3798 30.5782 33.4374 30.6352C33.495 30.6923 33.495 30.7494 33.495 30.7494L33.6102 30.6352ZM33.4374 30.3499C33.4374 30.2928 33.3797 30.2928 33.3797 30.2357C33.3797 30.2357 33.3221 30.1787 33.2645 30.2357C33.2645 30.2357 33.2069 30.2928 33.2645 30.3499C33.2645 30.407 33.3221 30.4069 33.3221 30.464C33.3221 30.464 33.3798 30.5211 33.4374 30.464C33.4374 30.4069 33.4374 30.3499 33.4374 30.3499ZM33.2069 30.0075C33.2069 29.9504 33.1493 29.9504 33.1493 29.8933C33.1493 29.8933 33.0917 29.8362 33.0341 29.8933C33.0341 29.8933 32.9765 29.9504 33.0341 30.0075C33.0341 30.0645 33.0917 30.0645 33.0917 30.1216C33.0917 30.1216 33.1493 30.1787 33.2069 30.1216C33.2069 30.0645 33.2069 30.0645 33.2069 30.0075ZM32.9765 29.7221C32.9765 29.665 32.9189 29.665 32.9189 29.608C32.9189 29.608 32.8612 29.5509 32.8036 29.608C32.8036 29.608 32.746 29.665 32.8036 29.7221C32.8036 29.7792 32.8612 29.7792 32.8612 29.8363C32.8612 29.8363 32.9189 29.8933 32.9765 29.8363C32.9765 29.7792 32.9765 29.7221 32.9765 29.7221ZM32.746 29.4368C32.746 29.3797 32.6884 29.3797 32.6884 29.3226C32.6884 29.3226 32.6308 29.2655 32.5732 29.3226C32.5732 29.3226 32.5156 29.3797 32.5732 29.4368C32.5732 29.4938 32.6308 29.4938 32.6308 29.5509C32.6308 29.5509 32.6884 29.608 32.746 29.5509C32.8036 29.4938 32.8036 29.4368 32.746 29.4368ZM32.5732 29.0943C32.5732 29.0373 32.5156 29.0373 32.5156 28.9802C32.5156 28.9802 32.458 28.9231 32.4003 28.9802C32.4003 28.9802 32.3427 29.0373 32.4003 29.0943C32.4003 29.1514 32.4579 29.1514 32.4579 29.2085C32.4579 29.2085 32.5156 29.2656 32.5732 29.2085C32.5732 29.1514 32.5732 29.1514 32.5732 29.0943ZM32.3427 28.809C32.3427 28.7519 32.2851 28.7519 32.2851 28.6949C32.2851 28.6949 32.2275 28.6378 32.1699 28.6949C32.1699 28.6949 32.1123 28.7519 32.1699 28.809C32.1699 28.8661 32.2275 28.8661 32.2275 28.9231C32.2275 28.9231 32.2851 28.9802 32.3427 28.9231C32.3427 28.8661 32.3427 28.809 32.3427 28.809ZM32.1123 28.5236C32.1123 28.4666 32.0547 28.4666 32.0547 28.4095C32.0547 28.4095 31.997 28.3524 31.9394 28.4095C31.9394 28.4095 31.8818 28.4666 31.9394 28.5236C31.9394 28.5807 31.997 28.5807 31.997 28.6378C31.997 28.6378 32.0547 28.6948 32.1123 28.6378C32.1123 28.5807 32.1123 28.5236 32.1123 28.5236Z" fill="white"/>
<path fill-rule="evenodd" clip-rule="evenodd" d="M34.0135 30.4631L32.1123 27.8379L32.0547 27.952L33.9559 30.5772L34.0135 30.4631Z" fill="white"/>
<path fill-rule="evenodd" clip-rule="evenodd" d="M33.2639 27.6671C32.3997 27.4959 31.5932 28.0666 31.4779 28.9226C31.3051 29.7787 31.8812 30.5777 32.7454 30.6918C33.6096 30.863 34.4162 30.2923 34.5314 29.4363C34.7042 28.5802 34.1281 27.7812 33.2639 27.6671ZM33.2639 27.7812C34.0705 27.8954 34.589 28.6373 34.4738 29.4363C34.3585 30.2352 33.6096 30.7489 32.803 30.6347C31.9964 30.5206 31.4779 29.7787 31.5931 28.9797C31.7084 28.1807 32.4573 27.61 33.2639 27.7812Z" fill="#E7E7E7"/>
<path fill-rule="evenodd" clip-rule="evenodd" d="M96.6368 80.5707C65.9294 75.6056 34.7034 75.891 3.07422 80.5707V102.371C34.7034 97.2923 65.8718 97.2352 96.6368 102.371V80.5707Z" fill="#8BB1BB"/>
<path fill-rule="evenodd" clip-rule="evenodd" d="M95.5999 81.4272C65.5838 76.9187 35.0492 77.147 4.11133 81.4272V101.173C35.0492 96.5508 65.5262 96.5508 95.5999 101.173V81.4272Z" fill="#EDEDED"/>
<path fill-rule="evenodd" clip-rule="evenodd" d="M94.4477 82.2823C65.1806 78.2874 35.4526 78.5157 5.26367 82.2823V99.6887C35.395 95.6367 65.123 95.5796 94.4477 99.6887V82.2823Z" fill="#042365"/>
<path d="M15.0005 86.5046L11.5437 87.0182L11.947 89.6434L14.9429 89.1869L15.2309 91.3555L12.2927 91.8121L12.984 96.5489L10.7948 96.8913L9.06641 85.192L14.7124 84.3359L15.0005 86.5046Z" fill="white"/>
<path d="M22.0298 95.4072L21.2232 92.8391L18.9187 93.0674L18.6883 95.7497L16.4414 95.9779L17.4784 83.9362L20.5895 83.5938L24.2767 95.0648L22.0298 95.4072ZM20.4743 90.7275L19.3796 87.3033L19.0916 90.8987L20.4743 90.7275Z" fill="white"/>
<path d="M30.6724 94.6663L27.8494 88.674L28.3103 94.8376L26.121 95.0088L25.1992 83.1953L27.5613 83.0241L30.4419 89.0164L29.981 82.8528L32.1703 82.6816L33.0345 94.4951L30.6724 94.6663Z" fill="white"/>
<path d="M41.4438 92.8978L40.1187 94.1534L36.3163 94.3246L34.8184 93.1832L34.7607 91.2428L36.95 91.1857L37.0076 92.0988L39.2545 92.0418L39.1393 89.4165L36.0858 89.5307L34.6455 88.3322L34.4727 83.8237L35.7977 82.511L39.6002 82.3398L41.0981 83.5383L41.1557 85.3646L38.9664 85.4787L38.9088 84.5656L36.6619 84.6797L36.7772 87.305L39.8306 87.1908L41.2709 88.3322L41.4438 92.8978Z" fill="white"/>
<path d="M49.9721 88.731L48.5318 89.9865L45.536 90.0436L45.5936 94.0385H43.4043L43.2891 82.225L48.5318 82.168L49.9721 83.4235V88.731ZM47.7252 87.8179L47.6676 84.3937H45.4207L45.4784 87.8179H47.7252Z" fill="white"/>
<path d="M58.8432 92.9538L57.4029 94.1523L53.3124 94.0381L51.9297 92.7826L52.1602 83.4231L53.6005 82.2246L57.6909 82.3388L59.0736 83.5943L58.8432 92.9538ZM56.6539 91.9265L56.8267 84.4504L54.2918 84.3933L54.119 91.8695L56.6539 91.9265Z" fill="white"/>
<path d="M67.7738 94.6095L65.4117 94.4953L63.7986 89.5873L63.1648 89.5302L62.8768 94.3241L60.6875 94.21L61.3213 82.3965L66.6216 82.6818L67.9467 83.9944L67.7162 88.3318L66.1607 89.6444L67.7738 94.6095ZM63.2801 87.3616L65.5846 87.4757L65.7574 84.8505L63.4529 84.7364L63.2801 87.3616Z" fill="white"/>
<path d="M76.9915 85.7062L74.8022 85.5349L73.9381 95.1227L71.7488 94.9515L72.613 85.3637L70.4237 85.1355L70.6541 82.9668L77.222 83.5375L76.9915 85.7062Z" fill="white"/>
<path d="M80.16 95.8089L77.9707 95.5807L79.3534 83.8242L81.5427 84.0525L80.16 95.8089Z" fill="white"/>
<path d="M88.2837 96.8913L82.0039 96.0353L82.1191 95.008L86.901 86.9611L83.6747 86.5046L83.9627 84.3359L89.9544 85.192L89.7816 86.3334L85.1726 94.2661L88.5717 94.7227L88.2837 96.8913Z" fill="white"/>
</svg>
