<svg width="64" height="64" viewBox="0 0 64 64" fill="none" xmlns="http://www.w3.org/2000/svg">
<path d="M43.7217 53.5811H19.9385C18.1863 53.5811 16.506 52.8851 15.267 51.6461C14.0281 50.4072 13.332 48.7268 13.332 46.9747V13.9424C13.332 12.1903 14.0281 10.5099 15.267 9.27095C16.506 8.032 18.1863 7.33596 19.9385 7.33596H36.481C37.5294 7.33339 38.5678 7.53876 39.5362 7.94019C40.5047 8.34163 41.3839 8.93115 42.1229 9.67465L47.9895 15.5412C48.7361 16.2834 49.3275 17.1669 49.729 18.1401C50.1306 19.1133 50.3342 20.1567 50.3282 21.2095V46.9747C50.3282 48.7268 49.6321 50.4072 48.3932 51.6461C47.1542 52.8851 45.4738 53.5811 43.7217 53.5811Z" fill="#E1EAF6"/>
<path d="M43.7217 56.2217H19.9385C18.1863 56.2217 16.506 55.5257 15.267 54.2868C14.0281 53.0478 13.332 51.3674 13.332 49.6153V16.583C13.332 14.8309 14.0281 13.1505 15.267 11.9116C16.506 10.6726 18.1863 9.97659 19.9385 9.97659H36.481C37.5294 9.97401 38.5678 10.1794 39.5362 10.5808C40.5047 10.9823 41.3839 11.5718 42.1229 12.3153L47.9895 18.1818C48.7361 18.924 49.3275 19.8075 49.729 20.7807C50.1306 21.7539 50.3342 22.7974 50.3282 23.8501V49.6153C50.3282 51.3674 49.6321 53.0478 48.3932 54.2868C47.1542 55.5257 45.4738 56.2217 43.7217 56.2217Z" fill="url(#paint0_linear_2202_11457)"/>
<path d="M19.8183 44.8471C19.6439 44.6757 19.5079 44.4694 19.4191 44.2416C19.3303 44.0139 19.2907 43.7699 19.303 43.5258C19.4106 42.8111 19.6615 42.1255 20.0407 41.5101C20.4199 40.8948 20.9195 40.3625 21.5095 39.9451C23.1205 38.5886 24.9591 37.5284 26.94 36.8136C27.552 34.8641 27.9074 32.8431 27.9971 30.8017C26.2646 29.274 24.8697 27.4021 23.9011 25.3052C23.5229 24.2936 23.3131 23.2268 23.28 22.1473C23.2569 21.4869 23.4169 20.8329 23.7425 20.2579C23.8935 19.9956 24.1084 19.7757 24.3671 19.6187C24.6258 19.4616 24.92 19.3724 25.2223 19.3594C26.8343 19.4651 27.9706 20.9449 28.8823 23.4289C29.4748 25.3992 29.7557 27.4499 29.7147 29.5069C29.7147 29.7051 29.7147 29.9033 29.7147 30.1147C31.595 31.7987 33.6554 33.2698 35.8587 34.5014C37.2989 34.1975 38.6995 33.92 39.9283 33.6425C40.8544 33.4178 41.8029 33.2981 42.7559 33.2858C43.6095 33.2489 44.4589 33.4261 45.2267 33.8011C45.5523 33.9525 45.8303 34.1902 46.0306 34.4883C46.2309 34.7864 46.3459 35.1336 46.363 35.4923C46.2176 37.2232 44.4471 38.1349 42.0424 38.1349C41.3275 38.1313 40.6149 38.056 39.9151 37.9103C38.4383 37.5609 37.0096 37.0329 35.6605 36.3379C33.2616 36.8001 30.8923 37.4046 28.5652 38.1481L28.3142 38.2406C27.8613 39.7207 27.0995 41.0879 26.0791 42.2518C25.0587 43.4157 23.8029 44.3498 22.3948 44.9924C21.975 45.163 21.5266 45.2527 21.0735 45.2567C20.6118 45.2658 20.1637 45.1007 19.8183 44.7942V44.8471ZM21.1396 43.5258C21.3754 43.5189 21.6082 43.4697 21.8266 43.3804C23.7358 42.5527 25.2508 41.0187 26.0548 39.0994C24.8378 39.6587 23.704 40.3834 22.6855 41.2531C21.9007 41.8006 21.3308 42.6041 21.0735 43.5258H21.1396ZM40.2983 36.1398C40.8854 36.259 41.4828 36.321 42.082 36.3247C42.8224 36.3635 43.5601 36.2086 44.2225 35.8755C44.6585 35.6377 44.6849 35.4527 44.6717 35.4395C44.6207 35.3668 44.5527 35.3079 44.4735 35.2677C43.9592 35.039 43.3968 34.9393 42.8351 34.977C42.0116 34.9881 41.1919 35.09 40.3907 35.2809L38.5806 35.6773C39.1437 35.8825 39.7226 36.0416 40.3115 36.153L40.2983 36.1398ZM28.9748 36.1398C30.3754 35.7169 31.8949 35.3338 33.4276 34.9902C32.1083 34.1687 30.8458 33.2594 29.6487 32.2684C29.5228 33.5741 29.2975 34.8683 28.9748 36.1398ZM25.2223 21.0903C25.2223 21.0903 25.2223 21.0903 25.1431 21.1695C24.9887 21.4712 24.9201 21.8094 24.9449 22.1473C24.971 23.0516 25.1497 23.9451 25.4734 24.7899C26.0405 26.1751 26.8911 27.4263 27.9706 28.4631C27.9301 26.9658 27.6856 25.4811 27.2439 24.05C26.9813 23.195 26.5599 22.3971 26.0019 21.6981C25.8162 21.4321 25.5462 21.2365 25.2356 21.1431L25.2223 21.0903Z" fill="#EFF4F9"/>
<path d="M19.8201 43.5267C19.6541 43.363 19.5229 43.1674 19.4344 42.9517C19.3458 42.736 19.3018 42.5047 19.3048 42.2715C19.4124 41.5568 19.6634 40.8712 20.0426 40.2559C20.4217 39.6406 20.9213 39.1082 21.5114 38.6908C23.1224 37.3344 24.9609 36.2742 26.9419 35.5594C27.5539 33.6098 27.9092 31.5889 27.9989 29.5475C26.2591 28.0006 24.8636 26.1055 23.9029 23.9849C23.5248 22.9732 23.315 21.9065 23.2819 20.827C23.2588 20.1666 23.4188 19.5126 23.7444 18.9375C23.8954 18.6753 24.1103 18.4554 24.369 18.2983C24.6277 18.1413 24.9218 18.0521 25.2242 18.0391C26.8362 18.1448 27.9725 19.6246 28.8842 22.1086C29.4767 24.0789 29.7576 26.1296 29.7166 28.1866C29.7166 28.3848 29.7166 28.583 29.7166 28.7944C31.5968 30.4784 33.6573 31.9495 35.8606 33.181C37.3008 32.8771 38.7014 32.5997 39.9302 32.3222C40.8563 32.0974 41.8048 31.9778 42.7577 31.9655C43.6114 31.9286 44.4608 32.1058 45.2286 32.4808C45.5542 32.6322 45.8322 32.8698 46.0325 33.168C46.2328 33.4661 46.3477 33.8133 46.3649 34.172C46.2195 35.9029 44.449 36.8146 42.0442 36.8146C41.3294 36.8109 40.6168 36.7357 39.917 36.59C38.4402 36.2406 37.0115 35.7126 35.6624 35.0176C33.2635 35.4798 30.8942 36.0843 28.5671 36.8278L28.316 36.9203C27.8632 38.4004 27.1013 39.7676 26.0809 40.9315C25.0606 42.0953 23.8048 43.0295 22.3967 43.6721C21.9768 43.8427 21.5285 43.9324 21.0754 43.9363C20.6137 43.9455 20.1655 43.7804 19.8201 43.4739V43.5267ZM21.1414 42.2055C21.3773 42.1986 21.61 42.1493 21.8285 42.0601C23.7377 41.2324 25.2527 39.6984 26.0566 37.7791C24.8397 38.3384 23.7058 39.0631 22.6873 39.9328C21.9025 40.4803 21.3326 41.2838 21.0754 42.2055H21.1414ZM40.3001 34.8194C40.8873 34.9387 41.4847 35.0007 42.0839 35.0044C42.8243 35.0431 43.562 34.8883 44.2244 34.5552C44.6604 34.3174 44.6868 34.1324 44.6736 34.1192C44.6226 34.0465 44.5546 33.9876 44.4754 33.9474C43.961 33.7187 43.3987 33.619 42.837 33.6567C42.0135 33.6678 41.1938 33.7697 40.3926 33.9606L38.5825 34.357C39.1456 34.5622 39.7245 34.7213 40.3134 34.8327L40.3001 34.8194ZM28.9767 34.8194C30.3773 34.3966 31.8967 34.0135 33.4294 33.6699C32.1102 32.8484 30.8477 31.9391 29.6505 30.9481C29.5247 32.2538 29.2994 33.548 28.9767 34.8194ZM25.2242 19.77C25.2242 19.77 25.2242 19.77 25.1449 19.8492C24.9906 20.1508 24.922 20.4891 24.9468 20.827C24.9729 21.7313 25.1515 22.6247 25.4753 23.4696C26.0423 24.8547 26.893 26.106 27.9725 27.1427C27.932 25.6455 27.6875 24.1608 27.2458 22.7296C26.9832 21.8746 26.5618 21.0768 26.0038 20.3777C25.8181 20.1117 25.5481 19.9162 25.2374 19.8228L25.2242 19.77Z" fill="#042365"/>
<path d="M47.687 21.21H40.8559C40.0395 21.21 39.2564 20.8856 38.679 20.3083C38.1017 19.7309 37.7773 18.9479 37.7773 18.1314V12.6216C37.7773 12.4464 37.8469 12.2783 37.9708 12.1544C38.0947 12.0305 38.2628 11.9609 38.438 11.9609C38.6132 11.9609 38.7812 12.0305 38.9051 12.1544C39.029 12.2783 39.0986 12.4464 39.0986 12.6216V18.1314C39.0986 18.5974 39.2838 19.0444 39.6133 19.374C39.9429 19.7035 40.3899 19.8887 40.8559 19.8887H47.687C47.8622 19.8887 48.0303 19.9583 48.1542 20.0822C48.2781 20.2061 48.3477 20.3741 48.3477 20.5493C48.3477 20.7245 48.2781 20.8926 48.1542 21.0165C48.0303 21.1404 47.8622 21.21 47.687 21.21Z" fill="#A7C1DB"/>
<path d="M51.7686 41.4766H33.1252C31.7314 41.4766 30.6016 42.6064 30.6016 44.0002V50.5406C30.6016 51.9344 31.7314 53.0643 33.1252 53.0643H51.7686C53.1624 53.0643 54.2923 51.9344 54.2923 50.5406V44.0002C54.2923 42.6064 53.1624 41.4766 51.7686 41.4766Z" fill="#FD0000"/>
<path d="M36.9441 47.9122H35.7946V49.6298C35.8096 49.8299 35.7482 50.0282 35.6228 50.1848C35.5683 50.2459 35.5009 50.2942 35.4255 50.3261C35.3501 50.3581 35.2686 50.373 35.1868 50.3698C35.1028 50.375 35.0187 50.3611 34.9408 50.3291C34.863 50.297 34.7935 50.2477 34.7375 50.1848C34.6144 50.027 34.5533 49.8296 34.5658 49.6298V45.0053C34.5562 44.903 34.5677 44.7998 34.5995 44.7021C34.6313 44.6044 34.6828 44.5143 34.7507 44.4372C34.9188 44.3033 35.131 44.2373 35.3453 44.2522H36.9309C37.2915 44.2398 37.652 44.2799 38.0011 44.3711C38.2425 44.429 38.4653 44.5472 38.6485 44.7147C38.8284 44.874 38.9686 45.073 39.0581 45.296C39.1511 45.5452 39.196 45.8097 39.1903 46.0756C39.2096 46.337 39.1685 46.5994 39.0699 46.8423C38.9714 47.0852 38.8181 47.3021 38.6221 47.4761C38.1323 47.8162 37.5375 47.9707 36.9441 47.9122ZM36.6402 45.1242H35.7946V46.9741H36.627C36.8716 46.979 37.1159 46.9524 37.3537 46.8948C37.5323 46.8447 37.6899 46.738 37.8029 46.5909C37.9055 46.4294 37.9562 46.2403 37.9483 46.0492C37.954 45.9308 37.9358 45.8125 37.895 45.7013C37.8541 45.5901 37.7914 45.4882 37.7104 45.4017C37.3934 45.1978 37.0124 45.1178 36.6402 45.1771V45.1242Z" fill="white"/>
<path d="M40.9995 44.2507H42.5983C42.9586 44.2442 43.3183 44.2842 43.6685 44.3696C43.9712 44.4508 44.2513 44.5999 44.4877 44.8056C44.8162 45.1231 45.0706 45.5091 45.2328 45.9362C45.3949 46.3633 45.4609 46.8209 45.4258 47.2764C45.4303 47.6091 45.3993 47.9413 45.3333 48.2674C45.2747 48.5526 45.1768 48.8282 45.0427 49.0866C44.906 49.3281 44.7321 49.5466 44.5274 49.734C44.3714 49.877 44.1928 49.993 43.9988 50.0776C43.8034 50.1729 43.5936 50.2354 43.3778 50.2626C43.1273 50.2845 42.8753 50.2845 42.6247 50.2626H41.0788C40.9009 50.2707 40.7238 50.2344 40.5635 50.1569C40.5096 50.1262 40.4629 50.0844 40.4264 50.0343C40.39 49.9842 40.3646 49.9269 40.3521 49.8662C40.328 49.7085 40.328 49.5481 40.3521 49.3905V45.0038C40.3415 44.9024 40.3512 44.8 40.3807 44.7024C40.4102 44.6049 40.4589 44.5142 40.5238 44.4356C40.6582 44.3241 40.8251 44.2592 40.9995 44.2507ZM41.4752 45.2284V49.3509H42.4001H42.889C43.011 49.3411 43.131 49.3144 43.2457 49.2716C43.3624 49.2311 43.4701 49.1683 43.5628 49.0866C43.7907 48.8502 43.9643 48.567 44.0715 48.2566C44.1788 47.9463 44.2171 47.6163 44.1838 47.2896C44.2073 46.8326 44.1117 46.3773 43.9063 45.9684C43.7659 45.7022 43.5299 45.4992 43.2457 45.4002C42.9316 45.3142 42.6067 45.2741 42.2812 45.2813L41.4752 45.2284Z" fill="white"/>
<path d="M50.1297 45.2685H47.6854V46.8276H49.7069C49.8574 46.8168 50.007 46.8588 50.1297 46.9465C50.1779 46.9895 50.2159 47.0426 50.241 47.102C50.2661 47.1614 50.2778 47.2256 50.2751 47.2901C50.2758 47.3523 50.2633 47.414 50.2382 47.471C50.2131 47.528 50.1761 47.5789 50.1297 47.6204C50.007 47.7081 49.8574 47.7501 49.7069 47.7393H47.6854V49.7477C47.6949 49.8469 47.6846 49.9471 47.6551 50.0424C47.6257 50.1376 47.5775 50.2261 47.5136 50.3026C47.4591 50.3637 47.3917 50.412 47.3163 50.444C47.2409 50.4759 47.1594 50.4908 47.0776 50.4876C46.9936 50.4929 46.9095 50.4789 46.8316 50.4469C46.7538 50.4148 46.6843 50.3655 46.6283 50.3026C46.5644 50.2261 46.5163 50.1376 46.4868 50.0424C46.4573 49.9471 46.447 49.8469 46.4566 49.7477V45.0042C46.4508 44.8591 46.4779 44.7146 46.5359 44.5814C46.5591 44.5251 46.5932 44.4739 46.6363 44.4309C46.6794 44.3878 46.7306 44.3536 46.7869 44.3304C46.9201 44.2725 47.0646 44.2454 47.2097 44.2511H50.1033C50.2597 44.2421 50.4143 44.2889 50.5393 44.3832C50.589 44.4249 50.6281 44.4778 50.6534 44.5375C50.6787 44.5972 50.6894 44.6621 50.6847 44.7268C50.6905 44.7916 50.6803 44.8568 50.655 44.9167C50.6296 44.9766 50.5899 45.0294 50.5393 45.0703C50.4345 45.1881 50.2872 45.2594 50.1297 45.2685Z" fill="white"/>
<defs>
<linearGradient id="paint0_linear_2202_11457" x1="31.8301" y1="6.713" x2="31.8301" y2="53.381" gradientUnits="userSpaceOnUse">
<stop stop-color="#F1F5F9"/>
<stop offset="1" stop-color="#D8E5F4"/>
</linearGradient>
</defs>
</svg>
