<svg width="196" height="284" viewBox="0 0 196 284" fill="none" xmlns="http://www.w3.org/2000/svg">
<g opacity="0.4">
<path d="M114.212 210.825H88.6763V199.942C88.68 198.09 89.1872 196.274 90.1441 194.686C91.0951 193.102 92.2291 191.635 93.523 190.314C94.8247 188.934 96.2926 187.651 97.6773 186.355C99.0621 185.058 100.447 183.817 101.652 182.492C102.782 181.281 103.767 179.943 104.587 178.506C105.291 177.241 105.649 175.814 105.626 174.368C105.627 173.377 105.463 172.394 105.141 171.457C104.845 170.585 104.374 169.783 103.757 169.098C103.135 168.414 102.381 167.86 101.541 167.471C100.616 167.051 99.6077 166.844 98.5913 166.864C97.3666 166.806 96.1472 167.057 95.0463 167.595C94.2207 168.06 93.5255 168.724 93.0245 169.526C92.5027 170.429 92.1552 171.42 91.9998 172.45C91.7936 173.695 91.6917 174.955 91.6951 176.216V177.954C91.6981 178.466 91.7351 178.978 91.8059 179.485L92.069 181.292H64.7612L64.6088 179.913C64.5258 179.058 64.4427 178.258 64.3596 177.471C64.2765 176.685 64.2211 175.761 64.2211 174.85C64.1639 170.618 65.148 166.436 67.0876 162.67C68.9978 159.052 71.6944 155.904 74.9808 153.456C78.5324 150.836 82.5359 148.886 86.793 147.704C91.5806 146.353 96.5373 145.688 101.513 145.731C106.278 145.68 111.025 146.336 115.596 147.676C119.609 148.84 123.367 150.745 126.675 153.29C129.75 155.679 132.237 158.737 133.945 162.229C135.702 165.867 136.588 169.862 136.534 173.899C136.585 176.858 135.965 179.791 134.72 182.479C133.574 184.865 132.092 187.076 130.317 189.044C128.641 190.93 126.786 192.648 124.777 194.176C122.853 195.624 121.066 196.935 119.391 198.176C117.988 199.173 116.664 200.275 115.43 201.473C114.752 202.038 114.324 202.845 114.239 203.721L114.212 210.825ZM91.8613 207.68H111.096V203.735C111.127 202.882 111.331 202.044 111.695 201.272C112.059 200.499 112.576 199.807 113.215 199.238C114.567 197.927 116.016 196.719 117.549 195.624C119.211 194.41 120.983 193.1 122.894 191.652C124.757 190.249 126.477 188.669 128.032 186.934C129.6 185.185 130.915 183.226 131.937 181.113C132.971 178.855 133.482 176.394 133.432 173.912C133.478 170.36 132.706 166.845 131.175 163.636C129.661 160.574 127.474 157.892 124.777 155.787C121.776 153.493 118.371 151.777 114.738 150.725C110.466 149.478 106.033 148.869 101.582 148.918C96.9017 148.874 92.2387 149.496 87.7346 150.766C83.849 151.835 80.196 153.612 76.9611 156.008C74.0501 158.173 71.661 160.958 69.968 164.16C68.266 167.47 67.4054 171.146 67.4615 174.864C67.4593 175.625 67.5009 176.385 67.5861 177.14C67.5861 177.485 67.6554 177.83 67.6969 178.175H88.607V176.23C88.6054 174.803 88.7165 173.377 88.9394 171.968C89.1278 170.512 89.5981 169.106 90.3242 167.829C91.1018 166.568 92.1882 165.524 93.4815 164.795C95.0616 163.963 96.833 163.559 98.619 163.622C100.039 163.601 101.446 163.884 102.746 164.453C104.046 165.022 105.208 165.863 106.152 166.919C107.063 167.942 107.756 169.139 108.188 170.436C108.623 171.711 108.848 173.048 108.853 174.395C108.885 176.372 108.408 178.324 107.468 180.065C106.528 181.724 105.394 183.266 104.089 184.658C102.781 186.112 101.394 187.493 99.9345 188.796C98.5498 190.038 97.165 191.32 95.9464 192.59C94.8233 193.731 93.838 195 93.0106 196.369C92.3351 197.464 91.9802 198.725 91.9859 200.011L91.8613 207.68Z" fill="#FD0000"/>
<path d="M114.515 240.029H88.7441V215.848H114.515V240.029ZM91.9291 236.842H111.316V219.02H91.9291V236.842Z" fill="#FD0000"/>
<path d="M174.132 254.957H149.081V244.28C149.067 242.467 149.545 240.685 150.466 239.121C151.399 237.572 152.509 236.137 153.776 234.845C155.063 233.466 156.434 232.224 157.93 230.955C159.286 229.767 160.58 228.51 161.807 227.189C162.915 226.006 163.877 224.695 164.674 223.286C165.366 222.062 165.72 220.676 165.699 219.272C165.699 218.304 165.535 217.343 165.214 216.43C164.916 215.58 164.444 214.8 163.829 214.14C163.222 213.474 162.488 212.934 161.669 212.554C160.769 212.147 159.79 211.944 158.802 211.961C157.611 211.906 156.424 212.153 155.354 212.678C154.548 213.124 153.87 213.77 153.388 214.554C152.871 215.433 152.528 216.402 152.377 217.409C152.182 218.623 152.085 219.85 152.086 221.079V222.858C152.089 223.357 152.126 223.854 152.197 224.348L152.46 226.155H125.678L125.54 224.775C125.457 223.962 125.374 223.161 125.291 222.403C125.194 221.551 125.148 220.694 125.152 219.837C125.08 215.69 126.031 211.588 127.922 207.891C129.796 204.352 132.435 201.271 135.649 198.87C139.129 196.308 143.047 194.397 147.212 193.228C151.901 191.907 156.754 191.257 161.627 191.297C166.312 191.25 170.978 191.892 175.475 193.201C179.404 194.358 183.085 196.228 186.332 198.718C189.336 201.071 191.772 204.064 193.463 207.478C195.175 211.046 196.042 214.958 195.997 218.913C196.051 221.812 195.44 224.685 194.211 227.313C193.088 229.652 191.638 231.821 189.904 233.755C188.221 235.603 186.366 237.289 184.365 238.79C182.482 240.169 180.723 241.549 179.089 242.694C177.716 243.663 176.423 244.743 175.226 245.922C174.897 246.19 174.624 246.521 174.425 246.895C174.225 247.269 174.102 247.679 174.063 248.101L174.132 254.957ZM152.266 251.825H170.947V247.963C170.975 247.122 171.175 246.296 171.535 245.535C171.894 244.773 172.406 244.093 173.038 243.535C174.357 242.247 175.773 241.061 177.275 239.99C178.895 238.804 180.64 237.521 182.51 236.114C184.331 234.743 186.01 233.195 187.523 231.493C189.059 229.782 190.345 227.864 191.345 225.796C192.36 223.577 192.857 221.158 192.799 218.72C192.844 215.252 192.086 211.82 190.583 208.692C189.109 205.698 186.974 203.076 184.338 201.022C181.402 198.778 178.073 197.099 174.52 196.07C170.342 194.852 166.007 194.257 161.655 194.304C157.088 194.266 152.538 194.87 148.14 196.098C144.343 197.155 140.771 198.894 137.601 201.229C134.76 203.343 132.427 206.062 130.774 209.188C129.112 212.426 128.27 216.021 128.323 219.658C128.322 220.4 128.363 221.141 128.448 221.879C128.448 222.196 128.517 222.527 128.545 222.858H148.943V221.023C148.944 219.637 149.055 218.254 149.275 216.885C149.475 215.48 149.945 214.126 150.66 212.899C151.419 211.656 152.487 210.63 153.762 209.919C155.312 209.105 157.05 208.71 158.802 208.774C160.269 208.755 161.721 209.061 163.054 209.671C164.242 210.239 165.31 211.031 166.197 212.002C167.077 212.986 167.75 214.135 168.177 215.382C168.609 216.629 168.829 217.939 168.828 219.258C168.851 221.185 168.374 223.085 167.443 224.775C166.524 226.4 165.413 227.91 164.134 229.272C162.822 230.679 161.435 232.014 159.979 233.272C158.595 234.486 157.293 235.728 156.074 236.983C154.976 238.093 154.013 239.33 153.208 240.666C152.559 241.736 152.215 242.961 152.211 244.211L152.266 251.825Z" fill="#FD0000"/>
<path d="M174.438 283.55H149.152V259.824H174.438V283.55ZM152.282 280.377H171.198V262.997H152.337L152.282 280.377Z" fill="#FD0000"/>
<path d="M169.257 162.589H149.163V153.967C149.169 152.509 149.571 151.079 150.327 149.829C151.065 148.602 151.948 147.467 152.958 146.45C153.955 145.415 155.021 144.394 156.143 143.415C157.186 142.502 158.179 141.535 159.12 140.518C159.958 139.622 160.687 138.631 161.294 137.566C161.796 136.669 162.054 135.656 162.042 134.628C162.042 133.919 161.92 133.214 161.682 132.545C161.477 131.936 161.153 131.373 160.726 130.89C160.283 130.412 159.752 130.023 159.162 129.745C158.513 129.456 157.808 129.315 157.098 129.331C156.237 129.283 155.378 129.458 154.606 129.842C154.028 130.169 153.55 130.646 153.221 131.221C152.847 131.863 152.598 132.57 152.487 133.304C152.343 134.217 152.269 135.139 152.265 136.063V137.442C152.266 137.807 152.294 138.171 152.348 138.532L152.612 140.353H131.078L130.732 137.07C130.664 136.401 130.632 135.728 130.635 135.056C130.584 131.782 131.345 128.546 132.851 125.635C134.322 122.846 136.399 120.419 138.93 118.531C141.66 116.512 144.739 115.011 148.014 114.103C151.675 113.065 155.466 112.554 159.272 112.585C162.926 112.554 166.566 113.055 170.074 114.075C173.163 114.977 176.056 116.446 178.604 118.406C180.978 120.252 182.9 122.61 184.226 125.303C185.579 128.113 186.261 131.195 186.22 134.311C186.271 136.608 185.797 138.886 184.835 140.973C183.955 142.819 182.812 144.529 181.443 146.05C180.146 147.502 178.708 148.824 177.15 149.995C175.696 151.098 174.38 152.105 173.065 153.016C172.023 153.767 171.037 154.592 170.115 155.485C169.685 155.83 169.399 156.321 169.312 156.864L169.257 162.589ZM152.348 159.402H166.099V156.795C166.124 156.097 166.29 155.411 166.587 154.778C166.885 154.145 167.308 153.578 167.83 153.112C168.869 152.113 169.98 151.191 171.154 150.353C172.414 149.443 173.757 148.45 175.197 147.36C176.595 146.313 177.884 145.13 179.047 143.829C180.213 142.529 181.188 141.071 181.941 139.498C182.697 137.84 183.071 136.035 183.035 134.214C183.068 131.582 182.495 128.977 181.36 126.6C180.244 124.328 178.624 122.337 176.624 120.779C174.387 119.073 171.851 117.797 169.146 117.013C165.941 116.071 162.614 115.606 159.272 115.634C155.767 115.599 152.274 116.063 148.9 117.013C146.003 117.817 143.276 119.14 140.855 120.917C138.701 122.534 136.928 124.601 135.662 126.973C134.411 129.433 133.779 132.16 133.82 134.918C133.819 135.48 133.847 136.042 133.903 136.601V137.028H149.025V135.952C149.022 134.853 149.11 133.755 149.288 132.669C149.462 131.531 149.852 130.435 150.437 129.442C151.062 128.431 151.934 127.596 152.972 127.014C154.248 126.338 155.682 126.014 157.126 126.076C158.316 126.06 159.494 126.31 160.574 126.807C161.539 127.265 162.405 127.907 163.122 128.697C163.837 129.5 164.384 130.438 164.728 131.456C165.078 132.458 165.256 133.512 165.255 134.573C165.267 136.141 164.871 137.686 164.105 139.056C163.38 140.343 162.501 141.538 161.488 142.615C160.472 143.714 159.4 144.759 158.275 145.746C157.223 146.67 156.212 147.636 155.27 148.602C154.441 149.434 153.711 150.36 153.096 151.36C152.623 152.133 152.374 153.021 152.376 153.926L152.348 159.402Z" fill="#FD0000"/>
<path d="M169.52 184.728H149.219V165.637H169.52V184.728ZM152.404 181.555H166.335V168.809H152.404V181.555Z" fill="#FD0000"/>
<path d="M160.801 0H157.648V114.113H160.801V0Z" fill="#FD0000"/>
<path d="M150.601 280.113H0V283.549H150.601V280.113Z" fill="#FD0000"/>
</g>
</svg>
