<svg width="304" height="327" viewBox="0 0 304 327" fill="none" xmlns="http://www.w3.org/2000/svg">
<mask id="mask0_2361_3554" style="mask-type:luminance" maskUnits="userSpaceOnUse" x="18" y="-59" width="261" height="263">
<path d="M21.8348 37.475C29.5792 33.6559 95.1379 23.3417 138.719 63.8451C183.107 105.138 166.134 156.309 166.134 156.309L181.236 203.162L278.881 88.537L271.24 33.8388L107.836 -58.8164L42.0747 -16.2847L18.0189 46.5288L21.8348 37.475Z" fill="white"/>
</mask>
<g mask="url(#mask0_2361_3554)">
<path d="M131.444 2.05267L136.15 32.9381C131.262 37.1762 126.772 41.7078 122.458 46.1147C117.674 50.9323 113.147 55.5025 108.217 59.629L89.8455 56.5764L77.3808 54.5021C76.4309 47.8674 75.8746 41.1841 75.7146 34.4861C75.6172 32.2319 75.5177 29.9025 75.381 27.6118C75.3149 26.3277 76.0333 25.1144 76.8612 23.7101C76.9608 23.5223 77.0569 23.3409 77.1564 23.153C82.4505 14.0957 90.2538 7.61667 100.321 0.711927C101.416 -0.0501234 102.757 -0.390988 104.092 -0.245818C111.17 0.358591 118.255 0.950048 125.476 1.55338L131.434 2.05578M133.358 0.00873494L104.28 -2.46955C102.425 -2.65817 100.563 -2.18091 99.0386 -1.12618C89.7784 5.26853 80.9799 12.1535 75.2201 22.0265C74.1867 23.7868 72.9972 25.5251 73.1228 27.6785C73.6687 37.1124 73.6477 46.603 75.4139 56.3461L108.851 61.8686C119.142 53.4328 127.833 42.8569 138.561 33.7226L133.392 -0.0560388L133.358 0.00873494Z" fill="#C3001D" fill-opacity="0.4"/>
<path d="M213.553 43.87L217.69 48.726C222.237 54.0454 226.525 59.0767 230.922 64.1391C232.283 65.6552 232.574 67.4487 232.612 69.6564C232.704 78.0253 231.584 86.3647 229.285 94.4248C227.571 100.683 224.706 104.365 219.997 106.366C217.782 107.384 215.678 108.618 213.716 110.051C212.579 110.82 211.505 111.548 210.39 112.197C209.274 112.846 208.366 113.436 207.391 114.058C205.453 115.389 203.396 116.544 201.243 117.506L201.096 117.357L178.905 95.9143C179.124 94.4876 179.34 93.0674 179.552 91.6374C181.233 80.5496 182.97 69.0872 185.412 57.6715L201.262 49.9213L213.583 43.8607M214.185 41.1405L183.455 56.1724C180.482 69.7936 178.599 83.131 176.529 96.6778L200.72 120.045C204.823 118.714 208.05 116.138 211.558 114.092C214.717 112.247 217.579 109.806 220.914 108.388C227.074 105.769 229.884 100.784 231.47 95.0034C233.811 86.7414 234.95 78.1965 234.853 69.622C234.81 67.0748 234.414 64.767 232.632 62.7319C226.541 55.7207 220.532 48.6356 214.119 41.1395L214.185 41.1405Z" fill="#C3001D" fill-opacity="0.4"/>
<path d="M172.063 102.576L183.58 114.26L193.625 124.447L193.546 124.596C193.342 125.202 193.085 125.789 192.776 126.35C188.771 132.815 184.867 139.028 180.165 146.478C178.99 148.347 177.159 149.569 174.232 150.455C163.487 153.821 152.194 155.187 140.937 154.481C133.823 148.767 126.281 142.563 118.961 135.797L133.671 108.036C146.782 105.725 159.815 104.034 172.017 102.552M172.853 100.247C159.177 101.899 145.776 103.65 132.194 106.074L116.187 136.284C123.916 143.513 131.934 150.132 140.013 156.651C151.78 157.473 163.6 156.092 174.841 152.583C177.821 151.708 180.347 150.314 182.017 147.668C186.238 140.968 190.463 134.261 194.635 127.528C195.221 126.372 195.727 125.179 196.15 123.956L172.825 100.299L172.853 100.247Z" fill="#C3001D" fill-opacity="0.4"/>
<path d="M107.658 67.9314L125.494 102.645C121.523 112.623 112.636 128.619 108.881 132.587L94.8289 129.029L80.2758 125.34C72.9333 116.557 67.332 106.504 63.7613 95.7006C62.4922 91.7634 62.7615 88.4374 64.5121 85.1177C66.6217 81.0741 68.4198 76.8815 69.8915 72.5748C71.0361 69.1837 72.6845 65.9768 74.7835 63.0575C81.5245 63.3009 88.0233 64.5396 94.3261 65.7525C98.6907 66.5864 103.201 67.4454 107.678 67.9415M108.124 67.3051C97.0798 66.1439 86.264 62.7464 74.4647 62.3768C72.2193 65.4266 70.4626 68.7953 69.2557 72.3659C67.797 76.641 66.015 80.8033 63.9242 84.8182C62.0057 88.4389 61.8792 92.0022 63.1153 95.9226C66.7292 106.889 72.4264 117.085 79.9062 125.974L109.115 133.365C112.807 129.817 122.207 112.964 126.25 102.61L108.101 67.3015L108.124 67.3051Z" fill="#C3001D" fill-opacity="0.4"/>
<path d="M186.699 -3.51659C192.34 -0.629795 197.57 2.97265 202.252 7.19792L202.469 8.04028C204.895 17.3136 207.209 26.0856 208.902 35.1747L181.533 48.6124L145.9 30.4542L144.349 20.1626L141.391 0.557763L168.528 -9.98763C174.832 -8.57086 180.932 -6.38836 186.685 -3.49068M187.715 -5.43385C181.588 -8.5252 175.078 -10.825 168.348 -12.2758L138.96 -0.853882C140.617 10.2654 142.229 20.9333 143.879 31.8925L181.527 51.0773L211.416 36.3982C209.588 26.1873 206.939 16.2413 204.268 6.03706C199.322 1.48642 193.764 -2.3784 187.748 -5.44966L187.715 -5.43385Z" fill="#C3001D" fill-opacity="0.4"/>
<path d="M170.864 94.4993C173.218 81.7142 176.172 69.2845 177.382 56.3775L141.663 38.1755C132.39 47.0806 123.11 55.9987 113.437 65.2928L131.278 100.486C144.81 98.9168 157.666 96.8964 170.864 94.4993Z" fill="#C3001D" fill-opacity="0.4"/>
<path d="M213.039 15.4707C213.238 24.7361 217.321 36.3756 222.557 42.5314C225.452 45.9482 228.371 49.3524 231.561 53.1002C232.538 43.7842 221.436 21.6912 213.039 15.4707Z" fill="#C3001D" fill-opacity="0.4"/>
<path d="M109.886 140.692C115.936 143.854 121.291 148.153 125.645 153.346C112.633 150.571 100.605 144.459 90.7901 135.634C97.4586 135.976 103.977 137.705 109.912 140.706M110.228 140.11C103.63 136.8 96.3476 135.014 88.9376 134.887C94.2408 139.811 100.206 143.999 106.667 147.336C113.225 150.64 120.22 153.028 127.452 154.432C122.279 148.094 116.555 143.334 110.215 140.103L110.228 140.11Z" fill="#C3001D" fill-opacity="0.4"/>
<path d="M154.854 -13.9711C144.603 -16.6613 123.711 -13.6275 113.73 -7.99473C126.853 -3.5532 145.062 -6.19373 154.854 -13.9711Z" fill="#C3001D" fill-opacity="0.4"/>
<path d="M66.9073 38.8463C70.0898 53.1034 67.9984 65.0926 60.3698 76.292C59.3402 63.9874 61.4482 51.9985 66.9073 38.8463ZM67.082 36.6484C61.4121 49.6603 58.2196 63.0627 59.85 78.207C69.5899 64.8753 70.7634 51.1516 67.082 36.6484Z" fill="#C3001D" fill-opacity="0.4"/>
<path d="M218.665 117.136C212.534 128.613 200.201 140.426 191.976 142.873C193.973 140.302 195.75 137.573 197.289 134.714C198.426 132.626 199.681 130.601 201.047 128.65C201.861 127.389 202.916 126.295 204.155 125.429C208.117 123.064 212.229 120.767 216.193 118.542C217.019 118.074 217.852 117.61 218.685 117.147M220.303 115.454C214.787 118.566 209.219 121.602 203.781 124.836C202.463 125.752 201.341 126.913 200.478 128.253C196.908 133.154 194.789 138.894 190.131 143.932C198.859 142.975 213.954 128.926 220.316 115.461L220.303 115.454Z" fill="#C3001D" fill-opacity="0.4"/>
</g>
<path d="M29.8891 61.8728L36.0143 101.921C29.7191 107.359 23.9469 113.187 18.3509 118.825C12.1898 125.038 6.36692 130.914 -0.0094988 136.22L-10.8507 134.422L-39.9075 129.593C-41.3566 120.851 -41.7372 112.118 -42.1056 103.663C-42.2596 100.787 -42.3725 97.8343 -42.5129 94.933C-42.6206 93.1259 -41.6562 91.5115 -40.5478 89.6414C-40.4242 89.4082 -40.3007 89.175 -40.1441 88.9586C-33.3646 77.3513 -23.4021 69.077 -10.5243 60.2399C-9.01963 59.1887 -7.17262 58.7183 -5.33647 58.9186C3.65345 59.6828 12.6402 60.4372 21.7929 61.2267L29.8891 61.8728ZM31.8126 59.8258C19.1786 58.7675 6.99997 57.7522 -5.17837 56.7205C-7.5354 56.4816 -9.90091 57.0879 -11.8372 58.4275C-23.6744 66.5197 -34.7903 75.3085 -42.1174 87.8544C-43.4248 90.1002 -44.9346 92.3005 -44.775 95.0388C-44.0868 107.038 -44.1019 119.098 -41.8717 131.48L0.616185 138.538C13.7407 127.794 24.7669 114.378 38.4216 102.745L31.8232 59.79L31.8126 59.8258Z" fill="#C3001D" fill-opacity="0.4"/>
<path d="M133.907 114.813L139.502 121.366C145.274 128.124 150.733 134.493 156.31 140.938C158.141 143.039 158.563 145.376 158.603 148.325C158.722 159.02 157.291 169.678 154.355 179.978C152.121 188.119 148.376 192.923 142.205 195.545C139.431 196.831 136.79 198.378 134.322 200.165C132.868 201.152 131.491 202.088 130.063 202.931C128.766 203.685 127.498 204.495 126.294 205.296C123.695 207.084 120.919 208.61 118.008 209.851L103.473 195.822L89.0459 181.889L89.9193 176.156C92.0693 161.951 94.3097 147.291 97.435 132.669L125.697 118.814L133.911 114.774M134.513 112.054C121.293 118.534 108.295 124.902 95.5181 131.158C91.7406 148.482 89.354 165.429 86.6935 182.64L117.409 212.359C122.623 210.672 126.746 207.402 131.189 204.796C135.198 202.454 138.833 199.346 143.066 197.547C150.906 194.212 154.479 187.881 156.493 180.533C159.472 170.034 160.927 159.175 160.817 148.277C160.756 145.038 160.246 142.105 157.99 139.507C150.235 130.619 142.611 121.593 134.463 112.069L134.513 112.054Z" fill="#C3001D" fill-opacity="0.4"/>
<path d="M81.2296 189.553L88.0709 196.477L109.115 217.821C109.019 218.003 108.973 218.201 108.913 218.376C108.639 219.183 108.294 219.965 107.884 220.715C102.786 228.943 97.8168 236.833 91.864 246.278C90.293 248.768 87.8598 250.416 84.0125 251.598C69.3472 256.019 55.3546 257.699 41.2744 256.727C32.0802 249.335 22.3234 241.311 12.8614 232.541L31.8922 196.625C48.7819 193.641 65.5688 191.468 81.2627 189.569M82.0917 187.261C64.7168 189.356 47.6861 191.577 30.4187 194.656L10.094 233.014C19.9153 242.215 30.1221 250.624 40.3946 258.878C55.6102 260.051 70.2771 258.048 84.6613 253.713C88.4181 252.576 91.6653 250.817 93.7794 247.46C99.1384 238.929 104.494 230.405 109.853 221.874C110.591 220.687 110.966 219.283 111.779 217.336L82.0587 187.244L82.0917 187.261Z" fill="#C3001D" fill-opacity="0.4"/>
<path d="M-1.73468 147.374L15.6935 181.321L20.3276 190.337C15.088 203.297 4.81226 221.439 0.225513 226.834L-25.2464 220.369L-34.8624 217.937C-43.9473 206.984 -50.8857 194.476 -55.3265 181.045C-56.8104 176.373 -56.5397 172.538 -54.4596 168.597C-51.7564 163.394 -49.4583 157.998 -47.5848 152.456C-46.2433 148.494 -44.3472 144.735 -41.9508 141.285C-33.7569 141.652 -25.7977 143.174 -18.0909 144.65C-12.757 145.665 -7.23403 146.719 -1.73785 147.364M-0.287198 145.323C-14.3227 143.839 -28.0666 139.509 -43.0971 139.047C-45.9489 142.923 -48.1803 147.204 -49.7141 151.741C-51.5575 157.179 -53.8162 162.474 -56.4709 167.58C-58.9111 172.185 -59.0696 176.711 -57.4874 181.688C-52.8967 195.626 -45.6586 208.587 -36.1551 219.886L0.965609 229.285C5.65485 224.772 17.6073 203.355 22.7731 190.218L-0.287455 145.34L-0.287198 145.323Z" fill="#C3001D" fill-opacity="0.4"/>
<path d="M99.9027 54.7751C107.172 58.4958 113.907 63.1448 119.931 68.6008L120.248 69.8398C123.38 81.7847 126.37 93.1136 128.524 104.799L107.157 115.298L93.0215 122.236L47.197 98.8841L41.3648 60.0871L66.7233 50.223L76.4647 46.4345C84.6038 48.2376 92.4786 51.0399 99.9027 54.7751ZM100.932 52.8319C93.1449 48.9007 84.8699 45.9779 76.3148 44.137L38.9104 58.6718L45.1671 100.293L93.0193 124.678L131.015 106.019C128.668 93.0345 125.303 80.3873 121.924 67.4363C115.64 61.6502 108.577 56.7364 100.932 52.8319Z" fill="#C3001D" fill-opacity="0.4"/>
<path d="M79.4849 179.897C82.4764 163.645 86.2364 147.842 87.7583 131.466L42.3565 108.33L6.47986 142.794L29.1465 187.529C46.3307 185.493 62.7041 182.945 79.4849 179.897Z" fill="#C3001D" fill-opacity="0.4"/>
<path d="M133.084 79.4531C133.343 91.2333 138.531 106.027 145.181 113.866C148.861 118.209 152.554 122.559 156.627 127.3C157.857 115.431 143.768 87.3573 133.084 79.4531Z" fill="#C3001D" fill-opacity="0.4"/>
<path d="M1.35759 239.823C7.61578 243.059 13.2698 247.312 18.0799 252.4C4.74745 248.935 -7.63927 242.622 -18.194 233.915C-11.368 234.717 -4.74512 236.718 1.35759 239.823ZM2.38721 237.88C-5.99868 233.675 -15.2531 231.404 -24.67 231.24C-17.9336 237.508 -10.3532 242.84 -2.14028 247.089C6.19399 251.289 15.0872 254.323 24.2799 256.102C17.7233 248.023 10.4517 241.989 2.38721 237.88Z" fill="#C3001D" fill-opacity="0.4"/>
<path d="M59.1337 42.0219C46.1078 38.6005 19.5464 42.4553 6.86171 49.6139C23.5442 55.2688 46.6887 51.9103 59.1337 42.0219Z" fill="#C3001D" fill-opacity="0.4"/>
<path d="M136.656 212.222C129.452 223.761 118.601 233.903 110.208 238.296C111.685 236.079 112.959 233.849 114.215 231.651C115.643 229.035 117.217 226.497 118.93 224.051C119.941 222.666 121.131 221.117 122.472 220.311C127.137 217.539 131.961 214.831 136.667 212.203M142.303 206.536C135.292 210.491 128.216 214.346 121.303 218.465C119.622 219.468 118.277 221.184 117.103 222.799C112.569 229.027 109.876 236.326 103.959 242.729C115.037 241.514 134.194 223.661 142.303 206.536Z" fill="#C3001D" fill-opacity="0.4"/>
</svg>
