<svg width="80" height="80" viewBox="0 0 80 80" fill="none" xmlns="http://www.w3.org/2000/svg">
<path d="M75.9948 35.0132C76.0021 34.3724 75.7814 33.7497 75.372 33.2566C74.7332 32.4772 73.8804 32.0892 72.9254 31.88C70.2361 31.2923 67.5457 30.7067 64.8543 30.1233C64.4631 30.0387 64.1516 29.9971 64.5126 29.4526C66.0792 27.0859 67.5772 24.6744 69.155 22.3157C70.2265 20.7187 70.1515 19.2575 68.7813 17.8809C66.5711 15.6537 64.3566 13.436 62.1379 11.2279C60.715 9.8082 59.233 9.76987 57.5737 10.9085C55.1223 12.5758 52.6071 14.1488 50.1063 15.7697C49.814 15.313 49.8156 14.8467 49.7182 14.4155C49.1401 11.8603 48.6306 9.28439 48.0014 6.74999C47.5176 4.77773 46.4236 4 44.4578 4H35.4604C33.6622 4 32.5555 4.76655 32.0509 6.49607C31.7107 7.66346 31.4983 8.86758 31.2348 10.0573C30.818 11.9402 30.406 13.823 29.986 15.7266C29.8901 15.7039 29.7966 15.6723 29.7065 15.6324C27.2104 14.0226 24.7032 12.4384 22.2279 10.7887C20.7906 9.83055 19.2415 9.88166 18.0294 11.081C15.6872 13.3955 13.3609 15.7229 11.0506 18.063C9.90881 19.2287 9.82257 20.7682 10.7217 22.1336C12.2963 24.5291 13.8358 26.9405 15.404 29.336C15.7234 29.8151 15.7234 30.0291 15.075 30.1632C12.6891 30.6423 10.3224 31.2412 7.93175 31.7027C6.24375 32.0221 4.78092 32.5954 4 34.2579V34.5773C4.22358 34.7561 4.1597 35.01 4.1597 35.24C4.1597 38.3541 4.1597 41.4693 4.1597 44.5855C4.1597 44.8155 4.22677 45.0646 4 45.2483V45.7273C4.73621 47.3387 6.11439 47.9631 7.75449 48.2825C10.2474 48.7728 12.7243 49.3493 15.206 49.8939C15.38 49.9322 15.5445 50.0088 15.7889 50.0919C14.1312 52.647 12.531 55.1782 10.8654 57.6631C9.78744 59.2745 9.84972 60.7389 11.2055 62.0995C13.452 64.3566 15.7032 66.6078 17.9592 68.8531C19.2367 70.1307 20.781 70.201 22.2822 69.1949C24.6377 67.6155 27.0364 66.1015 29.4095 64.5477C29.8534 64.257 30.0243 64.3305 30.1361 64.8671C30.6519 67.3552 31.2252 69.8305 31.7331 72.3218C32.0525 73.9187 32.6673 75.2889 34.2659 75.9948H45.7337C47.2333 75.3321 47.9056 74.0784 48.2059 72.5517C48.4757 71.1735 48.7856 69.8049 49.0858 68.4347C49.386 67.0645 49.7022 65.6576 50.0328 64.1644C52.6854 65.8907 55.2517 67.534 57.7877 69.222C59.1994 70.1627 60.7453 70.1259 61.9239 68.9633C64.3055 66.6136 66.6695 64.2491 69.016 61.8696C70.0988 60.7692 70.1898 59.2154 69.345 57.9234C67.8226 55.5929 66.3049 53.2592 64.792 50.9223C64.19 49.9977 64.1916 49.9961 65.2376 49.7629C65.3414 49.7405 65.4468 49.7326 65.557 49.7086C68.1664 49.1289 70.7839 48.5811 73.3822 47.9519C75.0191 47.5591 75.99 46.4077 75.9964 44.9608C76.006 41.6471 75.9932 38.3349 75.9948 35.0132ZM74.4266 44.453C74.4266 45.7305 74.0433 46.2304 72.7226 46.529C70.2952 47.08 67.8598 47.599 65.4276 48.126C64.6291 48.3001 63.8195 48.455 63.0194 48.6386C62.1187 48.8462 61.9015 49.3653 62.4077 50.1526C64.2432 53.0079 66.0856 55.8591 67.9349 58.706C68.4491 59.4965 68.4507 60.2071 67.7959 60.8699C65.5016 63.2004 63.1929 65.5101 60.8699 67.7991C60.2071 68.4523 59.4997 68.4491 58.706 67.9333C55.8783 66.0989 53.0495 64.2709 50.2196 62.4493C49.3477 61.8871 48.8383 62.0995 48.6227 63.0992C47.9743 66.1015 47.3265 69.1044 46.6791 72.1078C46.6052 72.4709 46.5076 72.8289 46.3869 73.1793C46.0436 74.1375 45.6235 74.4282 44.6063 74.4298C41.5529 74.4298 38.5005 74.4298 35.4492 74.4298C34.3122 74.4298 33.7692 74.0289 33.4977 72.8663C33.033 70.8797 32.6194 68.8835 32.1882 66.8904C31.9071 65.5953 31.6436 64.2986 31.3514 63.0066C31.147 62.1107 30.6168 61.8999 29.8279 62.4045C26.9906 64.2208 24.1586 66.0457 21.332 67.879C20.4967 68.4203 19.7462 68.3964 19.0403 67.6953C16.7854 65.4489 14.5331 63.1961 12.2835 60.9369C11.5904 60.2375 11.5872 59.4725 12.1238 58.6453C13.955 55.8474 15.7718 53.041 17.5743 50.226C18.154 49.3221 17.9176 48.843 16.8461 48.6099C13.7144 47.9312 10.5811 47.262 7.45585 46.5594C5.88283 46.2064 5.59059 45.7976 5.59059 44.2102C5.59059 41.3186 5.59059 38.426 5.59059 35.5323C5.59059 34.293 5.97865 33.7756 7.23068 33.4801C9.42492 32.9771 11.6272 32.522 13.8278 32.0429C14.8349 31.8236 15.8464 31.6069 16.862 31.3929C17.9272 31.1661 18.1588 30.6807 17.5775 29.7688C15.7857 26.9698 13.9864 24.1826 12.1797 21.407C11.5681 20.468 11.5872 19.7733 12.3634 18.9924C14.5736 16.7662 16.7934 14.5576 19.0116 12.3378C19.3869 11.9625 19.8005 11.7166 20.3275 11.7533C20.6805 11.7559 21.024 11.8675 21.3112 12.0727C24.1325 13.9124 26.9597 15.7431 29.7927 17.5647C30.6647 18.1268 31.1677 17.9224 31.3897 16.9147C32.0828 13.7591 32.7519 10.5971 33.4562 7.44467C33.8011 5.8988 34.2307 5.5858 35.8085 5.5858H44.4035C45.7625 5.5858 46.24 5.93394 46.5482 7.30254C47.2014 10.1963 47.8178 13.098 48.4502 15.9949C48.5221 16.3318 48.5859 16.6704 48.6738 17.0042C48.9133 17.9176 49.3796 18.1077 50.1845 17.5998C51.8198 16.5639 53.4503 15.52 55.076 14.4682C56.3233 13.6697 57.5593 12.8424 58.8034 12.0312C59.1098 11.8135 59.4829 11.7102 59.8576 11.7394C60.2323 11.7686 60.5849 11.9284 60.8539 12.1909C63.1951 14.5022 65.5197 16.829 67.8279 19.1713C68.4459 19.7989 68.4347 20.5111 67.9397 21.2729C66.1085 24.0974 64.2799 26.9256 62.4541 29.7576C61.8712 30.6647 62.0947 31.1486 63.1615 31.3801C66.2932 32.0572 69.4249 32.728 72.5517 33.4306C74.1295 33.7884 74.4266 34.194 74.4266 35.7798C74.4266 38.6693 74.4266 41.5603 74.4266 44.453Z" fill="#C3001D"/>
<path d="M4 34.584C4.22358 34.7628 4.1597 35.0168 4.1597 35.2467C4.1597 38.3608 4.1597 41.476 4.1597 44.5922C4.1597 44.8222 4.22677 45.0713 4 45.255V34.584Z" fill="#C3001D"/>
<path d="M40.0914 19.1329C28.5724 19.1025 19.171 28.4337 19.1407 39.9095C19.1151 51.4509 28.4846 60.8522 40.0036 60.8522C51.5018 60.8522 60.8568 51.4892 60.8632 39.9878C60.868 28.5231 51.5433 19.1712 40.0914 19.1329ZM40.0211 59.2744C29.4204 59.2744 20.7504 50.6396 20.7345 40.0548C20.7169 29.4238 29.3821 20.7315 40.002 20.7315C50.6218 20.7315 59.2822 29.3919 59.2726 40.0373C59.2551 50.6412 50.6314 59.2696 40.0131 59.2744H40.0211Z" fill="#C3001D"/>
<path d="M44.1844 37.1452C46.7188 35.5386 47.9868 33.1703 47.8463 30.1824C47.6977 27.0316 46.104 24.7399 43.2613 23.3537C42.193 22.8331 41.7426 23.1445 41.7394 24.3518C41.7394 25.9169 41.7251 27.4819 41.7474 29.0469C41.7474 29.5021 41.6628 29.7304 41.1422 29.7049C40.374 29.6666 39.6027 29.673 38.8345 29.7049C38.3554 29.7225 38.2484 29.5196 38.2612 29.0917C38.2852 28.2692 38.2612 27.4468 38.2612 26.6243C38.2612 25.8546 38.2612 25.0848 38.2612 24.3167C38.2612 23.1525 37.8205 22.8459 36.7888 23.3441C34.157 24.6217 32.5488 26.6978 32.2215 29.6059C31.8717 32.7072 33.0199 35.2512 35.6278 36.9983C36.364 37.4917 36.6259 37.9724 36.4806 38.7773C36.4573 38.9611 36.4445 39.1462 36.4423 39.3315C36.1495 43.8573 35.8594 48.382 35.5719 52.9057C35.5338 53.357 35.5867 53.8113 35.7274 54.2417C35.8681 54.6721 36.0938 55.0698 36.3912 55.4114C37.6033 56.8215 40.0642 57.2958 42.0572 56.5021C43.8251 55.7963 44.5517 54.5075 44.4112 52.2877C44.1173 47.6842 43.8155 43.0801 43.5057 38.4755C43.4689 37.8543 43.6207 37.5029 44.1844 37.1452ZM42.9467 36.0177C42.1099 36.4537 41.8161 36.9296 41.8816 37.8638C42.2297 42.7586 42.5076 47.6581 42.8397 52.556C42.9356 54.014 42.4133 54.7918 40.9904 55.1734C40.373 55.3397 39.7233 55.3457 39.1028 55.191C37.5793 54.8205 37.0699 54.0588 37.1737 52.4905C37.5011 47.5399 37.7885 42.5893 38.1319 37.6387C38.1846 36.8561 37.9179 36.4585 37.2136 36.1088C33.178 34.1094 32.5233 28.5024 35.9712 25.7093C36.1484 25.5655 36.3241 25.2877 36.562 25.3899C36.8 25.4921 36.6914 25.8115 36.6946 26.0287C36.7106 27.41 36.6946 28.7898 36.7153 30.1696C36.7249 31.0272 36.9581 31.2619 37.8029 31.2667C39.2934 31.2763 40.7802 31.2763 42.2632 31.2667C43.1016 31.2667 43.3316 31.0256 43.3364 30.1632C43.3444 28.5519 43.3364 26.9405 43.3364 25.2126C47.439 27.8923 47.1691 33.8139 42.9467 36.0177Z" fill="#C3001D"/>
</svg>
