<svg width="32" height="32" viewBox="0 0 32 32" fill="none" xmlns="http://www.w3.org/2000/svg">
<g style="mix-blend-mode:luminosity">
<path d="M11.3862 27.4331C21.4491 27.4331 26.9531 19.1865 26.9531 12.0349C26.9531 11.8007 26.9531 11.5676 26.9372 11.3354C28.0079 10.5693 28.9322 9.62078 29.6667 8.53415C28.6683 8.9718 27.6089 9.25876 26.5243 9.3856C27.6662 8.70947 28.5214 7.6452 28.9297 6.39226C27.8558 7.02259 26.6807 7.46689 25.4555 7.70589C24.4211 6.61776 22.9763 6 21.4663 6C18.462 6 15.99 8.44528 15.99 11.4169C15.99 11.8291 16.0376 12.2401 16.1318 12.6416C11.735 12.4237 7.63277 10.3665 4.856 6.98736C3.41203 9.44614 4.15917 12.6326 6.54985 14.2116C5.67928 14.1861 4.8274 13.9538 4.06667 13.5342V13.6028C4.0674 16.1692 5.91287 18.3998 8.45601 18.9079C7.65059 19.1252 6.80532 19.1569 5.98563 19.0007C6.70058 21.1998 8.76226 22.7156 11.0971 22.759C9.16012 24.2648 6.766 25.0827 4.3024 25.0802C3.86709 25.0794 3.43219 25.0534 3 25.0021C5.50178 26.5902 8.41356 27.4328 11.3862 27.4289" fill="#8BB1BB"/>
</g>
</svg>
