<svg width="32" height="32" viewBox="0 0 32 32" fill="none" xmlns="http://www.w3.org/2000/svg">
<g style="mix-blend-mode:luminosity">
<path d="M29.1094 9.88327C28.8027 8.7483 27.8993 7.8546 26.7519 7.55131C24.6721 7 16.3333 7 16.3333 7C16.3333 7 7.99444 7 5.91459 7.55131C4.76745 7.8546 3.86375 8.7483 3.55709 9.88327C3 11.9403 3 16.2323 3 16.2323C3 16.2323 3 20.5242 3.55709 22.5811C3.86375 23.7161 4.76745 24.61 5.91459 24.9133C7.99444 25.4644 16.3333 25.4644 16.3333 25.4644C16.3333 25.4644 24.6721 25.4644 26.7519 24.9133C27.8993 24.61 28.8027 23.7161 29.1094 22.5811C29.6667 20.5242 29.6667 16.2323 29.6667 16.2323C29.6667 16.2323 29.6667 11.9403 29.1094 9.88327Z" fill="#8BB1BB"/>
<path d="M13.668 20.1943L20.5961 16.2378L13.668 12.2812V20.1943Z" fill="white"/>
</g>
</svg>
