<svg width="73" height="18" viewBox="0 0 73 18" fill="none" xmlns="http://www.w3.org/2000/svg">
<path d="M31.6879 12.952C31.7759 12.9695 31.8813 12.9869 32.0044 12.9869H32.3736C32.5319 12.9869 32.7077 12.9869 32.8659 12.9695C33.0241 12.9695 33.1648 12.9695 33.2878 12.952L32.989 14.0318C32.901 14.3627 32.7956 14.624 32.6725 14.8155C32.5494 15.0071 32.4263 15.129 32.3033 15.2161C32.1627 15.3032 32.0219 15.3554 31.8813 15.3729C31.7407 15.3902 31.6 15.4076 31.4594 15.4076C31.2836 15.4076 31.1078 15.3902 30.932 15.3554C30.7562 15.338 30.6154 15.3032 30.51 15.2683C30.4221 15.4947 30.3342 15.7385 30.2814 15.9824C30.2111 16.2436 30.176 16.5048 30.176 16.7835V16.9054C30.176 16.9576 30.176 17.0099 30.1935 17.0621C30.4572 17.1318 30.721 17.184 30.9847 17.2189C31.2484 17.2712 31.5297 17.2886 31.8637 17.2886C32.2153 17.2886 32.5494 17.2537 32.8483 17.184C33.1472 17.1318 33.4284 17.0099 33.6746 16.8531C33.9208 16.6964 34.1493 16.47 34.3427 16.1739C34.5361 15.8779 34.6943 15.5122 34.8349 15.0767L38.2281 3.94821C37.9293 3.89594 37.6831 3.86117 37.4897 3.84375H36.9272C36.5228 3.84375 36.1184 3.8786 35.7316 3.94821L33.5867 11.8026L31.6879 3.94821C31.4945 3.89594 31.266 3.8786 31.0198 3.86117C30.7737 3.84375 30.5276 3.84375 30.299 3.84375H29.7364C29.5255 3.86117 29.2793 3.89594 29.0156 3.94821L31.6879 12.952Z" fill="#0B1C3C"/>
<path d="M39.4414 8.78977C39.4414 9.74768 39.5645 10.5313 39.8106 11.1061C40.0568 11.6808 40.3908 12.1336 40.8128 12.4297C41.2171 12.7258 41.7094 12.9348 42.2544 13.0218C42.7994 13.1089 43.3796 13.1611 43.9774 13.1611C44.6455 13.1611 45.296 13.0915 45.9113 12.9696C46.5266 12.8477 47.0189 12.7258 47.3881 12.6039V3.94821C46.9662 3.8786 46.5442 3.84375 46.1398 3.84375C45.7355 3.84375 45.3311 3.8786 44.9092 3.94821V11.0016C44.6103 11.0887 44.2587 11.1235 43.8192 11.1235C43.5027 11.1235 43.2214 11.0887 42.9928 11.0016C42.7643 10.9319 42.5709 10.81 42.4127 10.6185C42.2544 10.4443 42.1314 10.2005 42.0611 9.88699C41.9731 9.59094 41.938 9.19036 41.938 8.72016V3.94821C41.5161 3.8786 41.0941 3.84375 40.6897 3.84375C40.2854 3.84375 39.8634 3.8786 39.4414 3.94821V8.78977Z" fill="#0B1C3C"/>
<path d="M55.1066 3.91965C54.8956 3.86746 54.6847 3.81519 54.4561 3.79776C54.2276 3.78034 53.999 3.78034 53.788 3.78034C53.0848 3.78034 52.4519 3.9023 51.8717 4.14606C51.2915 4.40733 50.8168 4.7382 50.4124 5.17354C50.0081 5.60895 49.6916 6.11398 49.4807 6.68869C49.2521 7.28075 49.1465 7.90774 49.1465 8.56949C49.1465 9.40539 49.2697 10.1194 49.5334 10.6941C49.7795 11.2688 50.1135 11.739 50.553 12.1047C50.9926 12.4704 51.4849 12.7491 52.0651 12.9058C52.6277 13.08 53.2254 13.167 53.8408 13.167C54.6495 13.167 55.3351 13.1148 55.9153 13.0277C56.4779 12.9407 57.0406 12.8187 57.5855 12.662V0.227739C57.3746 0.192893 57.1636 0.175471 56.9526 0.158048C56.7416 0.140625 56.5306 0.140625 56.3373 0.140625C56.1439 0.140625 55.9329 0.140625 55.7395 0.158048C55.5285 0.175471 55.3175 0.192893 55.1066 0.227739V3.91965ZM55.1066 10.9902C54.9132 11.0424 54.7198 11.0772 54.5616 11.0946C54.4034 11.112 54.21 11.1295 54.0166 11.1295C53.6826 11.1295 53.3836 11.0772 53.1023 10.9902C52.8211 10.903 52.5749 10.7637 52.3815 10.5722C52.1705 10.3806 52.0123 10.102 51.8893 9.77112C51.7662 9.44024 51.7134 9.03967 51.7134 8.56949C51.7134 8.18635 51.7662 7.82063 51.8541 7.4549C51.942 7.10661 52.0651 6.79315 52.2585 6.53189C52.4519 6.2707 52.6804 6.06171 52.9793 5.90498C53.2606 5.74825 53.5946 5.67856 53.9814 5.67856C54.21 5.67856 54.3858 5.67856 54.544 5.69599C54.6847 5.71341 54.8781 5.76568 55.1066 5.81795V10.9902Z" fill="#0B1C3C"/>
<path d="M60.4866 12.9575C60.9085 13.0272 61.3129 13.062 61.6997 13.062C62.1041 13.062 62.5084 13.0272 62.9304 12.9575V3.95341H59.3086C59.2383 4.24954 59.2031 4.56301 59.2031 4.87648C59.2031 5.03322 59.2207 5.18996 59.2383 5.34669C59.2559 5.52085 59.2735 5.67759 59.3086 5.83433H60.4866V12.9575ZM60.7678 2.50794C60.9964 2.52528 61.2074 2.52528 61.4008 2.52528C61.5941 2.52528 61.8227 2.52528 62.0513 2.50794C62.2799 2.49051 62.4908 2.47309 62.6842 2.43824C62.7194 2.24666 62.737 2.03765 62.7545 1.84607C62.7721 1.65448 62.7721 1.46298 62.7721 1.27139C62.7721 1.07981 62.7721 0.870801 62.7545 0.679217C62.737 0.487632 62.7194 0.296049 62.6842 0.104464C62.4908 0.0696955 62.2623 0.0348477 62.0337 0.0174238C61.8051 -9.75105e-08 61.5766 0 61.3832 0C61.1898 0 60.9964 -9.75105e-08 60.7678 0.0174238C60.5393 0.0348477 60.3108 0.0696955 60.1174 0.104464C60.047 0.505056 60.0118 0.905649 60.0118 1.27139C60.0118 1.65448 60.047 2.03765 60.1174 2.43824C60.3108 2.47309 60.5393 2.49051 60.7678 2.50794Z" fill="#0B1C3C"/>
<path d="M64.7735 12.9531H72.1927C72.2279 12.7963 72.2455 12.6396 72.2631 12.4828C72.2806 12.3435 72.2806 12.2042 72.2806 12.0475C72.2806 11.8908 72.2806 11.7166 72.2631 11.5599C72.2455 11.4031 72.2279 11.2289 72.1927 11.0548H68.3249L72.4916 4.15822L72.4037 3.94922H65.2482C65.213 4.10595 65.1954 4.26268 65.1778 4.40207C65.1602 4.5588 65.1602 4.69811 65.1602 4.85484C65.1602 5.01158 65.1602 5.18573 65.1778 5.34246C65.1954 5.4992 65.213 5.67335 65.2482 5.84751H68.7292L64.6328 12.7441L64.7735 12.9531Z" fill="#0B1C3C"/>
<path d="M36.4989 16.7609C36.4784 16.8219 36.4638 16.8799 36.4551 16.938C36.633 17.0047 36.811 17.0396 36.9948 17.0396C37.1523 17.0396 37.2894 17.0193 37.4032 16.9786C37.517 16.938 37.6132 16.8828 37.6891 16.816C37.762 16.7493 37.8174 16.668 37.8553 16.578C37.8903 16.488 37.9078 16.3923 37.9078 16.2935C37.9078 16.2239 37.8961 16.163 37.8728 16.1078C37.8466 16.0555 37.8145 16.0091 37.7707 15.9656C37.7269 15.922 37.6774 15.8843 37.622 15.8466C37.5666 15.8088 37.5053 15.774 37.4382 15.7363C37.3653 15.6927 37.304 15.6521 37.2574 15.6086C37.2077 15.565 37.1844 15.5128 37.1844 15.446C37.1844 15.3995 37.1961 15.3618 37.2164 15.3328C37.2369 15.3038 37.266 15.2805 37.2982 15.2631C37.3303 15.2486 37.3653 15.237 37.4061 15.2311C37.444 15.2254 37.482 15.2225 37.517 15.2225C37.6132 15.2225 37.6891 15.2311 37.7503 15.2486C37.8087 15.266 37.867 15.2892 37.9224 15.3153C37.9574 15.2602 37.9837 15.2021 38.0041 15.1441C38.0245 15.0861 38.0362 15.0309 38.045 14.9786C37.9604 14.9467 37.8786 14.9206 37.7999 14.9061C37.7211 14.8916 37.6307 14.8828 37.5228 14.8828C37.4032 14.8828 37.2952 14.8974 37.1989 14.9264C37.1027 14.9583 37.0181 15.0019 36.951 15.057C36.8839 15.1122 36.8314 15.1819 36.7935 15.2631C36.7555 15.3473 36.7381 15.4402 36.7381 15.5447C36.7381 15.6521 36.776 15.742 36.8489 15.8204C36.9219 15.8988 37.0181 15.9771 37.1435 16.0498C37.1815 16.0729 37.2164 16.0933 37.2544 16.1136C37.2923 16.1339 37.3244 16.1571 37.3506 16.1804C37.3769 16.2036 37.4002 16.2297 37.4177 16.2588C37.4352 16.2878 37.444 16.3226 37.444 16.3603C37.444 16.4126 37.4324 16.459 37.4119 16.4968C37.3915 16.5345 37.3623 16.5693 37.3244 16.5954C37.2865 16.6216 37.2398 16.6419 37.1903 16.6564C37.1377 16.671 37.0823 16.6767 37.021 16.6767C36.9481 16.6767 36.8752 16.668 36.7993 16.6477C36.7206 16.6274 36.6447 16.6042 36.5718 16.578C36.5426 16.6419 36.5193 16.7029 36.4989 16.7609Z" fill="#808184"/>
<path d="M39.1628 16.9642C39.2708 16.909 39.3583 16.8335 39.4283 16.7406C39.4983 16.6477 39.5508 16.5432 39.5859 16.4271C39.6179 16.3109 39.6354 16.1919 39.6354 16.0728C39.6354 15.8899 39.5887 15.7477 39.4954 15.6402C39.3991 15.5328 39.2504 15.4805 39.0491 15.4805C38.9062 15.4805 38.7837 15.5096 38.6786 15.5676C38.5707 15.6286 38.4831 15.704 38.4132 15.797C38.3431 15.8928 38.2906 15.9973 38.2557 16.1135C38.2206 16.2325 38.2031 16.3487 38.2031 16.4648C38.2031 16.6477 38.2498 16.79 38.3461 16.8945C38.4394 16.9991 38.5852 17.0513 38.7865 17.0513C38.9295 17.0513 39.0549 17.0222 39.1628 16.9642ZM38.6173 16.4793C38.6173 16.4183 38.6232 16.3515 38.6378 16.2731C38.6495 16.1947 38.6698 16.1222 38.7019 16.0525C38.7341 15.9828 38.772 15.9247 38.8215 15.8754C38.8711 15.826 38.9324 15.8028 39.0053 15.8028C39.1512 15.8028 39.2241 15.8928 39.2241 16.0699C39.2241 16.1309 39.2183 16.2006 39.2037 16.276C39.1891 16.3544 39.1687 16.4271 39.1366 16.4939C39.1045 16.5635 39.0608 16.6215 39.0111 16.6681C38.9615 16.7145 38.8974 16.7377 38.8245 16.7377C38.6874 16.7377 38.6173 16.6506 38.6173 16.4793Z" fill="#808184"/>
<path d="M39.9813 16.4557C39.9755 16.4877 39.9697 16.5196 39.9667 16.5486C39.9639 16.5805 39.9609 16.6096 39.9609 16.6357C39.9609 16.775 39.9988 16.8766 40.0747 16.9404C40.1505 17.0071 40.2556 17.0391 40.3868 17.0391C40.4422 17.0391 40.4947 17.0362 40.5415 17.0275C40.5881 17.0217 40.626 17.013 40.6552 17.0014C40.6581 16.9869 40.6581 16.9724 40.661 16.9579V16.9143C40.661 16.8737 40.6581 16.833 40.6523 16.7953C40.6435 16.7576 40.6347 16.7199 40.626 16.688C40.6086 16.6937 40.5881 16.6966 40.5677 16.6996C40.5473 16.7025 40.5327 16.7054 40.524 16.7054C40.5064 16.7054 40.4889 16.7025 40.4714 16.6996C40.4539 16.6966 40.4394 16.6908 40.4247 16.6821C40.4101 16.6735 40.4014 16.6589 40.3926 16.6415C40.3839 16.6241 40.3781 16.6009 40.3781 16.5689C40.3781 16.5486 40.381 16.5196 40.3868 16.4877L40.6114 15.321C40.6231 15.2601 40.6319 15.202 40.6406 15.1498C40.6494 15.0975 40.6523 15.0511 40.6523 15.0105C40.6523 14.9669 40.6464 14.9292 40.6377 14.9002C40.5706 14.8886 40.5064 14.8828 40.451 14.8828C40.4189 14.8828 40.3839 14.8828 40.3402 14.8856C40.2964 14.8886 40.2584 14.8944 40.2264 14.9002C40.2293 14.9176 40.2293 14.9322 40.2322 14.9467V15.0018C40.2322 15.054 40.2293 15.1179 40.2206 15.1933C40.2118 15.2717 40.1943 15.3616 40.1738 15.4632L39.9813 16.4557Z" fill="#808184"/>
<path d="M41.0283 16.4501C41.0224 16.4879 41.0166 16.5227 41.0136 16.5547C41.0108 16.5866 41.0078 16.6185 41.0078 16.6475C41.0078 16.784 41.0399 16.8827 41.107 16.9407C41.1712 17.0017 41.2616 17.0308 41.3783 17.0308C41.4308 17.0308 41.4833 17.022 41.5358 17.0075C41.5854 16.993 41.635 16.9697 41.6787 16.9436C41.7225 16.9175 41.7634 16.8856 41.7984 16.8478C41.8334 16.8101 41.8625 16.7724 41.8858 16.7317C41.883 16.7579 41.88 16.7781 41.88 16.7955C41.8771 16.813 41.8771 16.8304 41.8771 16.8478C41.8771 16.8914 41.88 16.9233 41.883 16.9436C41.8858 16.964 41.8917 16.9842 41.8946 16.9988C41.9617 17.0104 42.02 17.0162 42.0755 17.0162C42.1396 17.0162 42.2038 17.0104 42.268 16.9988C42.2651 16.9814 42.2651 16.964 42.2651 16.9495V16.8972C42.2651 16.8449 42.2709 16.7724 42.2826 16.6766C42.2913 16.5837 42.3089 16.4763 42.3292 16.3543L42.4868 15.4979C42.4197 15.4863 42.3526 15.4805 42.2855 15.4805C42.2184 15.4805 42.1484 15.4863 42.0726 15.4979L41.9646 16.0814C41.9413 16.212 41.9121 16.3166 41.88 16.395C41.848 16.4734 41.8129 16.5343 41.7779 16.5778C41.7429 16.6214 41.708 16.6505 41.6758 16.665C41.6409 16.6795 41.6087 16.6852 41.5824 16.6852C41.5358 16.6852 41.5008 16.6736 41.4745 16.6505C41.4483 16.6272 41.4366 16.5866 41.4366 16.5285C41.4366 16.4936 41.4396 16.4559 41.4483 16.4182L41.6117 15.4979C41.5446 15.4863 41.4775 15.4805 41.4104 15.4805C41.3783 15.4805 41.3433 15.4805 41.3083 15.4834C41.2704 15.4863 41.2354 15.4921 41.1974 15.4979L41.0283 16.4501Z" fill="#808184"/>
<path d="M42.8658 16.4522C42.8599 16.49 42.8541 16.5219 42.8511 16.5538C42.8483 16.5858 42.8453 16.6148 42.8453 16.6438C42.8453 16.786 42.8861 16.8847 42.9649 16.9457C43.0436 17.0066 43.1633 17.0356 43.3266 17.0356C43.4433 17.0356 43.5425 17.0241 43.6271 16.998C43.63 16.9835 43.63 16.966 43.63 16.9515V16.9051C43.63 16.815 43.6184 16.7396 43.5921 16.6845C43.5716 16.6902 43.5483 16.6961 43.522 16.699C43.4958 16.7047 43.4667 16.7077 43.4346 16.7077C43.3704 16.7077 43.3266 16.6932 43.3033 16.6641C43.2799 16.6351 43.2682 16.5944 43.2682 16.5451C43.2682 16.5248 43.2712 16.5016 43.2741 16.4784C43.277 16.4551 43.2799 16.429 43.2829 16.4029L43.385 15.8311H43.7466C43.7642 15.7759 43.7788 15.7265 43.7875 15.6772C43.7962 15.6278 43.8021 15.5756 43.8021 15.5175H43.4404L43.4579 15.4217C43.4667 15.3782 43.4725 15.3405 43.4783 15.3028C43.4812 15.2679 43.4842 15.236 43.4842 15.2041C43.4842 15.1605 43.4783 15.1228 43.4695 15.0938C43.4054 15.0938 43.3353 15.0996 43.2596 15.1141C43.1837 15.1286 43.1195 15.1518 43.0699 15.1837C43.0699 15.2128 43.0699 15.2476 43.067 15.2912C43.0641 15.3347 43.0583 15.3811 43.0495 15.4305L43.032 15.5175H42.8073C42.787 15.5727 42.7724 15.6278 42.7637 15.6772C42.7549 15.7265 42.752 15.7788 42.752 15.8311H42.9766L42.8658 16.4522Z" fill="#808184"/>
<path d="M44.002 17.0076C44.072 17.0191 44.1361 17.0249 44.1974 17.0249C44.2645 17.0249 44.3345 17.0191 44.4074 17.0076L44.6729 15.5066H44.0837C44.0632 15.5531 44.0487 15.5967 44.0399 15.6402C44.0312 15.6837 44.0254 15.7331 44.0254 15.7824C44.0254 15.7911 44.0254 15.7969 44.0282 15.8028V15.8202H44.212L44.002 17.0076ZM44.4016 15.2657C44.4395 15.2686 44.4745 15.2686 44.5037 15.2686C44.5358 15.2686 44.5708 15.2686 44.6087 15.2657C44.6466 15.2628 44.6816 15.2599 44.7166 15.2541C44.74 15.1873 44.7575 15.1235 44.7692 15.0624C44.7808 15.0015 44.7867 14.9347 44.7867 14.868C44.7546 14.8592 44.7196 14.8535 44.6816 14.8506C44.6437 14.8477 44.6087 14.8477 44.5767 14.8477C44.5446 14.8477 44.5096 14.8477 44.4716 14.8506C44.4337 14.8535 44.3957 14.8592 44.3608 14.868C44.3374 14.9347 44.3199 14.9986 44.3112 15.0596C44.2995 15.1206 44.2937 15.1873 44.2966 15.2541C44.3287 15.2599 44.3637 15.2628 44.4016 15.2657Z" fill="#808184"/>
<path d="M45.9051 16.9642C46.013 16.909 46.1005 16.8335 46.1705 16.7406C46.2406 16.6477 46.293 16.5431 46.328 16.427C46.3601 16.3109 46.3776 16.1919 46.3776 16.0728C46.3776 15.8899 46.331 15.7476 46.2376 15.6401C46.1413 15.5327 45.9926 15.4805 45.7913 15.4805C45.6483 15.4805 45.5258 15.5095 45.4208 15.5675C45.3129 15.6285 45.2254 15.704 45.1554 15.797C45.0853 15.8928 45.0329 15.9973 44.9978 16.1135C44.9628 16.2325 44.9453 16.3486 44.9453 16.4647C44.9453 16.6477 44.992 16.79 45.0883 16.8945C45.1816 16.9991 45.3275 17.0513 45.5288 17.0513C45.6717 17.0513 45.7972 17.0222 45.9051 16.9642ZM45.3596 16.4793C45.3596 16.4183 45.3654 16.3516 45.38 16.2732C45.3917 16.1947 45.412 16.1221 45.4442 16.0524C45.4763 15.9828 45.5141 15.9247 45.5637 15.8754C45.6133 15.826 45.6746 15.8027 45.7475 15.8027C45.8934 15.8027 45.9663 15.8928 45.9663 16.0698C45.9663 16.1308 45.9605 16.2005 45.9459 16.276C45.9313 16.3544 45.9109 16.427 45.8788 16.4938C45.8468 16.5635 45.803 16.6216 45.7534 16.6681C45.7038 16.7145 45.6396 16.7377 45.5667 16.7377C45.4295 16.7377 45.3596 16.6506 45.3596 16.4793Z" fill="#808184"/>
<path d="M46.6445 17.0133C46.7116 17.0249 46.7787 17.0308 46.8458 17.0308C46.9129 17.0308 46.9829 17.0249 47.0587 17.0133L47.1666 16.4298C47.19 16.2992 47.2192 16.1946 47.2512 16.1162C47.2834 16.0379 47.3183 15.974 47.3534 15.9305C47.3884 15.8869 47.4234 15.8608 47.4584 15.8463C47.4905 15.8318 47.5226 15.826 47.5488 15.826C47.5955 15.826 47.6305 15.8376 47.6568 15.8608C47.683 15.884 47.6946 15.9246 47.6946 15.9828C47.6946 16.0175 47.6918 16.0553 47.683 16.0931L47.5196 17.0133C47.5867 17.0249 47.6538 17.0308 47.7209 17.0308C47.788 17.0308 47.861 17.0249 47.9339 17.0133L48.1031 16.0611C48.1089 16.0234 48.1147 15.9885 48.1177 15.9566C48.1206 15.9246 48.1235 15.8927 48.1235 15.8637C48.1235 15.7273 48.0914 15.6286 48.0273 15.5676C47.9602 15.5096 47.8697 15.4805 47.753 15.4805C47.7005 15.4805 47.648 15.4892 47.5984 15.5037C47.5459 15.5182 47.4963 15.5415 47.4525 15.5676C47.4088 15.5937 47.3679 15.6256 47.333 15.6634C47.298 15.7011 47.2688 15.7389 47.2454 15.7796C47.2484 15.7534 47.2512 15.733 47.2542 15.7157V15.6634C47.2542 15.6199 47.2512 15.5879 47.2484 15.5676C47.2454 15.5473 47.2396 15.5269 47.2367 15.5124C47.2046 15.5066 47.1725 15.5008 47.1433 15.4979C47.1142 15.495 47.085 15.495 47.0559 15.495C46.9916 15.495 46.9275 15.5008 46.8633 15.5124C46.8662 15.5298 46.8662 15.5443 46.8662 15.5588V15.614C46.8662 15.6663 46.8604 15.7389 46.8516 15.8318C46.8399 15.9276 46.8225 16.0349 46.802 16.1569L46.6445 17.0133Z" fill="#808184"/>
<path d="M48.9262 16.3922C48.9758 16.4125 49.0137 16.4328 49.04 16.4561C49.0662 16.4822 49.0808 16.5141 49.0808 16.5519C49.0808 16.5867 49.072 16.6158 49.0545 16.639C49.0341 16.6651 49.0108 16.6826 48.9846 16.6971C48.9583 16.7116 48.9262 16.7203 48.8942 16.7261C48.862 16.7319 48.8299 16.7348 48.8008 16.7348C48.7425 16.7348 48.6812 16.729 48.6199 16.7174C48.5557 16.7087 48.4945 16.6883 48.4333 16.6622C48.3807 16.758 48.3515 16.8625 48.3457 16.9758C48.407 17.002 48.4741 17.0193 48.5499 17.031C48.6258 17.0455 48.6957 17.0513 48.757 17.0513C48.8591 17.0513 48.9554 17.0397 49.0458 17.0165C49.1363 16.9932 49.2121 16.9584 49.2792 16.909C49.3463 16.8625 49.3987 16.8045 49.4367 16.7319C49.4746 16.6622 49.4951 16.578 49.4951 16.4822C49.4951 16.43 49.4863 16.3835 49.4717 16.3457C49.4542 16.3079 49.4308 16.2732 49.4046 16.2441C49.3784 16.215 49.3463 16.1889 49.3113 16.1686C49.2763 16.1482 49.2412 16.1309 49.2034 16.1163L49.0895 16.067C49.0166 16.0351 48.9787 15.9886 48.9787 15.9305C48.9787 15.9015 48.9874 15.8782 49.0021 15.8579C49.0166 15.8376 49.037 15.8231 49.0604 15.8144C49.0837 15.8056 49.11 15.797 49.1363 15.794C49.1625 15.7911 49.1858 15.7882 49.2062 15.7882C49.2587 15.7882 49.3141 15.794 49.3725 15.8086C49.4308 15.8231 49.4805 15.8405 49.5213 15.8608C49.5534 15.8115 49.5797 15.7592 49.5942 15.7098C49.6088 15.6604 49.6175 15.6111 49.6205 15.5617C49.5913 15.5472 49.5592 15.5327 49.5242 15.5211C49.4863 15.5124 49.4513 15.5037 49.4134 15.4978C49.3754 15.4921 49.3375 15.4862 49.2996 15.4833C49.2617 15.4805 49.2296 15.4805 49.1975 15.4805C49.1071 15.4805 49.0254 15.4921 48.9495 15.5152C48.8708 15.5385 48.8037 15.5705 48.7483 15.614C48.6899 15.6575 48.6462 15.7127 48.6141 15.7737C48.582 15.8376 48.5645 15.9101 48.5645 15.9914C48.5645 16.0467 48.5733 16.096 48.5908 16.1366C48.6053 16.1773 48.6286 16.2121 48.6549 16.2383C48.6812 16.2673 48.7074 16.2905 48.7395 16.3079C48.7716 16.3283 48.8008 16.3428 48.8329 16.3544L48.9262 16.3922Z" fill="#808184"/>
<path d="M50.5391 17.005C50.5799 17.0108 50.6178 17.0137 50.6557 17.0166C50.6908 17.0195 50.7228 17.0195 50.752 17.0195C50.7841 17.0195 50.8191 17.0195 50.8541 17.0166C50.8891 17.0137 50.927 17.0108 50.9649 17.005L51.0816 16.3344C51.0991 16.3373 51.1166 16.3373 51.137 16.3373C51.1575 16.3402 51.1808 16.3402 51.2129 16.3402C51.3588 16.3402 51.49 16.3199 51.6038 16.2763C51.7175 16.2327 51.8167 16.1747 51.8955 16.0963C51.9742 16.0208 52.0355 15.9308 52.0793 15.8263C52.1201 15.7218 52.1406 15.6086 52.1406 15.4867C52.1406 15.3618 52.1172 15.2573 52.0676 15.1789C52.018 15.1005 51.9538 15.0367 51.878 14.9931C51.8021 14.9495 51.7175 14.9205 51.6271 14.906C51.5367 14.8915 51.4492 14.8828 51.3646 14.8828H51.2479C51.21 14.8857 51.175 14.8857 51.14 14.8886C51.1021 14.8915 51.0671 14.8973 51.0291 14.9002C50.9912 14.9031 50.9532 14.9089 50.9096 14.9118L50.5391 17.005ZM51.2771 15.2428C51.3062 15.2399 51.3267 15.2369 51.3412 15.2369H51.385C51.42 15.2369 51.455 15.2399 51.4929 15.2486C51.5308 15.2573 51.563 15.2689 51.5951 15.2892C51.6242 15.3096 51.6475 15.3386 51.668 15.3763C51.6855 15.4141 51.6942 15.4605 51.6942 15.5157C51.6942 15.6057 51.6825 15.6811 51.6563 15.7421C51.6301 15.8031 51.5951 15.8496 51.5542 15.8873C51.5133 15.925 51.4696 15.9511 51.42 15.9656C51.3705 15.9802 51.3237 15.9889 51.2771 15.9889C51.2158 15.9889 51.172 15.986 51.1458 15.9802L51.2771 15.2428Z" fill="#808184"/>
<path d="M52.3047 16.9992C52.3718 17.0108 52.4389 17.0166 52.506 17.0166C52.5731 17.0166 52.6431 17.0108 52.719 16.9992L52.8269 16.4155C52.8414 16.3313 52.859 16.2529 52.8794 16.1831C52.8998 16.1135 52.9261 16.0525 52.9581 16.0032C52.9903 15.9538 53.034 15.916 53.0865 15.8899C53.1361 15.8637 53.2032 15.8492 53.282 15.8492C53.3024 15.8492 53.3199 15.8492 53.3345 15.8521C53.3491 15.855 53.3607 15.855 53.3724 15.858C53.3957 15.8202 53.4132 15.7708 53.4278 15.7128C53.4424 15.6547 53.4482 15.5995 53.4482 15.5444V15.5182C53.4482 15.5095 53.4482 15.5037 53.4453 15.495C53.4162 15.4862 53.3812 15.4805 53.3403 15.4805C53.2878 15.4805 53.2411 15.4891 53.1974 15.5037C53.1536 15.5211 53.1128 15.5444 53.0778 15.5705C53.0399 15.5966 53.0078 15.6285 52.9786 15.6605C52.9494 15.6953 52.9261 15.7302 52.9057 15.765C52.9085 15.7389 52.9115 15.7186 52.9144 15.7012V15.6489C52.9144 15.6053 52.9115 15.5734 52.9085 15.553C52.9057 15.5327 52.8998 15.5124 52.8969 15.4978C52.8648 15.4921 52.8327 15.4862 52.8036 15.4833C52.7744 15.4805 52.7452 15.4805 52.716 15.4805C52.6519 15.4805 52.5877 15.4862 52.5235 15.4978C52.5264 15.5153 52.5264 15.5298 52.5264 15.5444V15.5995C52.5264 15.6518 52.5206 15.7243 52.5119 15.8173C52.5002 15.9131 52.4827 16.0205 52.4623 16.1425L52.3047 16.9992Z" fill="#808184"/>
<path d="M53.6094 17.0075C53.6794 17.0191 53.7436 17.0249 53.8048 17.0249C53.8719 17.0249 53.9419 17.0191 54.0149 17.0075L54.2803 15.5066H53.691C53.6707 15.5531 53.656 15.5966 53.6473 15.6402C53.6386 15.6837 53.6327 15.733 53.6327 15.7824C53.6327 15.7912 53.6327 15.7969 53.6356 15.8027V15.8202H53.8194L53.6094 17.0075ZM54.009 15.2657C54.047 15.2686 54.082 15.2686 54.1111 15.2686C54.1432 15.2686 54.1782 15.2686 54.2162 15.2657C54.254 15.2628 54.2891 15.2599 54.3241 15.254C54.3474 15.1873 54.3649 15.1235 54.3765 15.0625C54.3882 15.0015 54.394 14.9348 54.394 14.868C54.362 14.8592 54.327 14.8535 54.2891 14.8506C54.2511 14.8477 54.2162 14.8477 54.184 14.8477C54.1519 14.8477 54.1169 14.8477 54.079 14.8506C54.0411 14.8535 54.0032 14.8592 53.9682 14.868C53.9448 14.9348 53.9273 14.9987 53.9186 15.0596C53.907 15.1206 53.9011 15.1873 53.904 15.254C53.9361 15.2599 53.9711 15.2628 54.009 15.2657Z" fill="#808184"/>
<path d="M54.8504 16.9987C54.8826 17.0073 54.9234 17.0103 54.97 17.0103C55.0138 17.0132 55.0517 17.0132 55.078 17.0132C55.1042 17.0132 55.1392 17.0132 55.1801 17.0103C55.2209 17.0073 55.2617 17.0044 55.2997 16.9987L55.8889 15.9246C55.9444 15.823 55.9852 15.7388 56.0085 15.6749C56.0318 15.614 56.0435 15.5588 56.0435 15.5124V15.4979C55.9764 15.4862 55.8976 15.4805 55.8102 15.4805C55.7664 15.4805 55.7256 15.4805 55.6876 15.4833C55.6468 15.4862 55.6089 15.4921 55.5768 15.4979V15.5297C55.5768 15.5675 55.5709 15.614 55.5622 15.6692C55.5506 15.7243 55.5243 15.7997 55.4805 15.8898L55.1509 16.5981L55.0371 15.4979C54.9642 15.4862 54.8884 15.4805 54.8096 15.4805C54.7367 15.4805 54.6667 15.4862 54.5938 15.4979L54.8504 16.9987Z" fill="#808184"/>
<path d="M57.1324 16.0727C57.0944 16.2789 57.0361 16.4357 56.9574 16.5489C56.8786 16.6622 56.7911 16.7202 56.6977 16.7202C56.6014 16.7202 56.5548 16.6476 56.5548 16.5054C56.5548 16.4386 56.5636 16.366 56.5839 16.2847C56.6044 16.2063 56.6335 16.1309 56.6773 16.0611C56.7211 15.9914 56.7736 15.9334 56.8407 15.8869C56.9048 15.8405 56.9836 15.8172 57.077 15.8172H57.1266C57.1411 15.8201 57.1587 15.8231 57.1762 15.826L57.1324 16.0727ZM57.6196 15.5473C57.5466 15.5269 57.4737 15.5095 57.4008 15.4979C57.3279 15.4862 57.2461 15.4805 57.1615 15.4805C56.9894 15.4805 56.8407 15.5124 56.7123 15.5734C56.5839 15.6372 56.476 15.7215 56.3914 15.826C56.3039 15.9305 56.2397 16.0495 56.196 16.186C56.1522 16.3225 56.1289 16.4618 56.1289 16.607C56.1289 16.7405 56.161 16.848 56.2251 16.9293C56.2894 17.0106 56.3856 17.0513 56.514 17.0513C56.6306 17.0513 56.7328 17.0222 56.8202 16.9612C56.9078 16.9002 56.9807 16.8277 57.0361 16.7376C57.0332 16.7638 57.0303 16.7841 57.0303 16.8044V16.8596C57.0303 16.9032 57.0332 16.9351 57.0361 16.9554C57.039 16.9757 57.0448 16.9961 57.0478 17.0106C57.1149 17.0222 57.1732 17.028 57.2286 17.028C57.2899 17.028 57.3541 17.0222 57.4183 17.0106C57.4153 16.9931 57.4153 16.9757 57.4153 16.9612V16.909C57.4153 16.8567 57.4211 16.7841 57.4299 16.6883C57.4387 16.5954 57.4562 16.4879 57.4766 16.366L57.6196 15.5473Z" fill="#808184"/>
<path d="M58.0083 16.4522C58.0025 16.4899 57.9966 16.5218 57.9938 16.5538C57.9908 16.5857 57.9879 16.6147 57.9879 16.6437C57.9879 16.786 58.0287 16.8847 58.1075 16.9456C58.1863 17.0066 58.3058 17.0356 58.4692 17.0356C58.5859 17.0356 58.6851 17.024 58.7697 16.9979C58.7726 16.9834 58.7726 16.966 58.7726 16.9514V16.905C58.7726 16.8151 58.7609 16.7395 58.7347 16.6844C58.7143 16.6902 58.6909 16.696 58.6646 16.6989C58.6384 16.7048 58.6092 16.7076 58.5772 16.7076C58.513 16.7076 58.4692 16.6931 58.4459 16.6641C58.4225 16.6351 58.4109 16.5945 58.4109 16.5451C58.4109 16.5248 58.4138 16.5015 58.4167 16.4783C58.4197 16.4551 58.4225 16.429 58.4255 16.4029L58.5276 15.8311H58.8893C58.9068 15.7759 58.9214 15.7265 58.9301 15.6772C58.9389 15.6279 58.9447 15.5756 58.9447 15.5176H58.583L58.6005 15.4218C58.6092 15.3782 58.615 15.3405 58.6209 15.3028C58.6238 15.2679 58.6267 15.236 58.6267 15.204C58.6267 15.1605 58.6209 15.1228 58.6122 15.0938C58.548 15.0938 58.478 15.0996 58.4021 15.1141C58.3263 15.1286 58.2622 15.1519 58.2125 15.1838C58.2125 15.2128 58.2125 15.2476 58.2096 15.2912C58.2067 15.3347 58.2009 15.3811 58.1921 15.4305L58.1746 15.5176H57.95C57.9295 15.5727 57.915 15.6279 57.9062 15.6772C57.8975 15.7265 57.8945 15.7788 57.8945 15.8311H58.1192L58.0083 16.4522Z" fill="#808184"/>
<path d="M59.6888 16.4154C59.7822 16.4009 59.8726 16.3805 59.9601 16.3515C60.0447 16.3253 60.1235 16.2876 60.1906 16.2441C60.2576 16.2005 60.313 16.1454 60.3539 16.0815C60.3948 16.0176 60.4152 15.9421 60.4152 15.855C60.4152 15.794 60.4035 15.7388 60.3801 15.6924C60.3568 15.6459 60.3247 15.6053 60.2839 15.5734C60.2431 15.5414 60.1964 15.5182 60.141 15.5037C60.0856 15.4891 60.0243 15.4805 59.9601 15.4805C59.8259 15.4805 59.7063 15.5066 59.5984 15.5618C59.4905 15.6169 59.3971 15.6895 59.3241 15.7795C59.2483 15.8695 59.1899 15.9741 59.1491 16.0872C59.1083 16.2005 59.0879 16.3167 59.0879 16.4357C59.0879 16.5286 59.1025 16.6128 59.1287 16.6883C59.155 16.7667 59.1958 16.8306 59.2512 16.8828C59.3066 16.938 59.3767 16.9786 59.4613 17.0077C59.5459 17.0368 59.645 17.0513 59.7647 17.0513C59.8025 17.0513 59.8434 17.0484 59.8901 17.0425C59.9367 17.0396 59.9835 17.0309 60.0301 17.0222C60.0768 17.0135 60.1235 17.0048 60.1672 16.9902C60.211 16.9786 60.2489 16.9641 60.281 16.9496C60.281 16.8887 60.2752 16.8277 60.2664 16.7725C60.2547 16.7174 60.2343 16.6709 60.2023 16.6331C60.1352 16.6592 60.0739 16.6825 60.0155 16.697C59.9542 16.7144 59.8872 16.7231 59.8084 16.7231C59.7121 16.7231 59.6363 16.6999 59.5867 16.6535C59.5371 16.6099 59.505 16.5402 59.4933 16.4473L59.6888 16.4154ZM59.5079 16.1744C59.5196 16.125 59.5371 16.0786 59.5604 16.0292C59.5809 15.9827 59.6071 15.9421 59.6392 15.9044C59.6713 15.8666 59.7063 15.8376 59.7501 15.8144C59.7909 15.794 59.8376 15.7824 59.8871 15.7824C59.928 15.7824 59.9601 15.794 59.9863 15.8173C60.0097 15.8405 60.0213 15.8695 60.0213 15.9073C60.0213 15.9305 60.0155 15.9537 60.0068 15.9769C59.998 16.0002 59.9776 16.0234 59.9514 16.0437C59.9251 16.067 59.8871 16.0872 59.8405 16.1047C59.7938 16.125 59.7326 16.1395 59.6596 16.1511L59.5079 16.1744Z" fill="#808184"/>
<path d="M61.3672 17.0249H62.4756C62.4844 16.993 62.4931 16.9611 62.5019 16.9291C62.5106 16.9001 62.5165 16.8711 62.5223 16.8392C62.5252 16.813 62.5311 16.784 62.534 16.7521C62.5369 16.7231 62.5399 16.6912 62.5399 16.6592H61.8514L62.1548 14.9383C62.0877 14.9238 62.0177 14.918 61.9506 14.918C61.8805 14.918 61.8076 14.9238 61.7347 14.9383L61.3672 17.0249Z" fill="#808184"/>
<path d="M62.9336 17.0075C63.0036 17.0191 63.0678 17.0249 63.1291 17.0249C63.1962 17.0249 63.2661 17.0191 63.339 17.0075L63.6045 15.5067H63.0153C62.9949 15.5531 62.9802 15.5966 62.9715 15.6402C62.9627 15.6837 62.9569 15.733 62.9569 15.7824C62.9569 15.7912 62.9569 15.7969 62.9599 15.8027V15.8202H63.1436L62.9336 17.0075ZM63.3332 15.2657C63.3712 15.2686 63.4061 15.2686 63.4353 15.2686C63.4674 15.2686 63.5024 15.2686 63.5403 15.2657C63.5783 15.2628 63.6133 15.2599 63.6483 15.2541C63.6716 15.1873 63.6891 15.1235 63.7007 15.0625C63.7124 15.0016 63.7183 14.9348 63.7183 14.868C63.6862 14.8593 63.6512 14.8535 63.6133 14.8506C63.5753 14.8477 63.5403 14.8477 63.5082 14.8477C63.4762 14.8477 63.4411 14.8477 63.4032 14.8506C63.3653 14.8535 63.3274 14.8593 63.2924 14.868C63.2691 14.9348 63.2516 14.9987 63.2428 15.0596C63.2311 15.1206 63.2253 15.1873 63.2282 15.2541C63.2603 15.2599 63.2953 15.2628 63.3332 15.2657Z" fill="#808184"/>
<path d="M63.8594 17.0133C63.9265 17.0249 63.9936 17.0308 64.0607 17.0308C64.1277 17.0308 64.1978 17.0249 64.2736 17.0133L64.3816 16.4298C64.4049 16.2991 64.4311 16.1947 64.4632 16.1163C64.4954 16.0378 64.5274 15.974 64.5595 15.9304C64.5916 15.8869 64.6266 15.8608 64.6587 15.8463C64.6908 15.8317 64.7228 15.8259 64.7491 15.8259C64.7929 15.8259 64.8279 15.8375 64.8483 15.8579C64.8687 15.8782 64.8804 15.9159 64.8804 15.9682C64.8804 16.0059 64.8775 16.0495 64.8687 16.093L64.7054 17.0133C64.7725 17.0249 64.8395 17.0308 64.9066 17.0308C64.9737 17.0308 65.0467 17.0249 65.1196 17.0133L65.2363 16.3485C65.2567 16.2411 65.28 16.1511 65.3092 16.0843C65.3384 16.0176 65.3704 15.9624 65.4025 15.9247C65.4346 15.8869 65.4696 15.8608 65.5017 15.8463C65.5338 15.8317 65.563 15.8259 65.5892 15.8259C65.633 15.8259 65.668 15.8375 65.6884 15.8579C65.7088 15.8782 65.7205 15.9159 65.7205 15.9682C65.7205 16.0059 65.7176 16.0495 65.7088 16.093L65.5455 17.0133C65.6125 17.0249 65.6796 17.0308 65.7467 17.0308C65.8138 17.0308 65.8867 17.0249 65.9597 17.0133L66.1289 16.0611C66.1435 15.9885 66.1493 15.9188 66.1493 15.852C66.1493 15.7185 66.1202 15.6227 66.0589 15.5646C65.9976 15.5095 65.9101 15.4805 65.7935 15.4805C65.6884 15.4805 65.5922 15.5095 65.5017 15.5646C65.4113 15.6227 65.3442 15.6924 65.2975 15.7737C65.2858 15.6692 65.2508 15.5937 65.1954 15.5472C65.1371 15.5037 65.0554 15.4805 64.9533 15.4805C64.8454 15.4805 64.7491 15.5095 64.6616 15.5675C64.5712 15.6256 64.5041 15.6953 64.4603 15.7795C64.4632 15.7533 64.4662 15.733 64.4691 15.7156V15.6633C64.4691 15.6198 64.4662 15.5879 64.4632 15.5675C64.4603 15.5472 64.4545 15.5269 64.4516 15.5124C64.4195 15.5066 64.3874 15.5007 64.3582 15.4979C64.329 15.495 64.2999 15.495 64.2707 15.495C64.2065 15.495 64.1424 15.5007 64.0782 15.5124C64.0811 15.5298 64.0811 15.5443 64.0811 15.5588V15.614C64.0811 15.6663 64.0753 15.7388 64.0665 15.8317C64.0548 15.9275 64.0373 16.035 64.017 16.1569L63.8594 17.0133Z" fill="#808184"/>
<path d="M66.5332 17.0075C66.6032 17.0191 66.6674 17.0249 66.7286 17.0249C66.7957 17.0249 66.8657 17.0191 66.9386 17.0075L67.2041 15.5067H66.6149C66.5944 15.5531 66.5798 15.5966 66.5711 15.6402C66.5623 15.6837 66.5565 15.733 66.5565 15.7824C66.5565 15.7912 66.5565 15.7969 66.5594 15.8027V15.8202H66.7432L66.5332 17.0075ZM66.9328 15.2657C66.9707 15.2686 67.0057 15.2686 67.0349 15.2686C67.067 15.2686 67.102 15.2686 67.1399 15.2657C67.1779 15.2628 67.2129 15.2599 67.2478 15.2541C67.2712 15.1873 67.2887 15.1235 67.3004 15.0625C67.3121 15.0016 67.3179 14.9348 67.3179 14.868C67.2858 14.8593 67.2508 14.8535 67.2129 14.8506C67.1749 14.8477 67.1399 14.8477 67.1078 14.8477C67.0758 14.8477 67.0407 14.8477 67.0029 14.8506C66.9649 14.8535 66.927 14.8593 66.892 14.868C66.8687 14.9348 66.8512 14.9987 66.8424 15.0596C66.8307 15.1206 66.8249 15.1873 66.8278 15.2541C66.8599 15.2599 66.8949 15.2628 66.9328 15.2657Z" fill="#808184"/>
<path d="M67.5943 16.4522C67.5884 16.4899 67.5826 16.5218 67.5796 16.5538C67.5768 16.5857 67.5738 16.6147 67.5738 16.6438C67.5738 16.786 67.6147 16.8847 67.6934 16.9457C67.7722 17.0066 67.8918 17.0356 68.0552 17.0356C68.1719 17.0356 68.271 17.0241 68.3556 16.9979C68.3585 16.9834 68.3585 16.966 68.3585 16.9514V16.905C68.3585 16.8151 68.3469 16.7396 68.3206 16.6844C68.3001 16.6902 68.2768 16.696 68.2506 16.6989C68.2243 16.7048 68.1952 16.7077 68.1631 16.7077C68.0989 16.7077 68.0552 16.6931 68.0318 16.6641C68.0085 16.6351 67.9968 16.5945 67.9968 16.5451C67.9968 16.5248 67.9997 16.5016 68.0026 16.4783C68.0055 16.4551 68.0085 16.429 68.0114 16.4029L68.1135 15.8311H68.4752C68.4927 15.7759 68.5073 15.7265 68.5161 15.6772C68.5247 15.6279 68.5306 15.5756 68.5306 15.5176H68.1689L68.1864 15.4218C68.1952 15.3782 68.201 15.3405 68.2068 15.3028C68.2097 15.2679 68.2127 15.236 68.2127 15.204C68.2127 15.1605 68.2068 15.1228 68.198 15.0938C68.1339 15.0938 68.0639 15.0996 67.9881 15.1141C67.9122 15.1286 67.848 15.1519 67.7984 15.1838C67.7984 15.2128 67.7984 15.2476 67.7956 15.2912C67.7926 15.3347 67.7868 15.3811 67.7781 15.4305L67.7605 15.5176H67.5359C67.5155 15.5727 67.5009 15.6279 67.4922 15.6772C67.4834 15.7265 67.4805 15.7788 67.4805 15.8311H67.7051L67.5943 16.4522Z" fill="#808184"/>
<path d="M69.2748 16.4154C69.3681 16.4009 69.4586 16.3805 69.5461 16.3515C69.6307 16.3254 69.7095 16.2876 69.7766 16.2441C69.8436 16.2005 69.899 16.1454 69.9399 16.0815C69.9807 16.0176 70.0012 15.9421 70.0012 15.855C70.0012 15.794 69.9895 15.7389 69.9661 15.6925C69.9428 15.6459 69.9107 15.6053 69.8699 15.5734C69.829 15.5414 69.7824 15.5182 69.727 15.5037C69.6715 15.4891 69.6103 15.4805 69.5461 15.4805C69.4119 15.4805 69.2923 15.5066 69.1843 15.5618C69.0764 15.6169 68.983 15.6895 68.9101 15.7795C68.8343 15.8695 68.7759 15.9741 68.7351 16.0873C68.6943 16.2005 68.6738 16.3167 68.6738 16.4357C68.6738 16.5286 68.6885 16.6128 68.7147 16.6883C68.7409 16.7667 68.7818 16.8306 68.8372 16.8828C68.8926 16.938 68.9627 16.9786 69.0473 17.0077C69.1319 17.0368 69.231 17.0513 69.3507 17.0513C69.3885 17.0513 69.4294 17.0484 69.4761 17.0425C69.5227 17.0396 69.5694 17.0309 69.6161 17.0222C69.6627 17.0135 69.7095 17.0048 69.7532 16.9903C69.7969 16.9786 69.8349 16.9641 69.867 16.9496C69.867 16.8887 69.8612 16.8277 69.8524 16.7725C69.8407 16.7174 69.8203 16.6709 69.7882 16.6331C69.7211 16.6592 69.6599 16.6825 69.6015 16.697C69.5403 16.7144 69.4732 16.7231 69.3944 16.7231C69.2981 16.7231 69.2223 16.6999 69.1727 16.6535C69.1231 16.6099 69.091 16.5402 69.0793 16.4473L69.2748 16.4154ZM69.0939 16.1744C69.1056 16.125 69.1231 16.0786 69.1464 16.0292C69.1669 15.9827 69.1931 15.9421 69.2252 15.9044C69.2573 15.8667 69.2923 15.8376 69.336 15.8144C69.3769 15.794 69.4236 15.7824 69.4732 15.7824C69.514 15.7824 69.5461 15.794 69.5723 15.8173C69.5956 15.8405 69.6073 15.8695 69.6073 15.9073C69.6073 15.9305 69.6015 15.9537 69.5928 15.977C69.584 16.0002 69.5636 16.0234 69.5373 16.0437C69.511 16.067 69.4732 16.0873 69.4265 16.1047C69.3798 16.125 69.3185 16.1395 69.2456 16.1512L69.0939 16.1744Z" fill="#808184"/>
<path d="M71.2339 16.0789C71.196 16.285 71.1377 16.4417 71.0589 16.5549C70.9802 16.6681 70.8926 16.7262 70.7993 16.7262C70.7031 16.7262 70.6563 16.6536 70.6563 16.5113C70.6563 16.4446 70.6651 16.372 70.6856 16.2907C70.7059 16.2123 70.7351 16.1369 70.7789 16.0672C70.8226 15.9976 70.8751 15.9395 70.9422 15.893C71.0064 15.8466 71.0852 15.8234 71.1785 15.8234H71.2281C71.2427 15.8262 71.2602 15.8291 71.2777 15.8321L71.2339 16.0789ZM71.7794 15.3211C71.8028 15.1992 71.8145 15.0948 71.8145 15.0105C71.8145 14.967 71.8086 14.9293 71.7999 14.9002C71.7328 14.8886 71.6686 14.8828 71.6132 14.8828C71.5811 14.8828 71.5461 14.8828 71.5023 14.8857C71.4585 14.8886 71.4206 14.8944 71.3886 14.9002C71.3914 14.9177 71.3914 14.9322 71.3944 14.9467V15.0019C71.3944 15.0541 71.3914 15.1209 71.3827 15.1992C71.374 15.2776 71.3565 15.3763 71.336 15.4895C71.3273 15.4895 71.3156 15.4895 71.304 15.4866H71.2631C71.091 15.4866 70.9422 15.5186 70.8139 15.5795C70.6856 15.6434 70.5776 15.7276 70.493 15.8321C70.4055 15.9366 70.3413 16.0556 70.2976 16.192C70.2538 16.3285 70.2305 16.4678 70.2305 16.613C70.2305 16.7465 70.2625 16.8539 70.3268 16.9352C70.3909 17.0164 70.4871 17.0571 70.6155 17.0571C70.6739 17.0571 70.7293 17.0484 70.7818 17.031C70.8343 17.0136 70.8839 16.9903 70.9305 16.9613C70.9743 16.9323 71.0181 16.8975 71.056 16.8568C71.0939 16.8191 71.126 16.7756 71.1523 16.732C71.1493 16.7581 71.1465 16.7813 71.1465 16.8046C71.1435 16.8278 71.1435 16.8481 71.1435 16.8655C71.1435 16.9091 71.1465 16.941 71.1493 16.9613C71.1523 16.9817 71.1581 17.0019 71.161 17.0164C71.2281 17.0281 71.2865 17.0339 71.3419 17.0339C71.4031 17.0339 71.4673 17.0281 71.5315 17.0164C71.5286 16.999 71.5286 16.9817 71.5286 16.9671V16.9149C71.5286 16.8626 71.5344 16.7901 71.5431 16.6943C71.5519 16.6014 71.5694 16.4939 71.5899 16.372L71.7794 15.3211Z" fill="#808184"/>
<path d="M22.8835 2.50391H22.4061V17.7202H22.8835V2.50391Z" fill="#868F9E"/>
<path d="M12.1545 9.75391L9.79102 5.71094H14.5174L12.1545 9.75391Z" fill="#2780BA"/>
<path d="M12.1562 9.75391H7.44531L9.79271 5.71094L12.1562 9.75391Z" fill="#3896D2"/>
<path d="M9.79271 13.7773L7.44531 9.73438H12.1562L9.79271 13.7773Z" fill="#C03B2B"/>
<path d="M9.79236 13.7773H5.08203L7.44495 9.73438L9.79236 13.7773Z" fill="#E64C3B"/>
<path d="M7.0285 9.24063L2.33594 9.24268L4.69209 5.18359L7.0285 9.24063Z" fill="#884B9D"/>
<path d="M7.0285 9.23828L4.67291 13.2983L2.33594 9.24033L7.0285 9.23828Z" fill="#AC7AB4"/>
<path d="M4.69208 5.18619L0 5.18848L2.35559 1.12891L4.69208 5.18619Z" fill="#0EA085"/>
<path d="M4.69208 5.18359L2.33689 9.24316L0 5.18588L4.69208 5.18359Z" fill="#1CB898"/>
<path d="M7.42937 17.8311L5.08197 13.7891H9.7923L7.42937 17.8311Z" fill="#F29B20"/>
<path d="M7.42908 17.8311H2.71875L5.08167 13.7891L7.42908 17.8311Z" fill="#EEC319"/>
<path d="M14.5152 5.69873L12.1523 1.65625H16.8767L14.5152 5.69873Z" fill="#0B1C3C"/>
<path d="M14.5154 5.69873H9.78906L12.1525 1.65625L14.5154 5.69873Z" fill="#3E4965"/>
</svg>
